<?xml version="1.0" standalone="no"?>
<!DOCTYPE svg PUBLIC "-//W3C//DTD SVG 1.1//EN" "http://www.w3.org/Graphics/SVG/1.1/DTD/svg11.dtd" >
<svg xmlns="http://www.w3.org/2000/svg" xmlns:xlink="http://www.w3.org/1999/xlink" version="1.1">
<metadata>
Created by FontForge 20161013 at Wed Jan 28 13:14:00 2009
 By ,,,
Copyright (c) 2008 by Lobsang monlam. All rights reserved.
</metadata>
<defs>
<font id="MonlamUniOuChan3" horiz-adv-x="51" >
  <font-face 
    font-family="Monlam Uni OuChan3"
    font-weight="400"
    font-stretch="normal"
    units-per-em="1020"
    panose-1="1 1 1 0 1 1 1 1 1 1"
    ascent="816"
    descent="-204"
    x-height="360"
    cap-height="564"
    bbox="-1253 -1439.56 1728.06 1096.53"
    underline-thickness="102"
    underline-position="-358"
    unicode-range="U+000D-301F"
  />
<missing-glyph horiz-adv-x="500" 
d="M528 -179h-298v833h298v-833zM492 -143v760h-226v-760h226z" />
    <glyph glyph-name=".notdef" horiz-adv-x="500" 
d="M528 -179h-298v833h298v-833zM492 -143v760h-226v-760h226z" />
    <glyph glyph-name=".null" horiz-adv-x="0" 
 />
    <glyph glyph-name=".null" horiz-adv-x="0" 
 />
    <glyph glyph-name="nonmarkingreturn" unicode="&#xd;" horiz-adv-x="1024" 
 />
    <glyph glyph-name="space" unicode=" " horiz-adv-x="279" 
 />
    <glyph glyph-name="exclam" unicode="!" horiz-adv-x="290" 
d="M187 564l-10 -513h-67l-9 513h86zM145 -159q-23 0 -39 16t-16 39t16 39t39 16q22 0 38.5 -16t16.5 -39t-16.5 -39t-38.5 -16z" />
    <glyph glyph-name="quotedbl" unicode="&#x22;" horiz-adv-x="400" 
d="M161 564l-15 -222h-57l-15 222h87zM326 564l-15 -222h-57l-15 222h87z" />
    <glyph glyph-name="numbersign" unicode="#" horiz-adv-x="603" 
d="M581 364l-12 -53h-130l-31 -149h140l-14 -53h-137l-43 -198h-63l43 198h-125l-42 -198h-62l42 198h-131l10 53h132l31 149h-138l10 53h138l42 200h63l-42 -200h125l43 200h62l-42 -200h131zM378 311h-126l-33 -149h127z" />
    <glyph glyph-name="dollar" unicode="$" horiz-adv-x="550" 
d="M307 -254h-52v104q-106 0 -172 43v86q29 -25 79 -42t93 -17v255q-110 53 -142 97.5t-32 104.5q0 73 49 125.5t125 62.5v90h52v-88q97 -3 135 -28v-84q-51 39 -135 42v-263q103 -49 141.5 -95t38.5 -105q0 -70 -48 -118.5t-132 -61.5v-108zM255 494q-42 -8 -66.5 -36.5
t-24.5 -69.5q0 -43 20 -70.5t71 -55.5v232zM307 -76q96 21 96 103q0 69 -96 122v-225z" />
    <glyph glyph-name="percent" unicode="%" horiz-adv-x="835" 
d="M201 206q-74 0 -117.5 48.5t-43.5 129.5q0 89 46 140t125 51q76 0 118.5 -47t42.5 -133t-47.5 -137.5t-123.5 -51.5zM208 520q-47 0 -74.5 -35t-27.5 -96q0 -60 27 -94t73 -34q47 0 73.5 35t26.5 97q0 60 -26 93.5t-72 33.5zM679 564l-458 -719h-71l458 719h71zM627 -161
q-74 0 -118 49t-44 129q0 89 47 140.5t125 51.5q75 0 117.5 -48t42.5 -134q0 -85 -47 -136.5t-123 -51.5zM634 153q-48 0 -75.5 -35t-27.5 -97q0 -59 27 -92.5t74 -33.5q46 0 72.5 35t26.5 96t-26 94t-71 33z" />
    <glyph glyph-name="ampersand" unicode="&#x26;" horiz-adv-x="816" 
d="M720 -161q-29 0 -50.5 7.5t-40 21.5t-35.5 34.5t-36 46.5q-20 -21 -46 -41t-58 -35.5t-70 -24.5t-82 -9q-54 0 -99 13t-76.5 39.5t-49.5 64.5t-18 88q0 76 43.5 130.5t122.5 88.5q-15 11 -30 25.5t-26.5 33.5t-19 41.5t-7.5 49.5q0 39 14.5 69.5t39.5 51.5t58.5 31.5
t73.5 10.5q39 0 71 -10.5t55 -30.5t36 -48t13 -62q0 -60 -34 -99.5t-102 -67.5q34 -14 62 -33t51.5 -43t44 -51.5t40.5 -56.5q40 56 60.5 123.5t20.5 142.5q0 19 -2.5 35.5t-6.5 32.5h80q4 -16 4.5 -31t1.5 -35q0 -45 -9.5 -91t-25.5 -89t-37 -82t-44 -71q17 -24 31.5 -41.5
t29 -29.5t30.5 -18t36 -6q15 0 30 4t32 10v-76q-18 -6 -37.5 -9.5t-38.5 -3.5zM302 -91q38 0 69.5 8.5t58.5 22t49 31.5t40 38q-30 48 -56 81.5t-52 58t-55.5 42t-68.5 32.5q-32 -13 -58 -28t-45.5 -36t-30.5 -48t-11 -64q0 -34 12.5 -60t34.5 -43t50.5 -26t62.5 -9z
M426 418q0 25 -9 42.5t-23 28.5t-31.5 16.5t-34.5 5.5q-49 0 -78 -26.5t-30 -71.5q0 -21 6.5 -38.5t17.5 -33t26 -27.5t32 -21q63 22 93.5 51t30.5 74z" />
    <glyph glyph-name="quotesingle" unicode="'" horiz-adv-x="235" 
d="M161 564l-15 -222h-57l-15 222h87z" />
    <glyph glyph-name="parenleft" unicode="(" horiz-adv-x="308" 
d="M224 -312q-154 176 -154 434q0 260 154 442h74q-157 -189 -157 -441q0 -249 156 -435h-73z" />
    <glyph glyph-name="parenright" unicode=")" horiz-adv-x="308" 
d="M12 -312q155 186 155 435q0 252 -156 441h74q155 -182 155 -442q0 -258 -155 -434h-73z" />
    <glyph glyph-name="asterisk" unicode="*" horiz-adv-x="425" 
d="M388 400l-136 -28l95 -121l-55 -38l-78 132l-79 -132l-54 38l94 121l-137 28l22 62l131 -49l-12 151h69l-11 -151l131 49z" />
    <glyph glyph-name="plus" unicode="+" horiz-adv-x="698" 
d="M584 114h-202v-201h-66v201h-200v67h200v200h66v-200h202v-67z" />
    <glyph glyph-name="comma" unicode="," horiz-adv-x="221" 
d="M157 -36l-79 -245h-59l59 245h79z" />
    <glyph glyph-name="hyphen" unicode="-" horiz-adv-x="408" 
d="M344 102h-272v64h272v-64z" />
    <glyph glyph-name="period" unicode="." horiz-adv-x="221" 
d="M111 -161q-23 0 -39 16.5t-16 39.5t16 39.5t39 16.5t39.5 -16.5t16.5 -39.5t-16.5 -39.5t-39.5 -16.5z" />
    <glyph glyph-name="slash" unicode="/" horiz-adv-x="397" 
d="M405 564l-343 -833h-76l342 833h77z" />
    <glyph glyph-name="zero" unicode="0" horiz-adv-x="550" 
d="M268 -162q-106 0 -165.5 91t-59.5 264q0 189 62 286t179 97q224 0 224 -366q0 -181 -63 -276.5t-177 -95.5zM279 507q-152 0 -152 -310q0 -290 149 -290q148 0 148 295q0 305 -145 305z" />
    <glyph glyph-name="one" unicode="1" horiz-adv-x="550" 
d="M492 -150h-404v72h161v555l-165 -50v78l247 75v-658h161v-72z" />
    <glyph glyph-name="two" unicode="2" horiz-adv-x="550" 
d="M478 -150h-430v73l208 208q80 80 114 133t34 113q0 62 -35.5 96t-100.5 34q-96 0 -183 -82v86q83 65 194 65q96 0 151 -51.5t55 -139.5q0 -68 -38 -133.5t-136 -162.5l-165 -163v-2h332v-74z" />
    <glyph glyph-name="three" unicode="3" horiz-adv-x="550" 
d="M65 -35q73 -58 166 -58q74 0 118.5 37t44.5 101q0 140 -198 140h-60v69h57q177 0 177 131q0 122 -135 122q-76 0 -142 -51v79q68 41 162 41q90 0 144 -47.5t54 -122.5q0 -141 -143 -181v-2q77 -8 122.5 -54.5t45.5 -116.5q0 -96 -69 -155t-182 -59q-101 0 -162 38v89z
" />
    <glyph glyph-name="four" unicode="4" horiz-adv-x="550" 
d="M515 40h-92v-190h-80v190h-336v53l318 471h98v-458h92v-66zM343 106v309q0 33 2 73h-2q-7 -17 -28 -54l-219 -328h247z" />
    <glyph glyph-name="five" unicode="5" horiz-adv-x="550" 
d="M82 -46q73 -47 149 -47q75 0 121.5 42.5t46.5 113.5q0 70 -47.5 109.5t-135.5 39.5q-30 0 -112 -6v358h346v-74h-269v-209q33 2 61 2q115 0 177.5 -57.5t62.5 -157.5q0 -103 -67.5 -166.5t-184.5 -63.5q-100 0 -148 29v87z" />
    <glyph glyph-name="six" unicode="6" horiz-adv-x="550" 
d="M465 479q-55 28 -116 28q-95 0 -152.5 -84.5t-57.5 -226.5h2q50 101 164 101q93 0 148.5 -60t55.5 -161q0 -105 -63.5 -171.5t-160.5 -66.5q-108 0 -169 85.5t-61 240.5q0 188 80 300t212 112q74 0 118 -20v-77zM287 228q-63 0 -102.5 -43t-39.5 -101q0 -74 39 -125.5
t104 -51.5q62 0 99.5 45t37.5 114q0 76 -36 119t-102 43z" />
    <glyph glyph-name="seven" unicode="7" horiz-adv-x="550" 
d="M503 538l-283 -688h-85l268 640h-360v74h460v-26z" />
    <glyph glyph-name="eight" unicode="8" horiz-adv-x="550" 
d="M204 227q-128 59 -128 173q0 77 58.5 126.5t151.5 49.5q84 0 137.5 -46t53.5 -119q0 -119 -132 -184v-2q156 -56 156 -194q0 -88 -63.5 -140.5t-177.5 -52.5q-92 0 -151 52t-59 134q0 138 154 201v2zM393 401q0 49 -30.5 77.5t-84.5 28.5q-49 0 -84 -29.5t-35 -75.5
q0 -93 116 -141q118 49 118 140zM270 186q-137 -55 -137 -158q0 -53 40 -87t104 -34q62 0 101 33.5t39 84.5q0 108 -147 161z" />
    <glyph glyph-name="nine" unicode="9" horiz-adv-x="550" 
d="M86 -59q59 -34 126 -34q97 0 151 78t54 222h-2q-45 -92 -159 -92q-92 0 -150.5 62t-58.5 161q0 104 64.5 171t164.5 67q106 0 165 -83.5t59 -242.5q0 -198 -76.5 -305t-213.5 -107q-72 0 -124 24v79zM269 507q-59 0 -99 -44.5t-40 -113.5q0 -75 39 -118t105 -43
q58 0 98 39t40 96q0 81 -39.5 132.5t-103.5 51.5z" />
    <glyph glyph-name="colon" unicode=":" horiz-adv-x="221" 
d="M111 260q-23 0 -39 16.5t-16 39.5t16 39t39 16t39.5 -16t16.5 -39t-16.5 -39.5t-39.5 -16.5zM111 -161q-23 0 -39 16.5t-16 39.5t16 39.5t39 16.5t39.5 -16.5t16.5 -39.5t-16.5 -39.5t-39.5 -16.5z" />
    <glyph glyph-name="semicolon" unicode=";" horiz-adv-x="221" 
d="M113 260q-24 0 -40 16.5t-16 39.5t16 39t40 16q22 0 38.5 -16t16.5 -39t-16.5 -39.5t-38.5 -16.5zM157 -36l-79 -245h-59l59 245h79z" />
    <glyph glyph-name="less" unicode="&#x3c;" horiz-adv-x="698" 
d="M564 -87l-429 215v30l429 240v-75l-320 -177v-2l320 -157v-74z" />
    <glyph glyph-name="equal" unicode="=" horiz-adv-x="698" 
d="M584 221h-468v65h468v-65zM584 8h-468v66h468v-66z" />
    <glyph glyph-name="greater" unicode="&#x3e;" horiz-adv-x="698" 
d="M564 128l-429 -215v74l321 156v3l-321 177v75l429 -240v-30z" />
    <glyph glyph-name="question" unicode="?" horiz-adv-x="457" 
d="M167 48q-5 13 -8.5 34t-3.5 41q0 32 13 57.5t32 48t41 43t41 42t32 44.5t13 51q0 24 -9.5 42.5t-25.5 30.5t-36.5 18.5t-44.5 6.5q-84 0 -146 -66v87q76 48 158 48q38 0 71.5 -10t58.5 -29.5t39.5 -49t14.5 -68.5q0 -37 -13 -65.5t-32.5 -53t-42.5 -45.5t-43 -41.5
t-32.5 -43t-12.5 -49.5q0 -22 5.5 -41t10.5 -32h-80zM212 -159q-22 0 -39 16t-17 39t17 39q16 16 39 16q22 0 39 -16q16 -16 16 -39t-16 -39q-17 -16 -39 -16z" />
    <glyph glyph-name="at" unicode="@" horiz-adv-x="974" 
d="M577 59q-36 -118 -143 -118q-68 0 -109.5 50t-41.5 135q0 113 57.5 187.5t151.5 74.5q35 0 63.5 -18.5t36.5 -46.5h2q1 14 5 57h62q-24 -274 -24 -279q0 -103 60 -103q54 0 89.5 58t35.5 151q0 137 -87 223.5t-240 86.5q-148 0 -244.5 -103.5t-96.5 -258.5
q0 -153 92 -247t248 -94q123 0 210 41v-62q-86 -37 -215 -37q-182 0 -292.5 109.5t-110.5 286.5q0 182 116 302t297 120q169 0 280.5 -100.5t111.5 -262.5q0 -118 -59 -194t-143 -76q-109 0 -109 118h-3zM491 330q-62 0 -100 -58.5t-38 -146.5q0 -58 25.5 -92t68.5 -34
q62 0 98 61.5t36 163.5q0 106 -90 106z" />
    <glyph glyph-name="A" unicode="A" horiz-adv-x="658" 
d="M646 -150h-92l-76 200h-303l-71 -200h-93l274 714h87zM451 125l-112 305q-6 15 -11 48h-2q-5 -31 -12 -48l-111 -305h248z" />
    <glyph glyph-name="B" unicode="B" horiz-adv-x="585" 
d="M94 -150v714h203q92 0 146.5 -45t54.5 -118q0 -61 -33 -106t-90 -63v-2q72 -9 115 -55t43 -120q0 -91 -65.5 -148t-165.5 -57h-208zM177 488v-230h86q69 0 108 33t39 93q0 104 -137 104h-96zM177 183v-257h114q74 0 114.5 34.5t40.5 95.5q0 127 -173 127h-96z" />
    <glyph glyph-name="C" unicode="C" horiz-adv-x="632" 
d="M580 -120q-79 -42 -198 -42q-152 0 -243.5 98t-91.5 258q0 171 103 276.5t261 105.5q102 0 169 -29v-89q-77 42 -170 42q-123 0 -199.5 -82t-76.5 -219q0 -131 71.5 -208.5t187.5 -77.5q108 0 187 48v-81z" />
    <glyph glyph-name="D" unicode="D" horiz-adv-x="715" 
d="M94 -150v714h197q377 0 377 -348q0 -165 -104.5 -265.5t-280.5 -100.5h-189zM177 488v-562h107q140 0 218.5 75t78.5 213q0 274 -292 274h-112z" />
    <glyph glyph-name="E" unicode="E" horiz-adv-x="516" 
d="M472 -150h-378v714h362v-76h-279v-237h258v-75h-258v-250h295v-76z" />
    <glyph glyph-name="F" unicode="F" horiz-adv-x="498" 
d="M456 488h-279v-247h258v-75h-258v-316h-83v714h362v-76z" />
    <glyph glyph-name="G" unicode="G" horiz-adv-x="700" 
d="M628 -101q-108 -61 -240 -61q-152 0 -246.5 98.5t-94.5 261.5q0 165 104.5 271.5t265.5 106.5q117 0 196 -38v-92q-87 54 -205 54q-120 0 -197 -82.5t-77 -213.5q0 -136 71.5 -213.5t193.5 -77.5q84 0 145 34v200h-157v76h241v-324z" />
    <glyph glyph-name="H" unicode="H" horiz-adv-x="724" 
d="M631 -150h-84v326h-370v-326h-83v714h83v-313h370v313h84v-714z" />
    <glyph glyph-name="I" unicode="I" horiz-adv-x="271" 
d="M247 564v-72h-70v-570h70v-72h-223v72h70v570h-70v72h223z" />
    <glyph glyph-name="J" unicode="J" horiz-adv-x="364" 
d="M276 106q0 -127 -53.5 -197.5t-143.5 -70.5q-42 0 -69 12v83q27 -20 70 -20q113 0 113 192v459h83v-458z" />
    <glyph glyph-name="K" unicode="K" horiz-adv-x="592" 
d="M591 -150h-117l-276 327q-15 18 -19 25h-2v-352h-83v714h83v-335h2q7 10 19 24l267 311h104l-306 -342z" />
    <glyph glyph-name="L" unicode="L" horiz-adv-x="480" 
d="M464 -150h-370v714h83v-638h287v-76z" />
    <glyph glyph-name="M" unicode="M" horiz-adv-x="916" 
d="M822 -150h-83v479q0 57 7 139h-2q-12 -48 -22 -69l-244 -549h-41l-243 545q-11 24 -22 73h-2q4 -43 4 -140v-478h-80v714h110l219 -498q26 -57 33 -86h3q22 59 35 88l223 496h105v-714z" />
    <glyph glyph-name="N" unicode="N" horiz-adv-x="763" 
d="M669 -150h-102l-368 569q-14 22 -23 45h-3q4 -23 4 -98v-516h-83v714h108l358 -560q22 -35 29 -48h2q-5 31 -5 105v503h83v-714z" />
    <glyph glyph-name="O" unicode="O" horiz-adv-x="769" 
d="M382 -162q-152 0 -243.5 100t-91.5 261q0 172 93 274.5t253 102.5q148 0 238.5 -99.5t90.5 -260.5q0 -175 -92.5 -276.5t-247.5 -101.5zM387 500q-112 0 -182.5 -81t-70.5 -213t68.5 -212.5t179.5 -80.5q117 0 185 77t68 215q0 141 -66 218t-182 77z" />
    <glyph glyph-name="P" unicode="P" horiz-adv-x="571" 
d="M177 120v-270h-83v714h196q114 0 177 -55.5t63 -157.5t-70 -166.5t-189 -64.5h-94zM177 488v-292h88q87 0 132.5 39.5t45.5 111.5q0 141 -168 141h-98z" />
    <glyph glyph-name="Q" unicode="Q" horiz-adv-x="769" 
d="M377 -162q-32 0 -65 6t-64 19t-59 31.5t-51 43.5q-91 100 -91 261q0 172 92 275q94 102 256 102q146 0 237 -99q90 -100 90 -261q0 -68 -15 -128t-46 -108t-78 -82t-110 -48q26 -28 48.5 -49.5t45 -36t47 -22t53.5 -7.5q8 0 17.5 0.5t19.5 2.5t19 4t16 5v-80
q-8 -3 -18 -4l-20 -3q-10 -2 -20 -2.5t-19 -0.5q-47 0 -85.5 14t-71.5 38.5t-64 57.5t-64 71zM387 500q-112 0 -182 -81q-71 -81 -71 -213q0 -131 69 -213q68 -80 179 -80q117 0 185 77t68 215q0 142 -66 218q-66 77 -182 77z" />
    <glyph glyph-name="R" unicode="R" horiz-adv-x="610" 
d="M606 -150h-100l-120 200q-16 28 -31.5 47.5t-31.5 32t-35 18.5t-42 6h-69v-304h-83v714h213q47 0 86.5 -11.5t68.5 -35.5t45.5 -59.5t16.5 -83.5q0 -37 -11 -68.5t-32 -55.5t-50 -41.5t-65 -26.5v-2q17 -8 30.5 -18.5t25.5 -24.5t23.5 -31.5t26.5 -40.5zM177 488v-258
h114q31 0 58 9t46 27t30 43.5t11 57.5q0 57 -37 89t-107 32h-115z" />
    <glyph glyph-name="S" unicode="S" horiz-adv-x="542" 
d="M60 -23q17 -14 41 -26t50 -20.5t52.5 -13t48.5 -4.5q77 0 115 29t38 82q0 29 -12.5 50.5t-35 39t-53 34t-65.5 34.5q-38 19 -70.5 38t-56 42.5t-37.5 53.5t-14 69q0 49 21.5 85t56.5 59.5t79.5 35t90.5 11.5q106 0 154 -25v-94q-63 43 -162 43q-28 0 -55 -5.5
t-48.5 -18.5t-35 -33.5t-13.5 -49.5q0 -28 10 -47.5t30 -36t48.5 -32t66.5 -34.5q38 -18 72.5 -39t60.5 -46.5t41 -56.5t15 -71q0 -53 -20.5 -89.5t-55.5 -59.5t-81 -33t-97 -10q-17 0 -42 3t-50.5 8t-49 12.5t-37.5 17.5v98z" />
    <glyph glyph-name="T" unicode="T" horiz-adv-x="534" 
d="M516 488h-206v-638h-84v638h-206v76h496v-76z" />
    <glyph glyph-name="U" unicode="U" horiz-adv-x="701" 
d="M616 139q0 -301 -271 -301q-260 0 -260 289v437h83v-431q0 -220 186 -220q178 0 178 212v439h84v-425z" />
    <glyph glyph-name="V" unicode="V" horiz-adv-x="634" 
d="M625 564l-265 -714h-92l-259 714h93l198 -566q9 -27 14 -63h2q4 30 17 64l201 565h91z" />
    <glyph glyph-name="W" unicode="W" horiz-adv-x="953" 
d="M940 564l-201 -714h-99l-146 522q-10 33 -12 73h-2q-3 -37 -13 -72l-148 -523h-97l-209 714h92l152 -548q9 -34 12 -71h2q3 26 16 71l158 548h80l151 -552q8 -28 12 -66h2q2 26 14 68l146 550h90z" />
    <glyph glyph-name="X" unicode="X" horiz-adv-x="602" 
d="M587 -150h-102l-165 273q-7 13 -16 36h-2q-5 -12 -17 -36l-169 -273h-103l239 359l-220 355h102l146 -251q15 -25 26 -50h2q16 33 28 52l152 249h96l-225 -354z" />
    <glyph glyph-name="Y" unicode="Y" horiz-adv-x="564" 
d="M558 564l-236 -450v-264h-83v262l-230 452h95l160 -323q3 -6 17 -43h2q5 17 19 43l167 323h89z" />
    <glyph glyph-name="Z" unicode="Z" horiz-adv-x="582" 
d="M560 544l-419 -618h409v-76h-534v23l415 615h-381v76h510v-20z" />
    <glyph glyph-name="bracketleft" unicode="[" horiz-adv-x="308" 
d="M283 -312h-183v876h183v-59h-111v-758h111v-59z" />
    <glyph glyph-name="backslash" unicode="\" horiz-adv-x="386" 
d="M397 -270h-75l-335 834h77z" />
    <glyph glyph-name="bracketright" unicode="]" horiz-adv-x="308" 
d="M209 -312h-183v59h110v758h-110v59h183v-876z" />
    <glyph glyph-name="asciicircum" unicode="^" horiz-adv-x="698" 
d="M585 161h-75l-165 308h-3l-154 -308h-73l210 415h32z" />
    <glyph glyph-name="underscore" unicode="_" horiz-adv-x="423" 
d="M423 -298h-423v59h423v-59z" />
    <glyph glyph-name="grave" unicode="`" horiz-adv-x="273" 
d="M235 457h-64l-130 163h84z" />
    <glyph glyph-name="a" unicode="a" horiz-adv-x="519" 
d="M448 -150h-82v80h-2q-53 -92 -157 -92q-76 0 -119 40.5t-43 106.5q0 143 168 167l153 21q0 130 -105 130q-92 0 -166 -63v84q75 48 173 48q180 0 180 -190v-332zM366 108l-123 -17q-57 -8 -86 -28t-29 -72q0 -37 27 -60.5t71 -23.5q61 0 100.5 42.5t39.5 107.5v51z" />
    <glyph glyph-name="b" unicode="b" horiz-adv-x="600" 
d="M164 -76v-74h-81v755h81v-335h2q61 102 177 102q98 0 153.5 -68.5t55.5 -183.5q0 -128 -62.5 -205t-170.5 -77q-101 0 -153 86h-2zM164 58q0 -63 41.5 -107t104.5 -44q74 0 116 56.5t42 157.5q0 86 -39.5 134t-106.5 48q-71 0 -114.5 -49.5t-43.5 -124.5v-71z" />
    <glyph glyph-name="c" unicode="c" horiz-adv-x="471" 
d="M430 -127q-58 -35 -139 -35q-109 0 -176 71t-67 184q0 126 72 202.5t193 76.5q67 0 118 -25v-84q-56 40 -121 40q-78 0 -128.5 -56t-50.5 -147q0 -90 47.5 -141.5t126.5 -51.5q67 0 125 44v-78z" />
    <glyph glyph-name="d" unicode="d" horiz-adv-x="601" 
d="M518 -150h-82v87h-2q-56 -99 -175 -99q-96 0 -153.5 68.5t-57.5 186.5q0 127 63.5 203t169.5 76q105 0 153 -83h2v316h82v-755zM436 156q0 62 -40.5 104.5t-103.5 42.5q-75 0 -118 -54.5t-43 -151.5q0 -88 41.5 -139t110.5 -51q68 0 110.5 49t42.5 125v75z" />
    <glyph glyph-name="e" unicode="e" horiz-adv-x="533" 
d="M493 85h-361q2 -86 46 -132t121 -46q86 0 158 57v-77q-67 -49 -178 -49q-108 0 -169.5 69.5t-61.5 195.5q0 119 67.5 194t167.5 75t155 -65t55 -180v-42zM409 154q-1 71 -34.5 110t-93.5 39q-57 0 -97.5 -41t-50.5 -108h276z" />
    <glyph glyph-name="f" unicode="f" horiz-adv-x="348" 
d="M349 533q-24 14 -55 14q-85 0 -85 -108v-79h119v-70h-119v-440h-81v440h-88v70h88v83q0 80 46 126.5t115 46.5q38 0 60 -9v-74z" />
    <glyph glyph-name="g" unicode="g" horiz-adv-x="582" 
d="M518 -109q0 -281 -269 -281q-95 0 -165 36v81q86 -47 164 -47q188 0 188 200v56h-2q-58 -98 -175 -98q-95 0 -153 68t-58 183q0 130 62.5 206.5t170.5 76.5q103 0 153 -83h2v71h82v-469zM436 156q0 61 -41 104t-102 43q-76 0 -119 -55t-43 -154q0 -85 41.5 -136
t108.5 -51q69 0 112 48.5t43 125.5v75z" />
    <glyph glyph-name="h" unicode="h" horiz-adv-x="577" 
d="M506 -150h-82v294q0 159 -118 159q-60 0 -101 -46t-41 -118v-289h-81v755h81v-330h2q59 97 168 97q172 0 172 -208v-314z" />
    <glyph glyph-name="i" unicode="i" horiz-adv-x="247" 
d="M125 489q-22 0 -37.5 15t-15.5 38t15.5 38.5t37.5 15.5t37.5 -15.5t15.5 -38.5q0 -22 -15.5 -37.5t-37.5 -15.5zM164 -150h-81v510h81v-510z" />
    <glyph glyph-name="j" unicode="j" horiz-adv-x="247" 
d="M164 -129q0 -125 -50.5 -193t-144.5 -68q-35 0 -68 16v76q37 -22 70 -22q112 0 112 178v502h81v-489zM125 489q-22 0 -37.5 15t-15.5 38t15.5 38.5t37.5 15.5t37.5 -15.5t15.5 -38.5q0 -22 -15.5 -37.5t-37.5 -15.5z" />
    <glyph glyph-name="k" unicode="k" horiz-adv-x="507" 
d="M506 -150h-115l-225 245h-2v-245h-81v755h81v-479h2l215 234h107l-237 -246z" />
    <glyph glyph-name="l" unicode="l" horiz-adv-x="247" 
d="M164 -150h-81v755h81v-755z" />
    <glyph glyph-name="m" unicode="m" horiz-adv-x="879" 
d="M807 -150h-82v293q0 85 -26 122.5t-88 37.5q-52 0 -88.5 -47.5t-36.5 -114.5v-291h-82v303q0 150 -116 150q-54 0 -89 -45t-35 -117v-291h-81v510h81v-81h2q55 93 159 93q52 0 91 -29t53 -77q57 106 169 106q169 0 169 -208v-314z" />
    <glyph glyph-name="n" unicode="n" horiz-adv-x="577" 
d="M506 -150h-82v291q0 162 -118 162q-61 0 -101.5 -46t-40.5 -116v-291h-81v510h81v-85h2q58 97 168 97q83 0 127.5 -54t44.5 -156v-312z" />
    <glyph glyph-name="o" unicode="o" horiz-adv-x="598" 
d="M296 -162q-113 0 -180.5 71.5t-67.5 189.5q0 129 70 201t190 72q114 0 178 -70t64 -195q0 -122 -69 -195.5t-185 -73.5zM302 303q-79 0 -125 -53.5t-46 -147.5q0 -91 46.5 -143t124.5 -52q79 0 121.5 51t42.5 146q0 96 -42.5 147.5t-121.5 51.5z" />
    <glyph glyph-name="p" unicode="p" horiz-adv-x="600" 
d="M164 -76v-309h-81v745h81v-90h2q61 102 177 102q98 0 153.5 -68.5t55.5 -183.5q0 -128 -62.5 -205t-170.5 -77q-99 0 -153 86h-2zM164 58q0 -63 41.5 -107t104.5 -44q74 0 116 56.5t42 157.5q0 86 -39.5 134t-106.5 48q-71 0 -114.5 -49.5t-43.5 -124.5v-71z" />
    <glyph glyph-name="q" unicode="q" horiz-adv-x="601" 
d="M518 -385h-82v323h-2q-53 -100 -174 -100q-96 0 -154 68.5t-58 186.5q0 127 63.5 203t171.5 76q104 0 151 -83h2v71h82v-745zM436 154q0 63 -41 106t-104 43q-74 0 -117 -54.5t-43 -153.5q0 -88 41.5 -138t106.5 -50q72 0 114.5 49t42.5 124v74z" />
    <glyph glyph-name="r" unicode="r" horiz-adv-x="355" 
d="M349 277q-22 17 -62 17q-52 0 -87.5 -49.5t-35.5 -134.5v-260h-81v510h81v-105h2q18 54 53.5 84t80.5 30q32 0 49 -7v-85z" />
    <glyph glyph-name="s" unicode="s" horiz-adv-x="433" 
d="M52 -44q67 -49 147 -49q107 0 107 71q0 21 -9 35t-25 25t-37 20t-45 18q-34 14 -59.5 27.5t-43 30.5t-26 39t-8.5 52q0 35 16.5 63t43.5 46.5t62.5 28t72.5 9.5q66 0 119 -23v-83q-57 37 -130 37q-23 0 -41.5 -5t-31.5 -14.5t-20.5 -23t-7.5 -28.5q0 -20 7.5 -33.5
t21.5 -24t34 -19t45 -18.5q34 -13 61 -26.5t46 -31t29 -40t10 -53.5q0 -37 -16.5 -65t-44.5 -46.5t-64.5 -27.5t-76.5 -9q-78 0 -136 30v88z" />
    <glyph glyph-name="t" unicode="t" horiz-adv-x="346" 
d="M319 -145q-29 -16 -76 -16q-134 0 -134 149v302h-88v70h88v125l82 26v-151h128v-70h-128v-287q0 -51 17.5 -73t57.5 -22q31 0 53 17v-70z" />
    <glyph glyph-name="u" unicode="u" horiz-adv-x="577" 
d="M495 -150h-82v81h-2q-50 -93 -157 -93q-182 0 -182 217v305h81v-292q0 -161 123 -161q60 0 98.5 44t38.5 115v294h82v-510z" />
    <glyph glyph-name="v" unicode="v" horiz-adv-x="489" 
d="M484 360l-204 -510h-80l-193 510h90l129 -371q15 -40 18 -71h2q5 39 16 69l135 373h87z" />
    <glyph glyph-name="w" unicode="w" horiz-adv-x="737" 
d="M725 360l-153 -510h-84l-106 365q-5 21 -7 47h-2q-2 -18 -11 -46l-114 -366h-82l-154 510h86l105 -383q5 -18 7 -46h4q2 22 9 46l118 383h74l106 -384q5 -19 7 -46h4q1 19 9 46l103 384h81z" />
    <glyph glyph-name="x" unicode="x" horiz-adv-x="468" 
d="M455 360l-171 -258l168 -252h-95l-100 165q-9 16 -22 39h-2q-3 -4 -24 -39l-102 -165h-94l174 250l-167 260h96l98 -174l22 -40h2l127 214h90z" />
    <glyph glyph-name="y" unicode="y" horiz-adv-x="494" 
d="M489 360l-235 -592q-63 -158 -176 -158q-32 0 -54 6v74q27 -9 49 -9q61 0 92 73l41 97l-199 509h91l138 -392q2 -8 10 -39h3q3 12 10 38l145 393h85z" />
    <glyph glyph-name="z" unicode="z" horiz-adv-x="461" 
d="M438 337l-302 -417h299v-70h-419v25l302 415h-273v70h393v-23z" />
    <glyph glyph-name="braceleft" unicode="{" horiz-adv-x="308" 
d="M276 -312q-152 2 -152 154v149q0 101 -78 106v58q78 5 78 107v146q0 154 152 156v-64q-79 -2 -79 -98v-146q0 -105 -74 -129v-2q74 -22 74 -127v-144q0 -55 18 -79t61 -25v-62z" />
    <glyph glyph-name="bar" unicode="|" horiz-adv-x="244" 
d="M159 -390h-73v1020h73v-1020z" />
    <glyph glyph-name="braceright" unicode="}" horiz-adv-x="308" 
d="M263 97q-78 -5 -78 -106v-149q0 -152 -152 -154v62q43 1 61.5 25t18.5 79v144q0 105 74 127v2q-74 24 -74 129v146q0 96 -80 98v64q152 -2 152 -156v-146q0 -102 78 -107v-58z" />
    <glyph glyph-name="asciitilde" unicode="~" horiz-adv-x="698" 
d="M595 224q-4 -74 -40.5 -114.5t-99.5 -40.5q-54 0 -132 54q-48 34 -79 34q-70 0 -73 -88h-67q3 71 40 113t100 42q53 0 117 -44q66 -45 98 -45q31 0 49 24.5t19 64.5h68z" />
    <glyph glyph-name="cent" unicode="&#xa0;" horiz-adv-x="279" 
 />
    <glyph glyph-name="sterling" unicode="&#xa2;" horiz-adv-x="550" 
d="M474 -46q-48 -29 -110 -34v-94h-62v95q-96 11 -153 80t-57 172q0 109 57 182.5t153 92.5v106h62v-101q61 -1 110 -26v-85q-50 35 -110 38v-391q61 6 110 43v-78zM302 374q-59 -15 -93 -66.5t-34 -125.5q0 -75 34 -124.5t93 -62.5v379z" />
    <glyph glyph-name="currency" unicode="&#xa3;" horiz-adv-x="550" 
d="M501 -150h-448v67q108 35 108 156v93h-98v70h98v127q0 94 54.5 153.5t140.5 59.5q58 0 106 -20v-77q-50 28 -105 28q-114 0 -114 -153v-118h147v-70h-147v-77q0 -121 -96 -169h354v-70z" />
    <glyph glyph-name="yen" unicode="&#xa4;" horiz-adv-x="567" 
d="M517 26l-46 -48l-68 69q-52 -38 -119 -38q-68 0 -120 38l-68 -69l-46 48l69 67q-38 56 -38 118q0 64 38 118l-69 68l46 48l68 -69q55 39 120 39q64 0 118 -39l69 69l46 -48l-68 -68q39 -56 39 -118q0 -60 -39 -118zM284 349q-58 0 -97.5 -40.5t-39.5 -96.5t40 -96.5
t97 -40.5q56 0 96.5 40.5t40.5 96.5t-41 96.5t-96 40.5z" />
    <glyph glyph-name="section" unicode="&#xa5;" horiz-adv-x="550" 
d="M519 564l-177 -327h142v-69h-167v-103h167v-69h-167v-146h-81v146h-172v69h172v103h-172v69h145l-175 327h95l125 -256q14 -29 23 -55h2q7 21 25 58l125 253h90z" />
    <glyph glyph-name="copyright" unicode="&#xa6;" horiz-adv-x="244" 
d="M159 206h-73v424h73v-424zM159 -390h-73v424h73v-424z" />
    <glyph glyph-name="registered" unicode="&#xa7;" horiz-adv-x="457" 
d="M328 57q45 -37 45 -92q0 -66 -50 -107t-127 -41q-66 0 -119 28v79q64 -37 124 -37q42 0 65 19.5t23 49.5q0 26 -17.5 44.5t-90.5 56.5q-116 61 -116 158q0 81 73 122q-52 41 -52 111q0 63 46.5 104t122.5 41q65 0 109 -22v-79q-50 31 -111 31q-84 0 -84 -71
q0 -28 20.5 -50.5t101.5 -60.5q111 -54 111 -146q0 -85 -74 -138zM198 301q-50 -26 -50 -79q0 -36 28 -63.5t98 -58.5q44 34 44 86q0 36 -26 61t-94 54z" />
    <glyph glyph-name="trademark" unicode="&#xa9;" horiz-adv-x="908" 
d="M454 -166q-155 0 -264 109t-109 264t109 264.5t264 109.5t264 -109.5t109 -264.5t-109 -264t-264 -109zM454 537q-136 0 -232.5 -96.5t-96.5 -233.5q0 -136 96.5 -232.5t232.5 -96.5q137 0 233 96.5t96 232.5q0 137 -96 233.5t-233 96.5zM604 -18q-57 -34 -134 -34
q-104 0 -174 70.5t-70 176.5q0 123 72 196t187 73q65 0 117 -26v-75q-47 36 -126 36q-78 0 -128.5 -53t-50.5 -143q0 -87 51.5 -139.5t131.5 -52.5q72 0 124 39v-68z" />
    <glyph glyph-name="guilsinglleft" unicode="&#xab;" horiz-adv-x="516" 
d="M471 -50h-84l-148 167l148 171h85l-153 -171zM277 -50h-82l-149 167l149 171h82l-150 -171z" />
    <glyph glyph-name="plusminus" unicode="&#xac;" horiz-adv-x="698" 
d="M584 -23h-66v214h-402v66h468v-280z" />
    <glyph glyph-name="guillemotleft" unicode="&#xae;" horiz-adv-x="908" 
d="M454 -166q-155 0 -264 109t-109 264t109 264.5t264 109.5t264 -109.5t109 -264.5t-109 -264t-264 -109zM454 537q-136 0 -232.5 -96.5t-96.5 -233.5q0 -136 96.5 -232.5t232.5 -96.5q137 0 233 96.5t96 232.5q0 137 -96 233.5t-233 96.5zM636 -26h-81l-52 114
q-39 85 -85 85h-43v-199h-67v475h134q83 0 128 -35t45 -95q0 -49 -31.5 -83t-88.5 -46v-2q39 -9 78 -88zM375 392v-162h71q98 0 98 81q0 44 -26.5 62.5t-83.5 18.5h-59z" />
    <glyph glyph-name="guillemotright" unicode="&#xaf;" horiz-adv-x="423" 
d="M423 545h-423v60h423v-60z" />
    <glyph glyph-name="paragraph" unicode="&#xb0;" horiz-adv-x="384" 
d="M192 297q-58 0 -98 40.5t-40 98.5q0 57 39.5 96.5t97.5 39.5t98.5 -40t40.5 -96q0 -58 -40.5 -98.5t-97.5 -40.5zM192 514q-33 0 -55.5 -23t-22.5 -55q0 -34 22 -57.5t55 -23.5q32 0 55.5 24t23.5 57t-23 55.5t-55 22.5z" />
    <glyph glyph-name="periodcentered" unicode="&#xb1;" horiz-adv-x="698" 
d="M584 175h-202v-201h-65v201h-201v65h201v202h65v-202h202v-65zM584 -150h-468v66h468v-66z" />
    <glyph glyph-name="Euro" unicode="&#xb6;" horiz-adv-x="467" 
d="M415 513h-63v-663h-53v663h-79v-663h-54v450q-53 0 -88.5 37.5t-35.5 95.5t37 94.5t90 36.5h246v-51z" />
    <glyph glyph-name="brokenbar" unicode="&#xb7;" horiz-adv-x="221" 
d="M111 104q-23 0 -39 16.5t-16 39.5t16 39.5t39 16.5t39.5 -16.5t16.5 -39.5t-16.5 -39.5t-39.5 -16.5z" />
    <glyph glyph-name="guilsinglright" unicode="&#xbb;" horiz-adv-x="516" 
d="M472 118l-150 -168h-82l150 168l-150 170h82zM278 118l-149 -168h-84l153 168l-153 170h84z" />
    <glyph glyph-name="logicalnot" unicode="&#xbc;" horiz-adv-x="924" 
d="M318 141h-251v56h92v295l-96 -27v62l161 48v-378h94v-56zM694 564l-428 -714h-71l428 714h71zM850 -48h-55v-102h-66v102h-196v45l184 276h78v-267h55v-54zM729 211q-6 -16 -19 -37l-108 -168h127v161q0 16 2 44h-2z" />
    <glyph glyph-name="degree" unicode="&#xbd;" horiz-adv-x="949" 
d="M318 141h-251v56h92v295l-96 -27v62l161 48v-378h94v-56zM694 564l-428 -714h-71l428 714h71zM871 -150h-276v57l119 118q52 51 66 78t14 54q0 29 -19 47.5t-50 18.5q-59 0 -107 -51v74q41 38 117 38q58 0 92.5 -33t34.5 -87q0 -76 -102 -173l-82 -78v-2h193v-61z" />
    <glyph glyph-name="OE" unicode="&#x152;" horiz-adv-x="949" 
d="M901 -150h-358q-8 0 -69 -7q-49 -5 -91 -5q-155 0 -245.5 100t-90.5 261q0 172 94.5 274.5t255.5 102.5q45 0 89 -5q56 -7 57 -7h343v-76h-279v-237h258v-75h-258v-250h294v-76zM523 487q-80 13 -134 13q-114 0 -184.5 -82.5t-70.5 -211.5q0 -128 69.5 -210.5
t182.5 -82.5q58 0 137 17v557z" />
    <glyph glyph-name="oe" unicode="&#x153;" horiz-adv-x="946" 
d="M909 85h-361q1 -86 45 -132t121 -46q87 0 159 57v-77q-68 -49 -178 -49q-134 0 -190 118h-2q-65 -118 -207 -118q-114 0 -181 71t-67 189q0 129 70.5 201.5t190.5 72.5q146 0 200 -117h2q59 117 192 117q97 0 151.5 -65.5t54.5 -178.5v-43zM825 154q-1 71 -34 110t-91 39
q-60 0 -101.5 -42.5t-49.5 -106.5h276zM302 303q-79 0 -125 -54t-46 -149q0 -90 46 -141.5t124 -51.5q79 0 122 51t43 145q0 97 -43 148.5t-121 51.5z" />
    <glyph glyph-name="scaron" unicode="&#x161;" horiz-adv-x="433" 
d="M52 -44q67 -49 147 -49q107 0 107 71q0 21 -9 35t-25 25t-37 20t-45 18q-34 14 -59.5 27.5t-43 30.5t-26 39t-8.5 52q0 35 16.5 63t43.5 46.5t62.5 28t72.5 9.5q66 0 119 -23v-83q-57 37 -130 37q-23 0 -41.5 -5t-31.5 -14.5t-20.5 -23t-7.5 -28.5q0 -20 7.5 -33.5
t21.5 -24t34 -19t45 -18.5q34 -13 61 -26.5t46 -31t29 -40t10 -53.5q0 -37 -16.5 -65t-44.5 -46.5t-64.5 -27.5t-76.5 -9q-78 0 -136 30v88zM340 621l-107 -164h-66l-107 164h57l82 -114l81 114h60z" />
    <glyph glyph-name="Ydieresis" unicode="&#x178;" horiz-adv-x="564" 
d="M558 564l-236 -450v-264h-83v262l-230 452h95l160 -323q3 -6 17 -43h2q5 17 19 43l167 323h89zM378 629q-20 0 -34.5 14t-14.5 36q0 21 14 35t34 14q21 0 35.5 -14.5t14.5 -34.5q0 -21 -14 -35.5t-35 -14.5zM187 629q-21 0 -36 15t-15 35q0 21 14.5 35t34.5 14
q21 0 36 -14.5t15 -34.5q0 -21 -14.5 -35.5t-34.5 -14.5z" />
    <glyph glyph-name="Zcaron" unicode="&#x17d;" horiz-adv-x="582" 
d="M560 544l-419 -618h409v-76h-534v23l415 615h-381v76h510v-20zM448 794l-106 -165h-66l-108 165h58l81 -114l82 114h59z" />
    <glyph glyph-name="zcaron" unicode="&#x17e;" horiz-adv-x="461" 
d="M438 337l-302 -417h299v-70h-419v25l302 415h-273v70h393v-23zM389 621l-106 -164h-66l-107 164h57l82 -114l81 114h59z" />
    <glyph glyph-name="florin" unicode="&#x192;" horiz-adv-x="550" 
d="M474 481q-24 13 -54 13q-72 0 -84 -79l-16 -104h83v-69h-93l-45 -322q-29 -208 -173 -208q-16 0 -45 8v71q18 -11 43 -11q74 0 94 146l46 316h-52v69h62l14 109q8 66 52 105t110 39q32 0 58 -9v-74z" />
    <glyph glyph-name="uniFFFC.477" unicode="&#x1af;" horiz-adv-x="653" 
d="M628 -67q6 -17 2 -52.5t-17.5 -69t-38 -60.5t-61.5 -31q-54 -14 -87 1.5t-69 57.5t-93 110.5t-118.5 111.5t-132.5 83l21 17q37 -15 82.5 -41t95.5 -63.5t91.5 -72.5t78.5 -63t76 -44.5t79 -15.5q28 0 41.5 17.5t9.5 35.5q-7 27 -37 43t-80 2q-17 -1 -18.5 13t6.5 34
t21.5 38t22.5 19q18 4 41 0q2 0 6 -1l-5 4q-58 66 -105.5 101t-87.5 43.5t-107 10.5l-62 -9q0 9 8 28t21.5 36t23.5 30t62 15l6 -2q16 14 30 33t8 45.5t-23.5 36.5t-50.5 12t-85 1q-59 -8 -67.5 -42t15 -76.5t23.5 -58.5q0 -3 -2.5 -8.5t-2.5 -9.5l-52 -52l-16 -4
q-23 39 -29.5 108t32.5 133t79 99v5h240l1 -15l-32 -72q21 -33 19 -52t-14.5 -44t-31.5 -39q43 -13 89 -77.5t110 -141.5q0 119 -22.5 221.5t-59.5 133.5v28l37 58h104l8 -9v-14l-42 -83v-361l-4 -17l16 -8q20 -10 32.5 -25.5t14.5 -30.5z" />
    <glyph glyph-name="circumflex" unicode="&#x2c6;" horiz-adv-x="379" 
d="M327 457h-61l-82 114l-82 -114h-56l107 165h66z" />
    <glyph glyph-name="tilde" unicode="&#x2dc;" horiz-adv-x="344" 
d="M337 576q0 -52 -24 -85t-65 -33q-35 0 -81 26q-38 21 -59 21q-44 0 -44 -56h-47q0 53 24 85t67 32q32 0 74 -26q37 -22 64 -22q42 0 42 58h49z" />
    <glyph glyph-name="afii59681" unicode="&#xe01;" horiz-adv-x="568" 
d="M162 -165q-50 -3 -71.5 -5.5t-36.5 -9.5l16 54q16 63 49 109q-44 -1 -43 3l32 48l11 10h199q5 7 9 19q4 30 -6.5 44t-44 20.5t-51.5 5.5t-39 -12q9 -6 39 -46q6 -11 6 -12q0 -4 -6 -4q-7 0 -15 4q-18 12 -35 21t-38 13t-45 5t-54 1q-5 0 -9.5 -0.5t-10.5 -0.5
q3 30 17.5 43.5t29.5 13.5l4 -2l25 37h2l2 2v3q0 2 -6 2h-15q-9 0 -14.5 2t-5.5 4q0 3 1 7l30 36h155l109 3l8 -12l-26 -40h-144q-14 -2 -39 -4.5t-41 -17t-16 -22.5h2q15 0 34 -6.5t34 -17.5q42 41 113.5 40t87.5 -24q6 -7 10 -16q7 18 26 23q29 4 64.5 -15.5t61.5 -20
t26 -5.5v-4q-36 -31 -91 -52q-38 5 -58 20q-12 1 -7.5 -9.5t11.5 -25.5h20l3 -15l-31 -42l-15 -5h-219q-25 0 -33 -15l-25 -39q12 13 37 23l235 -3q-20 -35 -34 -42q-187 3 -246 2q-6 -17 -6 -25q161 7 200 0.5t68.5 -22.5t49.5 -49l53 -93q5 -14 -3 -19q-5 -3 -10 1t-10 9
q-9 14 -55 68.5t-146 56.5h-79zM380 -407l12 -1l4 -8l-20 -22q6 -3 12 -14q0 -21 -29 -36q12 -1 19 -8t14 -13t24 -44q0 -1 -1 -2q8 -6 13 -13q11 -5 12 -13q3 -8 1 -26.5t-12.5 -34.5t-25.5 -29.5t-39 -14.5q-39 -4 -60.5 2t-45.5 26t-62 54t-79.5 55.5t-89.5 42.5l16 7
q23 -5 53 -18.5t64.5 -32.5t61.5 -36.5t53 -31.5t51.5 -22.5t49.5 -5.5q21 0 30 9t6 17q-4 12 -22.5 20t-53.5 0q-13 0 -13 7.5t5 17.5t13 19t15 9q15 2 26 1q10 -1 18 -5q-18 14 -24 18q-5 2 -13 3.5t-19 3.5t-30 2q-5 0 -14 -2t-18 -2q11 24 22.5 34t26.5 10h11q6 1 8 1h3
q2 0 2.5 1.5t0.5 5.5q1 11 -3 19t-20 11.5t-61 3.5q-22 0 -31.5 -5t-9 -13t3 -15.5t16.5 -19.5q6 -4 -3 -15.5t-23 -16t-14 -1.5q-11 28 -14 41.5t2 30.5q4 7 11 14t16 13t19 12.5t21 9.5h55l13 22q-1 25 -13 42.5t-43 24.5t-49 5.5t-35 -12.5q9 -8 37 -48q4 -10 4 -12
q0 -6 -4 -6q-8 0 -16 7q-16 11 -32 20.5t-36 13.5t-41 5t-52 1h-16q4 27 17 43t27 16l4 -2l23 35q0 3 2 4q1 0 1 2q0 1 -5.5 1t-13.5 0.5t-13 2.5t-5 4v7l28 39h245l8 -11l-23 -42h-138q-8 -1 -31.5 -4t-39 -17t-15.5 -21q15 -3 32.5 -9t32.5 -18q37 42 103.5 41.5t93 -20
t26.5 -59.5q-5 -27 -34 -55h17zM151 277q-51 -4 -75 -5t-39 -7l16 50q16 62 55 106q-50 -2 -48 2l33 50l14 8h293q-12 37 -16 47t4 22q19 53 36.5 51t53.5 -20.5t61.5 -20.5t25.5 -6v-4q-35 -30 -91 -52q-35 8 -58 20q-10 2 -5.5 -9t12.5 -28h17l2 -13l-35 -43l-15 -6h-239
q-24 0 -34 -12t-27 -39q15 12 43 26l253 -6q-23 -35 -37 -42q-202 6 -266 2q-5 -14 -5 -21q171 4 213.5 -1t74 -20.5t53 -51.5t54.5 -93q7 -10 -1 -16q-4 -3 -10 1.5t-10 10.5q-11 11 -60.5 65.5t-158.5 56.5zM388 44q-6 11 -9 20q-7 -11 -20 -20h29z" />
    <glyph glyph-name="afii59682" unicode="&#xe02;" 
d="M-33 -191h28l6 -5v-10l-34 -58v-193h17l9 -11l-26 -35q5 -4 14 -19q0 -33 -39 -56q14 -2 25 -10.5t19.5 -21t32.5 -64.5q3 -7 -4 -7q-4 -1 -7 0q-31 28 -41.5 33t-21.5 8.5t-24 4.5t-39 1q-8 0 -20 -2t-26 -2q17 35 33 50t32 15h19q7 1 10.5 1t4.5 1t1.5 2t0.5 7
q4 17 -3 30t-27.5 17t-82.5 7q-32 -3 -45.5 -9t-12.5 -18t5.5 -23.5t21.5 -30.5q9 -6 -4 -22t-29 -24t-22 -1q-13 39 -19 60t3 46q7 8 17 19.5t21.5 21t25.5 17.5t30 14h110q-4 1 -8 4q-19 11 -45.5 21t-55.5 17.5t-87 9.5l-52 -9q0 7 7 19t17.5 24t19 20t37.5 11l2 -1
q16 9 23.5 21.5t7.5 18.5v6q-4 6 -8 14.5t-14.5 13.5t-29.5 9.5t-62 2.5q-43 -5 -53.5 -27.5t13 -52t23.5 -39.5q0 -2 -0.5 -6t-0.5 -6l-46 -38l-12 -1q-18 27 -28.5 74.5t22 91t65.5 65.5v4h169l4 -9l-14 -38q18 -15 18 -26q0 -23 -13 -46t-26 -34q28 -2 47 -13.5t50 -46.5
t49 -48q0 41 -15.5 108t-51.5 95v19l31 39h31q0 27 -11 92t-30 89h-84v-166q0 -12 -15 -12q-30 39 -87.5 47t-122.5 7q-19 0 -33 -4t-20 -4q-9 0 -9 2q4 38 15 56.5t21 18.5q7 24 15 37.5t8 14.5q0 2 -8 2.5t-12 1t-7.5 2t-3.5 4.5v5l24 42q6 8 9 13t9 6h386q11 0 8 -15
q-10 -26 -17.5 -42.5t-7.5 -30.5v-166zM-204 -152q-3 62 -13.5 100t-54.5 41h-102q-39 -15 -46 -54q46 0 76 -4.5t45.5 -8.5t94.5 -74z" />
    <glyph glyph-name="afii59683" unicode="&#xe03;" 
d="M-164 -183q-32 11 -78 18.5t-124 7.5t-129 -22q6 27 9.5 44.5t8.5 26.5t11 12.5t13 4.5l-2 1q11 27 17 40t11 18.5t5.5 8t0.5 5.5h-7l-1 1q-7 0 -17.5 -0.5t-18.5 -0.5q-4 0 -6 2.5t-2 6.5q0 3 0.5 3.5t0.5 2.5l41 66h404l9 -4v-14q-18 -21 -40 -51v-201h15l7 -6v-9
l-35 -57v-186h15l9 -11l-26 -35q7 -3 14 -17q0 -34 -38 -56q13 -1 25.5 -10t20.5 -20.5t33 -61.5q2 -6 -5 -6q-4 -2 -8 0q-29 28 -41 32.5t-22.5 6.5t-24.5 4.5t-38 2.5q-8 0 -20.5 -3t-26.5 -3q16 34 32 49t34 15h21q4 1 7.5 1t5.5 0.5t2.5 2.5t0.5 6q2 19 -5 31.5
t-26.5 16.5t-82.5 5q-32 -1 -44.5 -8t-12.5 -19t4.5 -23t22.5 -28q8 -7 -5 -22t-29.5 -22.5t-20.5 -3.5q-15 40 -19 60t4 44q4 9 14 20t22.5 20t26 17t31.5 14h107q-1 1 -4 2q-21 12 -47.5 21.5t-55 17t-87.5 10.5l-53 -10q0 7 7 19.5t19 23.5t19.5 19.5t34.5 9.5h6
q12 9 20 20.5t8 18.5v4q-2 6 -7 14t-16 14t-30 10t-61 3q-43 -7 -52 -28.5t13.5 -50t22.5 -37.5q0 -2 -1.5 -6t-1.5 -7l-42 -36l-15 -1q-18 27 -28.5 72t22.5 87.5t66 64.5v4h169l1 -10l-9 -36q15 -15 15 -26q0 -23 -11.5 -44t-27.5 -31q28 -4 47 -15.5t49.5 -45.5t49.5 -45
q0 38 -15.5 104t-50.5 92v19l29 38h32q-39 16 -65 24zM-82 -198q-4 42 -18 105.5t-41 78.5l-197 -4q-20 -3 -38.5 -11t-27 -19t-13.5 -17t-5 -17l1 -2q13 1 51 0.5t68.5 -4t55.5 -9.5t164 -101z" />
    <glyph glyph-name="afii59684" unicode="&#xe04;" horiz-adv-x="481" 
d="M461 148q0 -24 -10 -50t-30 -47q-34 -46 -74 -68q-5 -3 -11 -5v-313q0 -15 -9 -19q-10 -4 -21 5q-98 81 -193 81h-21q-9 0 -18 -1q47 141 206 231h-13q-8 0 -20 2t-21 6q-42 9 -77 43t-50.5 89t-29.5 79t-33 59l-22 24l18 3q34 -2 73 -52q11 0 24 7t30 15.5t51.5 30.5
t37.5 32t3 15q-8 60 -23.5 64.5t-47.5 4.5h-115l-13 12l42 85h371l6 -5l-3 -19l-36 -65l-9 -8h-140v-89h23q35 0 63.5 -12t48.5 -33t31.5 -48t11.5 -54zM402 79q0 22 -7.5 46t-28 45.5t-54 40t-89.5 21.5q-57 -22 -101 -41q20 -32 35.5 -56t45 -52t59 -41.5t77.5 -13.5
q11 0 22.5 4.5t20.5 12t14.5 15.5t5.5 15v4zM298 -84q-109 -65 -130 -107q39 -16 71 -44t59 -63v214z" />
    <glyph glyph-name="afii59685" unicode="&#xe05;" horiz-adv-x="49" 
d="M-124 -387q88 -136 73 -233q-7 4 -15 7.5t-16 7.5q-75 32 -182 21q-14 -1 -20 4q-6 4 0 12l141 210q21 37 32.5 67t11.5 53q0 59 -90 82q-9 0 -31.5 -0.5t-44.5 -18t-22 -24.5q6 -23 15.5 -64t-12.5 -39q-6 0 -52.5 136.5t-57.5 140.5l41 89l302 -2l4 -22l-35 -65h-245
l31 -146q6 21 12 35t17.5 27.5t31 23t45.5 9.5h16q67 -7 97 -36.5t30 -77.5q0 -33 -11 -75.5t-66 -121.5zM-223 -520q42 0 65 -6.5t66 -37.5q-7 48 -18 79t-33 67z" />
    <glyph glyph-name="afii59686" unicode="&#xe06;" 
d="M-71 -389q-11 56 -24.5 87t-54 52t-98.5 23q-67 0 -110.5 -6.5t-73.5 -20.5q0 16 4 33t8 31t9 23.5t7 10.5q0 6 13 40t23.5 49t22.5 29q5 2 -13 2h-25q-12 0 -7 11l33 72q2 6 5 9t7 4l303 -1l9 -22l-34 -66l-11 -8h-181q-28 -1 -57.5 -16t-52.5 -80q0 -1 2 -3t2 -4
q8 4 37.5 8t86.5 4q73 0 118 -31t64 -85t20 -129l20 -249q1 -10 -5 -12q-9 -1 -20 6q-90 60 -171 67q-8 1 -17 1t-17 -1q36 93 178 172zM-69 -425q-37 -21 -59 -36t-37 -31q39 -16 58 -28.5t63 -67.5z" />
    <glyph glyph-name="afii59687" unicode="&#xe07;" 
d="M-118 -466q86 -130 71 -223q-5 5 -13.5 8.5t-14.5 6.5q-77 31 -184 21q-13 -1 -20 3q-5 5 0 14l144 198q17 55 -2 71.5t-51.5 24t-50.5 6t-40 -13.5q12 -8 40 -57q6 -11 6 -15q0 -5 -6 -5q-8 0 -16 5q-17 15 -34 25t-37.5 15.5t-42.5 8t-52 2.5q-6 0 -10.5 -1t-8.5 -1
q3 35 17.5 52t25.5 17h7l24 40l1 1v2q2 1 2 4q0 1 -7 1t-14 1t-14 1.5t-7 5.5q0 3 3 7l29 46q0 -1 19 -1h133q48 0 64 0.5t47 0.5q-20 20 -44 31q-34 14 -79.5 16t-49.5 2q-46 -2 -81.5 -8t-59.5 -17q0 12 2 25t7 25t9 19t8 10l9 24q9 24 32 54h-32q-19 0 -16 9l28 57
q7 7 16 11h303l14 -4l-4 -14l-32 -50l-8 -6h-163q-21 0 -46.5 -1t-37 -15t-26.5 -40l-5 -15q8 4 35 6t78 2q85 0 124 -20t58 -58.5t28.5 -100t19.5 -147.5q0 -7 -2.5 -9t-6.5 -2t-9.5 2t-5.5 7q-8 53 -21.5 107t-30.5 86q-7 -6 -36 -47h-139q-13 -1 -38.5 -4.5t-39.5 -20.5
t-14 -23h1q15 -6 33 -12t33 -21q42 49 111.5 48t99.5 -52t-30 -125zM-217 -593q43 0 64.5 -6t64.5 -36q-6 46 -16.5 76.5t-34.5 63.5z" />
    <glyph glyph-name="afii59688" unicode="&#xe08;" 
d="M-31 40q-8 -12 -35 -66v-96h23l7 -6v-12l-23 -47l-7 -5v-241q0 -8 -1 -13v-223q0 -8 -8 -12q-11 -1 -23 4q-95 55 -189 55q-8 0 -17.5 -1t-18.5 -3q48 99 218 192l3 1q-63 46 -118 60q-63 15 -122 15q-23 0 -47.5 -5t-48.5 -12q9 53 26.5 78t46.5 25v2q-1 2 -1 5
q26 48 26 54l2 2v2h-8q-8 0 -12 0.5t-8 2t-4 4.5l4 4l34 74h37q20 19 20 40q0 19 -7.5 37.5t-51.5 22.5h-66q-27 0 -38 -11.5t-13 -40t10 -44t27 -39.5v-7q0 -8 -7.5 -17.5t-17.5 -19.5t-21 -15.5t-13 -5.5q-4 0 -4 1v6q-26 42 -30 63.5t-4 34.5q0 16 7 36t17.5 39.5
t25.5 39.5t33 34l28 30h185l-25 -73q16 -38 4.5 -67t-27.5 -44h164q-2 27 -14.5 56t-56.5 56v20l29 52h105l5 -7v-15zM-113 -207h-190q-14 -8 -47 -65h1q66 0 101.5 -15.5t87.5 -64.5q50 -47 74 -74h2zM-105 -472q-44 -23 -75.5 -48.5t-51.5 -52.5q39 -12 70 -29t57 -41v171
z" />
    <glyph glyph-name="afii59689" unicode="&#xe09;" 
d="M-36 -379v-251q0 -8 -8 -12q-11 -3 -22 4q-96 54 -190 54q-8 0 -18 -0.5t-18 -2.5q45 96 208 187l-15 220q-18 -33 -34.5 -47t-34 -25t-32.5 -11q-28 0 -55.5 5t-48.5 20t-35 42.5t-14 70.5q-5 -16 -10.5 -35.5t-5.5 -37.5q0 -27 5.5 -54.5t10 -55t8 -52.5t13.5 -47
q0 -8 -3 -11.5t-7 -3.5q-23 45 -50.5 89.5t-63 82t-74.5 48.5t-65 15q10 38 29.5 59.5t35.5 24.5h7q59 -19 85 -53.5t21.5 -65t43.5 -90.5q-16 47 -21.5 81.5t-5.5 59.5q0 38 10 63t20 43q31 59 80 94t116 35q20 0 44 -4t39 -12l44 11q4 0 6 -2t9 -10l-7 -426h3zM-102 -84
q0 35 -25 55t-77 20q-36 0 -59.5 -6t-36 -18t-17 -29t-4.5 -39q0 -18 11.5 -34.5t32.5 -28.5t45.5 -18t50.5 -6q51 0 65 26t14 78zM-74 -577l-9 142q-39 -23 -67 -46q-32 -26 -51 -54q37 -11 68.5 -28t58.5 -41v27z" />
    <glyph glyph-name="afii59690" unicode="&#xe0a;" horiz-adv-x="49" 
d="M-437 -387q171 -93 220 -191q-8 1 -19 1.5t-19 0.5q-94 0 -190 -54q-11 -6 -20 -4q-8 4 -8 12v251l-7 418q7 8 9 10t6 2l44 -11q13 8 38 12t45 4q67 0 115.5 -35t80.5 -94q8 -18 18.5 -43t10.5 -63q0 -25 -6 -59.5t-22 -81.5q50 60 45 90.5t21.5 65t83.5 53.5h9
q14 -3 34.5 -24.5t30.5 -59.5q-27 -4 -66 -15t-74 -48.5t-63.5 -82t-51.5 -89.5q-4 0 -6.5 3.5t-2.5 11.5q9 22 13 47t9 52.5t9 55t4 54.5q0 18 -4 37.5t-10 35.5q0 -43 -14 -70.5t-35 -42.5t-48 -20t-55 -5q-15 0 -33 11t-35 25t-34 47zM-412 -84q0 -52 13 -78t67 -26
q25 0 50.5 6t46 18t32 28.5t11.5 34.5q0 22 -4 39t-16.5 29t-36 18t-59.5 6q-54 0 -79 -20t-25 -55zM-437 -596q25 24 56.5 41t69.5 28q-19 28 -51 54t-75 48v-171z" />
    <glyph glyph-name="afii59691" unicode="&#xe0b;" 
d="M-31 45q-5 -6 -36 -79v-569q0 -8 -8 -11q-11 -4 -23 3q-95 56 -190 56q-8 0 -17.5 -1t-17.5 -4q45 98 214 191q-26 42 -63 84q-43 49 -87.5 93t-87.5 76t-74 42q-16 -9 -24 -18t-27 -38q0 -3 2 -7.5t2 -10.5q27 -4 50.5 -22t44 -35t48 -69t27.5 -56t-3 -7.5t-5 -3.5
q-5 0 -15 11q-48 49 -95.5 70.5t-90.5 21.5q-13 0 -26 -3.5t-23 -6.5q2 27 15.5 52t41.5 48v6q0 14 34 61.5t45 59.5l-59 4l-8 12l24 53q2 7 6.5 11t10.5 5h203l6 -4v-15l-26 -63q-1 -2 -6.5 -2.5t-12.5 -0.5h-13q-5 0 -5 -5q0 -3 5 -8q54 -44 115.5 -162t81.5 -145
q-17 242 -30 280.5t-36 54.5v19l31 51h94l8 -4v-15zM-106 -406q-44 -21 -75 -47.5t-51 -53.5q36 -12 67.5 -29t58.5 -41v171z" />
    <glyph glyph-name="afii59692" unicode="&#xe0c;" 
d="M-106 -369q88 -137 73 -234q-7 6 -15 8.5t-15 6.5q-76 33 -184 23q-12 -3 -19 3q-5 5 0 13l141 208q26 65 24 103v11q-6 35 -19 62t-50 38.5t-57 7.5t-43 -19q13 -12 45 -75q5 -16 5 -18q0 -9 -5 -9q-8 0 -18 10q-19 17 -38 29.5t-42 20.5t-48.5 10t-57.5 2h-20
q3 43 18 66t29 23l7 -4l29 57l1 1q2 3 2 5t-7.5 2.5t-17 2t-16 3t-6.5 6.5q0 4 2 8l34 60h318l12 -11l-30 -69l-190 -2q-14 0 -42 -4t-44 -25.5t-16 -33.5q16 -3 37 -13t38 -27q44 63 121.5 62.5t102 -29.5t28.5 -67v-7q0 -16 3.5 -34.5t-9.5 -61.5t-61 -109zM-207 -503
q45 0 67.5 -6t65.5 -37q-8 47 -18 79t-33 67z" />
    <glyph glyph-name="afii59693" unicode="&#xe0d;" 
d="M-31 56v-13l-28 -60l-7 -9h-191v-123l4 -7q4 8 13.5 19t24 19.5t32 15.5t34.5 7q11 0 30.5 -7t39.5 -21.5t33 -36.5t13 -54q-2 -26 -12 -61.5t-26.5 -64t-37.5 -43.5q-13 -9 -32 -15v-237q0 -10 -8 -14q-9 -1 -21 6q-94 54 -188 54q-8 0 -18.5 -1.5t-20.5 -2.5
q48 98 215 191q-18 2 -33 9q-22 8 -37 21.5t-26 29.5q-9 15 -13 29q-4 -17 -15 -32q-9 -15 -24.5 -27t-32.5 -19t-37 -7q-12 0 -30 5.5t-39.5 19t-35 41.5t-9.5 71q3 38 20 68t41 52t52 34t48 12q24 0 42.5 -14t23.5 -23q0 30 -8 59t-16 36.5t-47 10.5h-124l-5 13l34 75h397
q-13 41 -16 52.5t1 27.5q21 60 40.5 59.5t57 -24.5t64 -25t26.5 -7v-3q-35 -37 -95 -63q-38 8 -61 24q-11 2 -6 -11.5t12 -31.5zM-80 -263q-4 22 -16.5 39.5t-31 31t-40 21.5t-39.5 8t-35 -9.5t-17 -41.5q0 -24 9 -45.5t23 -39.5t33.5 -28t39.5 -10q28 0 52 17.5t22 56.5z
M-292 -261q0 24 -13.5 43t-31.5 31t-35 18t-28 6q-12 0 -21.5 -1t-18 -6.5t-14.5 -17.5t-6 -33q0 -27 9.5 -52t24 -42.5t35.5 -19.5t36 -2q28 0 45.5 21.5t17.5 54.5zM-176 -438q-45 -24 -76.5 -49t-51.5 -52q38 -12 69 -30t59 -42v173z" />
    <glyph glyph-name="afii59694" unicode="&#xe0e;" 
d="M-11 63q4 -7 3 -12q-15 -33 -28 -76l-6 -166h31l6 -5v-10l-35 -58v-204l-2 -2v-212q0 -10 -8 -13q-9 -2 -21 5q-95 54 -188 54q-8 0 -18.5 -1t-20.5 -4q47 96 208 187q-17 11 -43.5 21t-55 17.5t-89.5 9.5l-51 -9q0 7 7 19t18.5 24t18.5 20t36 11l4 -1q13 9 21.5 21.5
t8.5 18.5v6q-2 6 -7.5 14.5t-16 13.5t-30 9.5t-60.5 2.5q-43 -5 -54 -27.5t13 -52t24 -39.5q0 -2 -1.5 -6t-1.5 -6l-45 -38l-12 -1q-16 27 -27.5 74.5t22 91t65.5 65.5v4h170l2 -9l-11 -38q15 -15 15 -26q0 -23 -11.5 -46t-27.5 -34q27 -2 46.5 -13.5t49.5 -45.5
q25 -28 42 -43l8 4q-1 39 -15 98q-16 67 -52 95v19l31 39h15q-2 15 -4 31q-10 86 -34 127h-90q4 -26 7 -146h-27q-30 126 -49 143q-3 3 -10 4.5t-15.5 2t-20.5 0.5h-15q-11 -1 -7 -41.5t-14 -61.5q-10 -9 -24.5 -16.5t-32 -13.5t-35.5 -13.5t-40 -22.5l10 49l13 42
q7 9 19 16t23.5 10t22 7.5t16 17t3 18t-8.5 10.5q-1 2 -11 2t-23 0.5t-23 0.5t-2 20l27 56q5 11 13 12h405zM-78 -484q-44 -24 -75.5 -50.5t-51.5 -53.5q39 -12 69.5 -29t57.5 -41v174z" />
    <glyph glyph-name="afii59695" unicode="&#xe0f;" 
d="M-33 -191h28l6 -5v-10l-34 -58v-418q0 -10 -9 -13q-9 -2 -21 5q-95 54 -190 54q-9 0 -18.5 -1t-18.5 -4q47 96 208 187q-19 11 -45.5 21t-55.5 17.5t-87 9.5l-52 -9q0 7 7 19t17.5 24t19 20t37.5 11l2 -1q16 9 23.5 21.5t7.5 18.5v6q-4 6 -8 14.5t-14.5 13.5t-29.5 9.5
t-62 2.5q-43 -5 -53.5 -27.5t13 -52t23.5 -39.5q0 -2 -0.5 -6t-0.5 -6l-46 -38l-12 -1q-18 27 -28.5 74.5t22 91t65.5 65.5v4h169l4 -9l-14 -38q18 -15 18 -26q0 -23 -13 -46t-26 -34q28 -2 47 -13.5t49 -45.5q25 -28 42 -43l8 4q-1 39 -16 98q-15 67 -51 95v19l31 39h31
q0 27 -11 92t-30 89h-84v-166q0 -12 -15 -12q-30 39 -87.5 47t-122.5 7q-19 0 -33 -4t-20 -4q-9 0 -9 2q4 38 15 56.5t21 18.5q7 24 15 37.5t8 14.5q0 2 -8 2.5t-12 1t-7.5 2t-3.5 4.5v5l24 42q6 8 9 13t9 6h386q11 0 8 -15q-10 -26 -17.5 -42.5t-7.5 -30.5v-166zM-204 -152
q-3 62 -13.5 100t-54.5 41h-102q-39 -15 -46 -54q46 0 76 -4.5t45.5 -8.5t94.5 -74zM-71 -484q-44 -24 -76.5 -50.5t-50.5 -53.5q38 -12 69 -29t58 -41v174z" />
    <glyph glyph-name="afii59696" unicode="&#xe10;" horiz-adv-x="588" 
d="M574 483l-46 -88h-15l-175 -108l150 -113h54l-27 -83h-469l24 83h35l182 113l-143 108h-71l32 88h469zM451 -377q-8 136 -16 212q-9 89 -34 128h-99q4 -24 16 -289h-25q-32 269 -53 288q-2 1 -9.5 2.5t-15.5 1.5h-34q-10 0 -11.5 -11.5t-1.5 -30.5q0 -25 -3.5 -49.5
t-23.5 -45.5q-9 -9 -23 -16.5t-33 -13.5t-36.5 -13.5t-37.5 -22.5l8 49l12 42q7 10 19 16.5t25 9.5t23 7t21 11q17 26 17 42q3 13 -0.5 18t-8.5 9q-3 3 -12.5 3.5t-21.5 0.5t-23.5 0.5t-3.5 18.5l28 57q4 9 12 13h404q7 -7 3 -15q-12 -32 -26 -74v-348h22q2 0 5 -3t1 -12
l-27 -46q6 -5 14 -27q0 -43 -42 -74q17 -4 29.5 -16.5t21 -27t35.5 -86.5q3 -7 -4 -8q-4 -1 -9 0q-32 39 -44 45t-24.5 10t-26.5 6t-42 2q-10 0 -22.5 -3t-28.5 -3q18 48 36.5 67.5t36.5 19.5h19q15 3 21 22q1 19 -5.5 35t-29 21.5t-93.5 7.5q-32 -2 -46.5 -10.5t-14.5 -25
t5.5 -31t26.5 -40.5q9 -8 -6 -29.5t-33 -32t-22 -2.5q-18 53 -22 81.5t4 62.5q10 22 19 32l23 22q13 13 27.5 24.5t33.5 18.5h126zM437 174l-127 93l-154 -93h281zM460 395h-264l118 -88z" />
    <glyph glyph-name="afii59697" unicode="&#xe11;" horiz-adv-x="49" 
d="M-31 -470h13q-4 2 -6 4q-9 2 -16 6q-74 30 -181 21q-12 -2 -19 4q-5 4 0 12l139 196q9 78 -83 94q-12 0 -33.5 -5.5t-42.5 -23t-21 -22.5q7 -22 14.5 -53t-12.5 -43q-5 0 -50 127.5t-58 132.5l41 84l296 -2l6 -19l-36 -63h-241l30 -137q8 17 13.5 31.5t17 26.5t29.5 21.5
t43 9.5h16q71 0 97.5 -23t30.5 -84q0 -32 -39 -78q83 -124 74 -217h6l8 -11l-24 -31q4 -4 12 -18q0 -32 -36 -51q11 -3 23 -11t20 -18t32 -59q1 -7 -4 -7q-4 -1 -9 0q-28 26 -39.5 30.5t-21 7.5t-24 4.5t-39.5 1.5q-8 0 -19 -2t-25 -2q16 32 32 45.5t33 13.5h29q3 0 4 2
t2 3.5t1 3.5q1 19 -5 30t-26 15t-83 4q-30 0 -42.5 -6t-12 -17.5t4.5 -22.5t22 -27q8 -4 -5 -19.5t-29 -22.5t-21 -1q-14 35 -18 54.5t4 42.5q4 8 14 19t21.5 19.5t25.5 17t30 10.5h137v2zM-181 -379q43 0 65 -6.5t65 -36.5q-7 46 -18 75.5t-32 65.5z" />
    <glyph glyph-name="afii59698" unicode="&#xe12;" 
d="M-97 -263q-10 36 -50.5 54t-95.5 21q-68 0 -110 -6t-71 -19q0 15 3 30t7 27t9 20t8 10q0 4 12.5 34.5t23.5 44t22 22.5q5 4 -14 4h-24q-12 0 -6 10l30 63q3 7 7 8.5t7 2.5l297 -1l9 -19l-33 -57l-9 -8h-180q-26 -3 -55 -16t-52 -68q0 -1 2 -2.5t2 -2.5q5 2 35.5 5.5
t83.5 3.5q73 -5 120.5 -35.5t51.5 -111.5l23 -217q1 -6 0 -7h21l9 -10l-26 -29q7 -3 13 -16q0 -29 -36 -49q12 -1 24 -8.5t21 -18t31 -54.5q2 -7 -5 -7q-3 -1 -7 0q-29 24 -40.5 28.5t-21.5 7t-23.5 4t-37.5 1.5q-9 0 -21.5 -1.5t-22.5 -2.5q14 31 29.5 43t31.5 12h21
q6 1 9.5 1t4.5 1.5t2 2t1 6.5q3 15 -4 25t-26.5 14t-83.5 7q-28 -3 -42 -8.5t-14 -16t6 -20t23 -26.5q7 -5 -5 -18.5t-28 -20t-22 -1.5q-15 34 -20 52t4 38q7 9 15.5 19t21 18t25.5 14.5t29 12.5h124q-2 0 -3 1q-90 54 -170 61h-33q35 81 173 148zM-92 -294
q-38 -17 -59.5 -30.5t-37.5 -28.5q39 -13 59 -24.5t63 -57.5z" />
    <glyph glyph-name="afii59699" unicode="&#xe13;" 
d="M-74 -500l14 1q-4 0 -6 2q-8 1 -16 5q-72 24 -174 16q-14 0 -19 3q-4 3 1 9l112 137q16 23 14.5 35.5t-33 18t-49 5t-37.5 -10.5q11 -6 39 -47q5 -8 5 -11q0 -5 -5 -5q-7 0 -15 5q-19 11 -34 20t-35 13t-41 6.5t-51 2.5q-6 0 -9 -0.5t-8 -0.5q3 27 16.5 41t26.5 14h5
l23 34v1l1 2q2 0 2 1q0 3 -7 3t-13 1l-13 1q-7 0 -7 6q0 1 1 4l29 38h250q-17 17 -40 25q-34 11 -77 13t-47 2q-44 0 -78 -6t-57 -14q0 11 2 21t6 20t8 15.5t10 8.5l8 20q9 19 30 44q-13 0 -30.5 -0.5t-16.5 7.5l28 47q7 7 15 10h290l13 -3l-4 -12l-28 -42l-9 -4h-156
q-22 0 -46.5 -1.5t-34 -12t-25.5 -32.5l-4 -13q8 4 33.5 5t75.5 1q79 0 117 -16t55.5 -47.5t27 -83t19.5 -121.5q0 -7 -2.5 -8.5t-7.5 -1.5q-4 0 -8 1.5t-4 6.5q-8 44 -21 88.5t-32 69.5q-4 -4 -33 -37h-133q-11 -3 -35 -5t-38 -16.5t-14 -19.5q14 -4 32 -9.5t31 -17.5
q39 39 106 39t83 -37.5t-48 -83.5q83 -72 94 -149h4l9 -12l-25 -27q6 -3 13 -15q0 -27 -37 -44q14 -3 25 -10t19 -17t30 -52q3 -5 -2 -5h-7q-32 23 -41.5 27t-19.5 6.5t-23.5 3.5t-38.5 1q-8 0 -19 -1.5t-24 -1.5q16 27 31 39t32 12h19q5 2 7.5 2t5 0.5t3 2.5t0.5 5
q1 15 -5 24.5t-25.5 13.5t-79.5 4q-29 0 -42 -5.5t-12.5 -15t4.5 -19t23 -22.5q8 -6 -5.5 -18.5t-29 -19.5t-20.5 -2q-13 31 -18 48t3 36q7 8 16.5 17t21 17t25.5 14.5t27 12.5h134zM-216 -426q42 0 62 -6t62 -30q-22 37 -36.5 55t-35.5 32z" />
    <glyph glyph-name="afii59700" unicode="&#xe14;" 
d="M-28 45q-11 -9 -36 -51v-76h21l7 -4v-9l-22 -37l-6 -4v-189q0 -5 -2 -9v-173h14l9 -9l-26 -27q6 -3 13 -14q0 -27 -36 -43q10 -1 23 -8.5t20 -16.5t33 -48q1 -4 -6 -4q-2 -1 -6 0q-30 20 -42 24t-21.5 6t-22 3.5t-38.5 1.5q-8 0 -20 -1.5t-24 -2.5q15 27 31 38.5t32 11.5
h29q3 0 4 1.5t1.5 2t0.5 4.5q4 15 -2.5 24t-26.5 13t-81 4q-31 0 -43.5 -6.5t-12 -15t4.5 -17.5t22 -22q9 -4 -4.5 -16t-29.5 -18.5t-20 -2.5q-13 31 -18 46t3 35l16 16q9 9 21 16.5t25.5 13.5t28.5 10h106q-87 35 -169 35h-18q-10 0 -18 -1q47 75 212 148l3 1
q-61 37 -114 48q-61 12 -119 12q-23 0 -47.5 -4t-44.5 -10q6 41 24.5 60.5t44.5 19.5l-1 2q-1 1 -1 2q27 39 27 45l3 1q0 1 -9 1h-13q-4 0 -6.5 2t-2.5 4l1 2l34 58h36q20 15 20 31q0 15 -7 30t-49 16h-66q-25 0 -36.5 -8.5t-13 -31t9.5 -34.5t25 -30v-6q0 -4 -7 -12.5
t-16.5 -15.5t-19 -12t-14.5 -5q-3 0 -3 1v2l1 1q-25 34 -29 51.5t-4 26.5q0 13 5.5 27.5t16.5 30t26.5 32t31.5 27.5l27 23h180l-24 -57q16 -30 4.5 -52t-26.5 -35h158q-2 21 -14.5 43t-53.5 44v16l30 41h99l8 -6v-11zM-109 -149h-186q-12 -6 -45 -50h1q65 0 98.5 -12
t83.5 -50q50 -37 74 -58zM-102 -353q-44 -20 -74.5 -40.5t-47.5 -40.5q35 -9 66.5 -22.5t55.5 -32.5v136z" />
    <glyph glyph-name="afii59701" unicode="&#xe15;" 
d="M-36 -240v-239h9l11 -10l-27 -33q7 -5 12 -17q0 -31 -35 -53q11 -1 23 -9t20.5 -18.5t31.5 -58.5q2 -6 -2 -6q-4 -1 -7 0q-32 25 -43.5 29.5t-21 7t-23.5 4t-38 1.5q-9 0 -21.5 -2t-25.5 -2q16 32 32 45.5t34 13.5h19q5 2 9 2t5 0.5t2 2.5t1 5q2 17 -5 28.5t-26.5 16
t-85.5 4.5q-28 0 -41.5 -6.5t-13.5 -18t5 -21.5t23 -27q8 -4 -5 -19.5t-29.5 -22.5t-21.5 -2q-16 36 -20 55.5t4 42.5q6 8 15.5 18t22 19.5t27 17.5t29.5 12h122q-94 47 -185 47h-18q-10 0 -18 -1q44 89 202 171l-9 98q-18 -31 -34.5 -44.5t-34 -24t-32.5 -10.5
q-28 0 -55.5 4t-48.5 18.5t-35 40t-14 66.5q-5 -15 -10.5 -32.5t-5.5 -35.5q0 -26 5.5 -53t10 -51.5t8 -48.5t13.5 -43q0 -8 -3 -11t-7 -3q-23 40 -50.5 82t-63 78.5t-74.5 46.5t-65 14q10 36 29.5 56.5t35.5 21.5h7q59 -16 85 -49t21.5 -61.5t43.5 -87.5q-16 44 -21.5 77
t-5.5 58q0 35 10 58.5t20 39.5q31 56 80 89.5t116 33.5q20 0 44 -4t39 -9l44 8q4 0 6 -1.5t9 -10.5zM-102 -76q0 34 -25 53.5t-77 19.5q-36 0 -59.5 -7t-36 -17.5t-17 -27t-4.5 -36.5q0 -18 11.5 -33.5t32.5 -27t45.5 -16.5t50.5 -5q51 0 65 24t14 73zM-74 -435l-14 140
q-34 -17 -62 -39q-32 -26 -51 -51q37 -10 68.5 -27.5t58.5 -39.5v17z" />
    <glyph glyph-name="afii59702" unicode="&#xe16;" horiz-adv-x="49" 
d="M-416 -238q154 -91 201 -187q-8 2 -18 2.5t-18 0.5q-94 0 -187 -51q-11 -7 -22 -3q-8 3 -8 11v242l-5 270q5 8 7.5 10t5.5 2l44 -8q14 5 38 9t46 4q66 0 113 -34.5t78 -89.5q10 -18 20.5 -42t10.5 -62q0 -24 -6 -58t-22 -80q48 61 43.5 90t21.5 63t84 50h7
q15 -2 35 -22.5t30 -57.5q-27 -4 -64.5 -14t-73.5 -47t-63.5 -81t-49.5 -86q-5 0 -6.5 3.5t-1.5 11.5q8 21 11 45.5t8 50t10 53.5t5 53q0 18 -5 37t-11 34q0 -44 -13 -69.5t-33.5 -40.5t-48.5 -19.5t-55 -4.5q-14 0 -32 11t-34 25t-34 45zM-405 -79q0 -51 12.5 -76t65.5 -25
q24 0 50 6t45.5 17t31 27t11.5 35q0 20 -4 36.5t-17 27.5t-36.5 18.5t-59.5 7.5q-51 0 -75 -20t-24 -54zM-431 -441q26 23 56 40t69 28q-19 27 -51 52t-59 48zM-257 -464l25 2l11 -11l-27 -34q5 -4 13 -17q0 -33 -36 -53q12 -3 23 -11t19.5 -19t32.5 -61q3 -6 -4 -6
q-4 -2 -7 0q-32 28 -42 32t-20 7t-24 4t-39 1q-8 0 -19.5 -2t-25.5 -3q16 34 32 48t33 14h20q4 1 7.5 1t5 1.5t3 3.5t1.5 5q1 17 -6 28.5t-26.5 16.5t-82.5 5q-30 0 -43 -7.5t-13 -18.5t4.5 -21.5t23.5 -27.5q8 -6 -5.5 -21.5t-29 -22.5t-19.5 -1q-16 37 -20.5 57t3.5 42
q7 10 16.5 20t21 19.5t25.5 17.5t29 12h140z" />
    <glyph glyph-name="afii59703" unicode="&#xe17;" 
d="M-66 -491l22 2l8 -11l-24 -28q4 -3 12 -15q0 -27 -36 -45q11 -1 22.5 -8.5t20 -17.5t32.5 -52q1 -4 -5 -4q-2 -3 -5 0q-32 21 -43 25t-20.5 7t-22.5 3.5t-38 0.5q-7 0 -18.5 -1t-26.5 -1q18 28 32.5 39.5t31.5 11.5h19q6 1 9.5 1t4.5 2l1 3v3q4 15 -2.5 25t-26.5 14
t-81 4q-28 0 -41.5 -6t-12.5 -15.5t5 -18t24 -23.5q8 -5 -6 -18t-29 -20t-21 -1q-14 31 -18.5 48t3.5 36q5 8 15 17.5t21.5 17.5t25.5 14t27 11h110q-92 42 -178 42h-19q-10 0 -18 -1q45 81 206 156q-27 34 -59 69q-43 43 -85 79t-84.5 61t-70.5 36q-16 -8 -24 -15t-26 -31
q0 -3 1.5 -7.5t1.5 -7.5q28 -5 51 -18.5t42.5 -28.5t45 -57.5t25.5 -48.5q0 -2 -2 -4t-5 -2q-4 0 -13 6q-47 41 -92.5 60t-87.5 19q-15 0 -26.5 -3t-23.5 -5q7 21 19 42.5t39 39.5v3q0 13 32 51.5t44 49.5l-57 4l-7 8l23 46q1 4 5 7.5t11 4.5h196l5 -4v-12l-25 -51
q-2 -2 -7.5 -2.5t-10.5 -0.5h-13q-6 0 -6 -4q0 -3 6 -8q51 -35 110.5 -132.5t79.5 -118.5q-19 198 -30 229t-33 46v16l31 42h90l5 -4v-12q-4 -4 -35 -66v-473zM-102 -322q-44 -20 -73.5 -41t-47.5 -44q34 -9 65.5 -24t55.5 -34v143z" />
    <glyph glyph-name="afii59704" unicode="&#xe18;" 
d="M-84 -456h26q-73 26 -174 17q-11 -2 -19 4q-4 4 2 12l139 193q12 65 -5.5 86t-54.5 31.5t-57 6.5t-43 -17q13 -13 45 -69q5 -15 5 -19q0 -6 -5 -6q-8 0 -18 8q-19 17 -38 27.5t-42 18t-48.5 10.5t-57.5 3q-7 0 -11.5 -1t-8.5 -1q3 42 18 62.5t29 20.5l7 -2l29 51q0 2 1 2
q2 1 2 4t-7.5 3t-17 0.5t-16 2.5t-6.5 6q0 5 2 8l34 56h318l12 -11l-30 -62l-190 -2q-14 -1 -42 -4.5t-44 -23.5t-16 -30q16 -4 37 -12.5t38 -25.5q44 57 121.5 56.5t103.5 -21.5t32.5 -64.5t-56.5 -117.5q87 -127 72 -217q-6 5 -14 8t-16 7q-4 1 -10 2l10 -10l-26 -31
q7 -3 14 -17q0 -31 -38 -50q12 -4 25 -10.5t21 -17.5t33 -59q1 -6 -5 -6q-4 -1 -8 0q-31 25 -42.5 30t-21.5 7t-24 4t-38 2q-8 0 -21 -2.5t-26 -2.5q16 32 32 45t34 13h21q4 1 7.5 1t4.5 1.5t2.5 3t1.5 4.5q1 18 -5.5 29t-26.5 15t-82 4q-32 0 -45 -6t-13 -17.5t5 -21
t22 -25.5q8 -7 -4.5 -21.5t-29.5 -21t-22 -2.5q-14 37 -18 55t4 41q5 8 15 19t22.5 19t26 16t30.5 11h139v1zM-190 -381q44 0 66 -5.5t65 -35.5q-5 46 -17 75t-33 63z" />
    <glyph glyph-name="afii59705" unicode="&#xe19;" 
d="M-27 56v-12l-29 -49l-7 -6h-188v-103l4 -4q4 7 14 15.5t23 16t30.5 12.5t36.5 5q10 0 28 -6.5t38.5 -17t33 -29.5t12.5 -45q-2 -21 -11 -50t-25 -53t-39 -36q-11 -6 -29 -12v-197h10l10 -9l-26 -29q6 -2 15 -16q0 -27 -39 -43q13 -2 24 -9t19.5 -17.5t33.5 -50.5
q2 -4 -4 -4q-5 -2 -7 0q-32 20 -42.5 24t-20.5 7t-24 3.5t-37 0.5q-9 0 -21 -1.5t-23 -1.5q14 27 30 39.5t32 12.5h20q4 1 8 1t4.5 1.5t1.5 2.5t1 4q4 15 -3.5 25t-25.5 14t-82 4q-30 0 -44 -6t-13.5 -15.5t5 -19.5t25.5 -24q5 -4 -8 -16.5t-29 -19.5t-20 -1
q-15 31 -19.5 47.5t4.5 35.5q6 8 15.5 17.5t21 16.5t25.5 14.5t30 11.5h115q-90 42 -177 42q-8 0 -18 -1t-19 -4q47 80 213 157q-19 1 -35 8q-21 6 -37 17.5t-24 24.5q-11 11 -14 24q-4 -16 -14 -28q-9 -11 -24.5 -20.5t-32.5 -15.5t-35 -6q-12 0 -30 4t-38.5 15.5t-33.5 33
t-11 59.5q4 31 21 57t39.5 42.5t50 27t47.5 10.5q24 0 42.5 -11.5t23.5 -18.5q0 24 -8.5 48.5t-16 30.5t-46.5 9h-121l-5 9l35 62h389q-14 34 -17.5 43.5t2.5 22.5q20 50 39.5 49.5t55.5 -19.5t62.5 -21t26.5 -6v-3q-35 -31 -94 -51q-37 5 -59 20q-11 0 -7 -11.5t12 -24.5z
M-75 -207q-7 17 -18.5 32t-29.5 26t-39.5 18.5t-38.5 7.5q-19 0 -35.5 -9t-16.5 -35q0 -20 9 -38t22.5 -32.5t32.5 -23t40 -8.5q27 0 51 15.5t23 46.5zM-284 -206q0 22 -13.5 36.5t-31.5 25t-34.5 16t-26.5 5.5q-12 0 -21.5 -1.5t-18 -6.5t-13.5 -15t-5 -26q0 -23 8.5 -44
t23 -34.5t34.5 -16t35 -2.5q28 0 45.5 19t17.5 44zM-172 -352q-43 -17 -73 -39.5t-51 -43.5q37 -11 67.5 -24.5t56.5 -32.5v140z" />
    <glyph glyph-name="afii59706" unicode="&#xe1a;" 
d="M-11 63q4 -4 3 -11q-14 -26 -27 -62l-7 -136h31l6 -4v-9l-35 -47v-305h5l11 -11l-27 -27q4 -4 12 -15q0 -28 -35 -45q11 -2 22.5 -9.5t20 -16t31.5 -50.5q1 -5 -3 -5q-4 -2 -6 0q-33 22 -43.5 25.5t-20.5 5.5t-23.5 4t-38.5 2q-8 0 -19.5 -2t-26.5 -3q17 30 32.5 41.5
t33.5 11.5h18q6 1 9.5 1t4.5 0.5t2 2t1 5.5q2 15 -4.5 24.5t-26.5 13.5t-82 4q-28 0 -42 -5.5t-13.5 -15.5t4.5 -19t24 -24q7 -4 -6.5 -17.5t-29 -19.5t-19.5 -2q-16 33 -20 49t4 38q4 6 14.5 15t22 17t25.5 15t29 11h122q-90 39 -178 39h-17q-10 0 -19 -1q45 76 201 114
q-18 8 -42 15q-25 10 -53.5 15t-85.5 8l-51 -8q0 5 6 15.5t17.5 20.5t19.5 16.5t35 8.5h4q16 6 22.5 15.5t6.5 16.5v4q-3 4 -7 11t-15 12.5t-30 8.5t-59 2q-42 -5 -53 -23.5t12.5 -42t23.5 -31.5q0 -2 -1 -5t-1 -5l-45 -32h-13q-16 21 -26.5 59.5t22 75t64.5 55.5v2h167
l1 -9l-10 -29q16 -12 16 -22q0 -19 -12 -38t-29 -27q27 -2 46.5 -11.5t51.5 -38.5q23 -23 40 -33l9 2q-3 31 -15 81q-17 54 -51 79v13l28 33h15q-1 13 -3 27q-11 70 -35 102h-88q4 -20 8 -119h-24q-32 103 -50 118q-4 1 -10.5 3t-14.5 2h-38q-9 0 -4.5 -34.5t-14.5 -47.5
q-9 -11 -23.5 -16.5t-31.5 -11t-35 -11.5t-40 -16l11 40l12 34q4 8 16 12.5t24 7.5t23 6t17 14t2 15t-8 10q-1 1 -11 1h-23q-12 0 -22 0.5t-2 15.5l27 47q3 9 11 10h399zM-75 -387q-55 -11 -126 -46q36 -8 67.5 -22.5t58.5 -33.5v102z" />
    <glyph glyph-name="afii59707" unicode="&#xe1b;" 
d="M-33 -148h28l6 -4v-8l-33 -47v-170h-1v-137h2l12 -9l-28 -30q5 -2 14 -15q0 -27 -36 -44q11 -2 22.5 -9t20 -17.5t31.5 -50.5q2 -6 -4 -6h-6q-31 22 -42 26t-21 7t-24 3.5t-39 0.5q-8 0 -19.5 -1.5t-23.5 -1.5q16 29 32 40.5t32 11.5h19q5 1 8 1t5.5 1.5t3 2.5t0.5 4
q1 15 -5.5 25t-26 14t-83.5 4q-27 0 -41.5 -6t-13.5 -15.5t5 -18t24 -23.5q7 -6 -6.5 -18.5t-29 -19.5t-20.5 -1q-16 31 -20 47.5t4 38.5q6 5 15.5 14.5t21 17.5t26.5 15t28 11h127q-91 42 -179 42q-8 0 -17.5 -0.5t-18.5 -2.5q44 77 200 114q-17 8 -40 16q-26 8 -54.5 13.5
t-85.5 7.5l-51 -8q0 6 6 16.5t17 20t19.5 16.5t33.5 9l6 -1q13 8 20.5 17.5t7.5 16.5v2q-2 6 -6.5 12.5t-16 12t-29 9t-58.5 2.5q-43 -6 -53 -25t13 -42t23 -33q0 -2 -2 -5t-2 -5l-42 -31l-13 -1q-19 23 -28.5 60.5t22.5 75.5t65 57v1h166l2 -8l-10 -31q16 -11 16 -20
q0 -20 -13 -38.5t-27 -27.5q28 -3 46 -12.5t50 -39.5q24 -21 39 -33l8 4q-1 32 -14 81q-15 54 -49 77v16l28 32h30q0 23 -10 77t-29 74h-83v-139q0 -8 -15 -8q-27 30 -84 37.5t-123 5.5q-17 0 -31 -3t-20 -3q-9 0 -9 1q4 31 15 46.5t21 15.5q6 22 14.5 32t8.5 11q0 3 -8 3.5
t-12 0.5t-8 1.5t-4 2.5v3l1 2l24 35q4 6 8 10.5t9 5.5h379q11 0 8 -11q-10 -22 -17.5 -36t-7.5 -25v-139zM-200 -115q-4 52 -13.5 82.5t-53.5 34.5h-102q-37 -12 -43 -46q43 0 73.5 -3.5t45.5 -6.5t93 -61zM-69 -391q-56 -4 -127 -42q39 -9 69 -24t58 -34v100z" />
    <glyph glyph-name="afii59709" unicode="&#xe1d;" 
d="M-66 -217q2 -70 -17 -118t-64.5 -70t-88 -8t-66 30.5t-51 24.5t-58 4t-38.5 -9t-8 -8q35 -5 63 -24.5t59.5 -51.5t64.5 -49.5t78 -22.5q30 -1 54 3.5t48 16.5t70.5 62t55.5 62q3 4 13.5 9t13.5 5q4 0 1 -12l-1 -11q-11 -15 -65 -77t-104 -97t-101.5 -34.5t-90 19.5
t-75.5 54.5t-74.5 77.5t-71.5 39q5 23 18 37.5t34 27t67 18.5q37 2 67 -7t79 -36t91 -7t53 60.5t6 91t-15.5 96.5t-32.5 85h-99q4 -24 16 -248h-27q-30 229 -50 247q-3 1 -10 2.5t-15 1.5h-36q-10 0 -11.5 -11t-2.5 -31q0 -24 -2 -49t-23 -44q-9 -11 -23 -17.5t-33 -13.5
t-36.5 -14.5t-39.5 -22.5l10 49l12 43q7 10 19 16t25 9.5t23 7.5t19 10q18 26 18 42q2 14 -0.5 18.5t-8.5 10.5q-1 1 -11 1.5t-22 0.5t-23.5 1t-3.5 18l27 57q5 11 14 14h403q7 -7 3 -15q-12 -33 -26 -75v-189z" />
    <glyph glyph-name="afii59710" unicode="&#xe1e;" horiz-adv-x="53" 
d="M-73 -215q-34 171 -60 182h-76v-278q0 -10 -4 -14t-7 -4q-5 0 -10 7q-34 35 -87 65t-144 30q-15 0 -32 -2t-25 -2q-4 0 -4 2q3 50 15 73.5t27 23.5q0 6 3.5 14.5t12 33.5t33.5 51q-25 0 -35.5 2t-10.5 9v1l1 1l39 83h414l12 -15q-4 -4 -24 -76v-187q2 -70 -17 -121
t-64.5 -70.5t-88 -5.5t-66.5 30t-51 24t-57.5 4.5t-39 -9t-8.5 -8.5q33 -4 62 -24t61.5 -50.5t65.5 -48.5t78 -25q29 -1 53 3.5t48 18t70.5 63t55.5 61.5q1 4 13 8t14 4q5 0 2 -12l-2 -11q-10 -15 -64 -77t-104 -97t-102 -34.5t-90 19.5t-75 55.5t-74.5 78t-72.5 37.5
q6 23 19 37.5t33 27t67 19.5q37 1 67.5 -8t79.5 -36t90.5 -7t53 60.5t5.5 93.5zM-232 -292q-3 31 -21 135.5t-46 123.5h-90q-32 -22 -49.5 -45t-24.5 -52q123 -10 231 -162z" />
    <glyph glyph-name="afii59711" unicode="&#xe1f;" 
d="M-31 56v-13l-28 -60l-7 -9h-191v-123l4 -7q4 8 13.5 19t24 19.5t32 15.5t34.5 7q11 0 30.5 -7t39.5 -21.5t33 -36.5t13 -54q-2 -26 -12 -61.5t-26 -62.5l-3 -6q-1 -51 -17 -89q-19 -47 -64 -69t-88.5 -8t-67 29.5t-50 23.5t-57 4.5t-38.5 -8.5t-9 -9q34 -3 62.5 -22.5
t61.5 -51.5t65.5 -49.5t75.5 -24.5q32 -1 55.5 4t47 17.5t69.5 62.5t56 62q4 4 14 8t13 4q4 0 3 -12l-3 -9q-11 -15 -64.5 -78t-104 -97t-101.5 -33.5t-90.5 18.5t-75 54.5t-73 78.5t-73.5 39q7 23 19 36.5t32.5 26.5t67.5 20q36 1 66.5 -8.5t80 -36t90.5 -6.5t50 72
q0 3 3 6q-23 -11 -54 -14q-25 0 -45 9t-35 22.5t-26 29.5q-9 15 -13 29q-4 -17 -15 -32q-9 -15 -24.5 -27t-32.5 -19t-37 -7q-12 0 -30 5.5t-39.5 19t-35 41.5t-9.5 71q3 38 20 68t41 52t52 34t48 12q24 0 42.5 -14t23.5 -23q0 30 -8 59t-16 36.5t-47 10.5h-124l-5 13l34 75
h397q-13 41 -16 52.5t1 27.5q21 60 40.5 59.5t57 -24.5t64 -25t26.5 -7v-3q-35 -37 -95 -63q-38 8 -61 24q-11 2 -6 -11.5t12 -31.5zM-80 -263q-4 22 -16.5 39.5t-31 31t-40 21.5t-39.5 8t-35 -9.5t-17 -41.5q0 -24 9 -45.5t23 -39.5t33.5 -28t39.5 -10q28 0 52 17.5
t22 56.5zM-292 -261q0 24 -13.5 43t-31.5 31t-35 18t-28 6q-12 0 -21.5 -1t-18 -6.5t-14.5 -17.5t-6 -33q0 -27 9.5 -52t24 -42.5t35.5 -19.5t36 -2q28 0 45.5 21.5t17.5 54.5z" />
    <glyph glyph-name="afii59712" unicode="&#xe20;" 
d="M33 -252q-2 -90 -34 -138t-76.5 -69.5t-87.5 -8t-67 29.5t-50 24t-58 4t-40.5 -8.5t-8.5 -7.5q35 -5 63 -24.5t61 -51t66 -49.5t77 -22q31 -3 55 2.5t47 17.5t69.5 61.5t56.5 61.5q3 4 14 9t13 5q5 0 2 -11l-2 -12q-11 -15 -65.5 -77t-104 -97.5t-101.5 -34t-90 20
t-74.5 54t-74 77.5t-72.5 39q5 23 18 37t33.5 27.5t67.5 17.5q35 4 66 -6t80.5 -36t91 -6t55.5 50.5t8 59.5t-12.5 50.5t-32 52t-68.5 36.5t-57 -17t2 -42t41 -31q26 -15 65 -30q0 -6 -7.5 -15.5t-17 -18.5t-20 -15t-14.5 -6q-22 3 -43.5 11t-40.5 22t-31.5 32.5t-12.5 38.5
q3 36 40.5 81t83.5 65q37 16 37 31q16 34 -37 40h-109q-16 0 -41 -9.5t-22 -25.5t16.5 -27.5t54.5 -18.5q0 -2 -8.5 -13t-20 -22.5t-22.5 -20t-17 -8.5q-7 0 -16.5 2.5t-18 10.5t-14.5 19t-8 31q-3 39 13.5 72t67.5 81l18 19h225l14 -11l-21 -46q7 -6 11.5 -24.5t-7.5 -35
t-33 -37.5q48 -7 86.5 -49t38.5 -111z" />
    <glyph glyph-name="afii59713" unicode="&#xe21;" 
d="M-31 43q-35 -80 -60.5 -163t-89.5 -263l-28 -2l47 154q-105 49 -157 49q-27 0 -43 -13q-4 -3 -9.5 -11.5t-5.5 -20.5q0 -25 2.5 -61.5t42.5 -103.5q2 -6 3.5 -18.5t1.5 -14.5t-3.5 -7.5t-8.5 -5.5q-3 0 -6 4q-65 65 -79 102t-14 64q0 37 12 66t37 50q28 20 56.5 31.5
t61.5 11.5q12 0 27.5 -2.5t31.5 -6.5t34 -10t35 -13l29 116h-291l-8 12l36 76h338l8 -7v-13zM-117 -376q-1 -63 -23 -89.5t-61.5 -38.5t-73 -6t-75 29t-82.5 31t-75 0q47 -22 70.5 -41.5t45 -44.5t55 -41t91.5 -20h29q59 0 94.5 18t58.5 41t74 78l22 -10q-52 -75 -112 -124
t-94.5 -66.5t-92.5 -20.5l-41 3q-43 4 -78 25t-64.5 50.5t-54 72.5t-59.5 54q24 57 76 57q32 0 64.5 -6t74 -24.5t68.5 -28t55 -3t51.5 28t17.5 71.5q17 35 39 5z" />
    <glyph glyph-name="afii59714" unicode="&#xe22;" 
d="M27 -253q0 -8 -5.5 -17t-12 -17.5t-10.5 -13.5l-4 -5q-38 0 -79 -4t-81 -10t-81 -20t-90 -53q-11 -6 -16.5 -11.5t-9.5 -5.5q-10 0 -10 15q0 58 -11 392l41 65h184q15 0 33.5 -7t37 -19t31 -27t12.5 -37q0 -1 -1.5 -5.5t-1.5 -8.5q-8 -23 -31.5 -50t-64.5 -48l125 -87h41
q20 0 4 -26zM-31 -375q-1 -63 -22 -89.5t-61 -38.5t-73.5 -6t-75 29t-84 31t-73.5 0q47 -21 71 -40t45 -45t55 -42t92 -20h27q61 0 95.5 18t58 41t75.5 79l22 -10q-55 -75 -113.5 -124.5t-93.5 -67t-95 -21.5l-39 4q-43 4 -77.5 25.5t-64 50.5t-54.5 73t-60 54q24 56 78 56
q29 0 62 -6t74.5 -24t69 -27t55.5 -3.5t51 27t19 72.5q16 34 36 4zM-51 -231q-18 10 -40.5 29t-50.5 30.5t-68.5 11.5t-129.5 5l-6 -205q55 34 92 56.5t74 41t129 31.5zM-114 -60q0 16 -27 27.5t-87 11.5h-84l-15 -13l-9 -17l-4 -66l66 -5l82 -8h3q35 0 53 20t22 45v5z" />
    <glyph glyph-name="afii59715" unicode="&#xe23;" horiz-adv-x="49" 
d="M-47 -190q7 -127 -73.5 -160.5t-121.5 -16.5t-82.5 23.5t-75.5 -1.5q47 -21 71.5 -39t45.5 -37.5t53.5 -28t86.5 -7.5q44 7 79.5 25t58.5 42t76 79l21 -10q-53 -74 -112.5 -124t-94 -66.5t-95.5 -16.5t-111.5 33t-75 72.5t-59.5 51.5q27 57 78 57q31 0 63 -4t73.5 -17.5
t95.5 6t48 68.5l-1 23q0 59 -90 82q-9 0 -31.5 -0.5t-44.5 -18t-22 -24.5q6 -23 15.5 -64t-12.5 -39q-6 0 -52.5 136.5t-57.5 140.5l41 89l302 -2l4 -22l-35 -65h-245l31 -146q6 21 12 35t17.5 27.5t31 23t45.5 9.5h16q67 -7 97 -36.5t30 -77.5z" />
    <glyph glyph-name="afii59716" unicode="&#xe24;" 
d="M-44 -383q1 -10 -3 -31v-19q0 -1 -1 -5l-3 -1q-1 -2 -1 -3q-11 -41 -53 -60.5t-81 -7t-62.5 25t-48.5 20t-54 4t-36.5 -7.5t-9.5 -6q34 -5 60 -21t57 -42.5t61 -42t72 -20.5q29 -1 51 3t43.5 14.5t65 52.5t53.5 54q1 3 12.5 6.5t12.5 3.5q5 0 1 -10l-1 -8
q-9 -13 -59.5 -66t-97.5 -82.5t-95 -29t-84 17t-70.5 46t-69.5 65.5t-68 33q5 19 18 31t31 23t62 15q35 4 64 -5.5t74.5 -31t85.5 -5.5q36 17 47 50q-27 25 -47 47q-25 24 -78 55t-113.5 27t-71 -10t-32.5 -8q-8 -6 -8 6q48 84 79 92q10 1 20 6t18.5 12.5t22.5 16t26 14.5
q-19 -3 -44.5 -0.5t-44 16t-27.5 36t6 48.5l23 39q-38 1 -38 4l2 1l36 83h315l-20 -80v-365h3zM-69 -383q0 30 -7 151.5t-10 128.5q-28 -29 -56 -44.5t-60.5 -23.5t-50 -18t-28.5 -26q2 0 5.5 0.5t4.5 0.5q55 0 86 -20t45.5 -38t70.5 -111zM-86 -63q0 3 -1 9.5t-4 13
t-8.5 10.5t-10.5 4h-173q-39 0 -42 -18q0 -51 46.5 -62t92 -3t58.5 13.5t27.5 13.5t14.5 19z" />
    <glyph glyph-name="afii59717" unicode="&#xe25;" horiz-adv-x="52" 
d="M-73 -361q6 42 -14 69t-61 48t-99 22q-67 0 -110 -7t-74 -20q0 16 4.5 33t8.5 30.5t8.5 23.5t7.5 12q0 4 12.5 39t23.5 49.5t24 27.5q3 4 -15 4h-24q-13 0 -8 10l34 72q1 7 4.5 9t8.5 3l302 -1l8 -20l-34 -68l-9 -8h-182q-27 -1 -57.5 -15.5t-51.5 -79.5q0 -2 1.5 -3.5
t1.5 -2.5q8 2 37.5 6.5t85.5 4.5q74 0 119.5 -30.5t69 -85.5t16.5 -118q0 -30 -20 -58t-63.5 -46t-86 -3t-66.5 30.5t-51 23.5t-57.5 5t-39 -8.5t-8.5 -9.5q33 -3 62 -23t61.5 -51t65.5 -49t78 -24q29 -2 53 3t48 17.5t70.5 62t55.5 62.5q1 3 13 7t14 4q5 0 2 -11l-2 -10
q-10 -15 -64 -78t-104 -97.5t-102 -33.5t-90 20t-75 55t-74.5 78t-72.5 37q6 23 19 37.5t33 27.5t67 20q37 1 67.5 -8.5t79.5 -36.5t96.5 -10t52.5 63z" />
    <glyph glyph-name="afii59718" unicode="&#xe26;" horiz-adv-x="52" 
d="M-125 -431q-6 31 -18.5 45.5t-45 23t-50.5 6.5t-40 -15q12 -8 40 -60q6 -11 6 -15q0 -6 -6 -6q-8 0 -16 6q-17 15 -34 25.5t-37.5 16t-42.5 8.5t-52 3h-19q3 33 17.5 52t25.5 19l7 -3l24 46h1v3q2 0 2 3q0 1 -7 1.5t-14 1.5t-14 1.5t-7 5.5q0 3 3 7l29 49q0 -2 19 -2h133
q48 0 64 1t47 1q-20 20 -44 32q-34 12 -79.5 15t-49.5 3q-46 0 -81.5 -7.5t-59.5 -17.5q0 14 2 27t7 25t9 19.5t8 9.5q0 2 9 27t32 56q-13 0 -32 -1t-16 10l28 61q7 7 16 11h303l14 -4l-4 -14l-32 -54l-8 -8h-209q-26 0 -37.5 -14t-26.5 -43q-5 -13 -5 -16q8 6 35 8.5
t78 2.5q85 0 124 -22t58 -62t28.5 -105t19.5 -155q0 -8 -2.5 -9.5t-6.5 -1.5t-9.5 1.5t-5.5 7.5q-8 56 -21.5 112t-30.5 90q-7 -6 -36 -49h-139q-13 -1 -38.5 -4.5t-39.5 -22t-14 -26.5h1q15 -2 33 -9.5t33 -23.5q42 52 111.5 51t95.5 -25.5t26 -58.5q2 -56 -15 -93.5
t-54.5 -55t-73.5 -6.5t-55.5 24.5t-42.5 19.5t-48.5 2.5t-33.5 -7.5t-8 -7q31 -1 54.5 -17t51 -41t55 -39.5t64.5 -18.5q25 -2 45.5 2t40.5 14t58.5 50t46.5 49q3 3 12 6t10 3q6 0 2 -9l-2 -8q-8 -12 -53.5 -61.5t-87.5 -77t-85 -26t-76.5 15.5t-63.5 42.5t-61.5 61.5
t-61.5 31q4 17 15.5 29t28.5 22t57 14q30 2 56.5 -5t66.5 -28.5t75.5 -6t23.5 80.5z" />
    <glyph glyph-name="afii59719" unicode="&#xe27;" horiz-adv-x="53" 
d="M-200 -199q-122 39 -163.5 16t-32 -60t58.5 -52t91 4.5t46 91.5zM-66 -327q-3 -64 -23.5 -92t-64 -45t-85.5 -3.5t-66 29.5t-51 24t-58 4t-39 -8.5t-8 -7.5q34 -5 62.5 -24.5t60.5 -51t65 -49.5t77 -22q31 -3 55 2.5t48 17.5t70 61.5t56 61.5q2 4 13.5 9t12.5 5
q5 0 1 -11l-1 -12q-9 -15 -63.5 -77t-104 -97.5t-102 -34t-90.5 20t-75 54t-74.5 77.5t-71.5 39q4 23 17.5 37t34.5 27.5t66 17.5q38 4 68 -6t79 -36t96.5 -9.5t53.5 61.5q-3 47 -21.5 83t-43.5 60q-4 -22 -8 -40t-24.5 -40.5t-45.5 -34.5t-72.5 -14t-88.5 34.5t-37 76.5
t35.5 90.5t97.5 62.5q90 0 111 -7q-5 29 -15.5 40.5t-21 14t-22.5 2.5h-157l-9 12l40 85h330l26 -1l-3 -22l-33 -65l-9 -9h-102v-70q30 -4 68 -51.5t46 -168.5z" />
    <glyph glyph-name="afii59720" unicode="&#xe28;" 
d="M-102 -342q-52 50 -132 79.5t-160 29.5q-27 0 -54.5 -4t-55.5 -11q5 31 10 50t10 30.5t10.5 16.5t12.5 5q0 13 22.5 52t30.5 47q10 6 13 13q-29 1 -37 1q-17 0 -17 8l2 4q2 3 3 4l38 81h206v-16l-43 -81h-64q-25 -4 -46 -15.5t-48.5 -40.5t-27.5 -43q0 -1 1 -2v-2
q14 2 26.5 3t27.5 1q32 0 67 -8t70.5 -29t138.5 -141q0 50 -14 149.5t-56 143.5l43 81h97l-5 -21q-17 -37 -36 -72v-313q-5 -66 -25.5 -94.5t-63.5 -45.5t-86 -3.5t-66.5 30t-51 24.5t-57.5 4t-38 -9t-8 -7q34 -6 62.5 -25.5t60 -51t64.5 -49.5t78 -23q30 -1 54 3.5t48 16.5
t70 62t56 63q3 4 13.5 8.5t13.5 4.5q4 0 1 -12l-1 -11q-11 -15 -65 -77t-104 -97t-101.5 -34.5t-90.5 19.5t-75.5 55t-74 77.5t-71.5 39.5q5 22 18 36.5t33.5 27t67.5 18.5q36 3 66.5 -6.5t80 -36.5t106 -7.5t53.5 100.5z" />
    <glyph glyph-name="afii59721" unicode="&#xe29;" 
d="M-118 -473q-4 40 -20 57.5t-51 26t-55 6.5t-44 -15q13 -10 45 -62q4 -13 4 -16q0 -7 -4 -7q-8 0 -19 7q-17 16 -35 26.5t-41 17t-48.5 8t-57.5 1.5h-20q3 38 19 57.5t29 19.5l6 -3l27 47l2 2l1 2v3q0 1 -7 1t-16 1t-14 3t-5 6t1 8l30 51q0 -2 22 -2h236q32 2 53 2
q-53 25 -84 34q-32 11 -78 19t-124 8t-129 -20q6 25 9.5 43t8.5 28t11 12.5t13 5.5l-2 1q11 27 17 40t11 19t5.5 9.5t0.5 4.5q-1 0 -3 1h-5q-7 0 -17.5 -0.5t-18.5 -0.5q-4 0 -6 3.5t-2 7.5q0 1 1 3v1l41 69h404l9 -4v-15q-18 -22 -40 -53v-216h3l-29 -69h-200
q-12 -1 -39 -4.5t-43.5 -23t-16.5 -27.5h2q16 -3 36 -11t37 -24q42 55 118 54.5t105 -24t30 -79.5q4 -55 -20 -88.5t-67 -50.5t-86 -3t-67 29.5t-50.5 23.5t-56.5 5t-38.5 -8.5t-11.5 -9.5q36 -3 63.5 -23t60.5 -52t66.5 -49.5t76.5 -22.5q31 -2 55 3t47.5 17t69.5 62.5
t56 62.5q4 4 14 8.5t11 4.5q6 0 5 -13l-5 -10q-9 -15 -62.5 -77t-104 -97.5t-101.5 -34.5t-90 20t-75.5 54.5t-73.5 78t-73 38.5q7 22 19.5 36.5t32.5 27.5t66 20q37 1 67.5 -8.5t80 -36.5t91 -4.5t37.5 57.5zM-82 -206q-4 43 -18 108t-41 77h-197q-20 -4 -38.5 -12t-27 -18
t-13.5 -17.5t-5 -17.5l1 -4q13 3 51 1.5t68.5 -4t67 -12t152.5 -101.5z" />
    <glyph glyph-name="afii59722" unicode="&#xe2a;" horiz-adv-x="49" 
d="M-99 -366q-67 70 -90.5 91t-47.5 38q-19 16 -44 38q-2 -15 -11 -37q-8 -20 -26 -40t-40.5 -32.5t-51.5 -12.5q-46 0 -75.5 24t-26.5 68q0 34 9.5 61t24 48.5t30.5 35t30 13.5q28 0 48 -3.5t32 -7.5q0 11 -12 32t-26 22.5t-24 1.5h-87l-9 13l40 76h235l6 -7v-12l-30 -62
l-6 -8h-57v-61q38 -11 75 -42t135 -197q0 22 -2 43.5t-14 117.5t-23.5 123.5t-30.5 30.5l35 74h98l4 -19q-8 -15 -38 -85v-332q-6 -30 -26 -58.5t-63 -46t-86.5 -3t-67.5 30.5t-50.5 24t-56.5 4t-38 -8.5t-11 -8.5q36 -4 63.5 -24t60.5 -51.5t66 -49t77 -23.5q31 -1 55 4
t47.5 17t69 61t56.5 63q4 3 14 7.5t11 4.5q6 0 4 -11l-4 -11q-9 -14 -62.5 -77t-104 -97.5t-101.5 -33.5t-90.5 19.5t-75.5 54t-73.5 78t-72.5 38.5q6 23 18.5 37.5t33 27.5t66.5 18q37 3 67.5 -6.5t80 -36.5t107.5 -8t56 72zM-300 -187q-40 22 -68.5 29.5t-58 4.5
t-35.5 -7.5t-10 -18.5q0 -11 4.5 -30.5t20 -31.5t34 -17.5t35.5 -5.5q23 0 38 5.5t23.5 17.5t12.5 23.5t4 30.5z" />
    <glyph glyph-name="afii59723" unicode="&#xe2b;" 
d="M-99 -180q-18 -33 -34.5 -47t-34 -25t-32.5 -11q-28 0 -55.5 5t-48.5 20t-35 42.5t-14 70.5q-5 -16 -10.5 -35.5t-5.5 -37.5q0 -27 5.5 -54.5t10 -55t11.5 -67.5q0 -8 -2.5 -11t-8.5 -5q-21 45 -44 74t-58.5 66.5t-74.5 48.5t-65 15q10 38 29.5 59.5t35.5 24.5h7
q59 -19 85 -53.5t21.5 -65t43.5 -90.5q-16 47 -21.5 81.5t-5.5 59.5q0 38 10 63t20 43q31 59 80 94t116 35q20 0 44 -4t39 -12l44 11q4 0 6 -2t9 -10l-10 -415q-5 -59 -24.5 -87.5t-62.5 -46t-85.5 -2.5t-67 30.5t-50.5 23.5t-57.5 4t-39.5 -9t-9 -9q34 -4 62.5 -23.5
t61.5 -51t66 -49t76 -23.5q31 -1 55.5 3.5t47 17t69.5 62t56 62.5q3 2 14.5 7t12.5 5q5 0 3 -11l-3 -11q-10 -15 -64 -77.5t-104 -97t-102 -34t-90 19.5t-75 54t-74 78.5t-73 37.5q6 23 18.5 38t33 28t67.5 18q35 3 66 -6.5t80.5 -36.5t96.5 -10t55 87zM-102 -84
q0 35 -25 55t-77 20q-36 0 -59.5 -6t-36 -18t-17 -29t-4.5 -39q0 -18 11.5 -34.5t32.5 -28.5t45.5 -18t50.5 -6q51 0 65 26t14 78z" />
    <glyph glyph-name="afii59724" unicode="&#xe2c;" horiz-adv-x="49" 
d="M-480 47q7 8 9 10t6 2l44 -11q13 8 38 12t45 4q67 0 115.5 -35t80.5 -94q8 -18 18.5 -43t10.5 -63q0 -25 -6 -59.5t-19 -61.5q47 40 42 70.5t21.5 65t83.5 53.5h9q14 -3 34.5 -24.5t30.5 -59.5q-27 -4 -66 -15t-74 -48.5t-59.5 -62t-47.5 -68.5q-4 0 -6.5 3t-2.5 12
q8 33 9.5 42.5t5.5 26.5t8 44.5t4 54.5q0 18 -4 37.5t-10 35.5q0 -43 -14 -70.5t-35 -42.5t-48 -20t-55 -5q-15 0 -33 11t-35 25t-34 47l-27 -239q0 -6 -22 -6q-1 0 -4.5 1t-3.5 5zM-412 -84q0 -52 13 -78t67 -26q25 0 50.5 6t46 18t32 28.5t11.5 34.5q0 22 -4 39t-16.5 29
t-36 18t-59.5 6q-54 0 -79 -20t-25 -55zM-122 -398q-2 -62 -23 -89t-61.5 -39t-74 -5t-75 29.5t-82.5 30t-74 -0.5q48 -19 71 -39t45 -45t55.5 -41.5t91.5 -21.5h28q59 0 94.5 19t59 41t74.5 79l21 -9q-52 -76 -111.5 -126t-94 -67.5t-93.5 -18.5l-41 1q-43 5 -76.5 26
t-65 50t-56 73t-59.5 54q25 56 78 56q31 0 63.5 -5.5t74 -24t69 -27.5t57 -4t50.5 27.5t17 72.5q17 34 38 4z" />
    <glyph glyph-name="afii59725" unicode="&#xe2d;" 
d="M-92 -230q-5 47 -23 69.5t-55 34t-57 7.5t-43 -19q13 -12 45 -75q5 -16 5 -18q0 -9 -5 -9q-8 0 -18 10q-19 17 -38 29.5t-42 20.5t-48.5 10t-57.5 2h-20q3 43 18 66t29 23l7 -4l29 57l1 1q2 3 2 5t-7.5 2.5t-17 2t-16 3t-6.5 6.5q0 4 2 8l34 60h318l12 -11l-30 -69
l-190 -2q-14 0 -42 -4t-44 -25.5t-16 -33.5q16 -3 37 -13t38 -27q44 63 121.5 62.5t102 -29.5t28.5 -67v-54q-8 -54 -27.5 -82t-62.5 -46t-85.5 -3t-67 31t-50.5 24t-57.5 4t-39.5 -8.5t-9 -8.5q34 -4 62.5 -24t61.5 -51.5t66 -49t76 -24.5q31 -1 55.5 3.5t47 17.5t69.5 62
t56 63q3 3 14.5 8t12.5 5q5 0 3 -12l-3 -10q-10 -15 -64 -78.5t-104 -97.5t-102 -33t-90 19.5t-75 54.5t-74 78t-73 39q6 22 18.5 36.5t33 27t67.5 18.5q35 2 66 -7.5t80.5 -36t96.5 -9.5t45 71z" />
    <glyph glyph-name="afii59726" unicode="&#xe2e;" 
d="M-64 -369q-7 -85 -34 -117.5t-71 -47.5t-69 -1.5t-49 28.5t-50 23t-55.5 4.5t-38.5 -9.5t-9 -7q34 -4 62 -23t75 -52t90 -38q29 -2 52 3t46.5 11.5t69 45t54.5 50.5q4 3 15 7t12 4q5 0 3 -9l-3 -11q-9 -14 -62.5 -65t-103.5 -78t-99.5 -26.5t-105.5 38.5t-93 77.5
t-73 37.5q6 20 19 34t33 25t66 16q36 3 65.5 -6t61.5 -34t77.5 -8.5t43.5 66.5q5 48 -6 69t-43 28t-50.5 6t-37.5 -13q10 -9 39 -57q5 -9 5 -12q0 -6 -5 -6q-8 0 -16 6q-17 12 -33.5 22.5t-37 16t-42 7.5t-51.5 2h-18q3 32 17 49t25 17h6l25 40q0 2 1 3q2 0 2 1q0 3 -7 3
t-14 0.5t-14 1.5t-7 6q0 3 3 5l29 46q0 -1 19 -1h130q48 0 63 0.5t44 0.5q-16 22 -41 31q-34 13 -78 15.5t-50 2.5q-44 -1 -78.5 -8t-59.5 -16q0 13 2 25t7 23t9 18t8 9q0 3 9 25.5t31 51.5h-31q-19 0 -16 10l28 55q7 7 15 11h298l13 -4l-4 -14l-31 -48l-6 -7h-163
q-20 0 -45 -0.5t-36 -13.5t-26 -39l-4 -15q8 3 34 6t76 3q83 0 122.5 -20.5t57 -57.5t27 -98t19.5 -146q0 -7 -2.5 -8t-6.5 -1t-8.5 1t-4.5 8q-8 50 -22 102.5t-32 84.5q-4 -5 -35 -45h-134q-14 -3 -38.5 -5.5t-38.5 -19t-14 -22.5q13 -6 32 -12t34 -21q39 48 107 48
t94.5 -23t26.5 -65z" />
    <glyph glyph-name="afii59727" unicode="&#xe2f;" 
d="M-74 -487q-4 -37 -21.5 -55.5t-55 -28.5t-73 -1.5t-56 18t-43.5 14.5t-50 3t-33.5 -5.5t-7.5 -4.5q31 -2 54.5 -15.5t52 -32.5t56.5 -29.5t66 -13.5q25 -3 46 0.5t41 11t59.5 38.5t47.5 39q2 2 12.5 5t11.5 3q3 0 2 -6l-2 -8q-9 -9 -55.5 -48t-89 -60t-85.5 -29
t-86.5 7.5t-66 42t-54.5 52.5t-61 22q4 15 14.5 24t28 17t59.5 12q29 1 55.5 -4t68.5 -23t83 -7t47 41q-4 28 -19 49t-37 37l-6 -24q-3 -12 -22.5 -25t-40.5 -20.5t-61.5 -9.5t-75 20.5t-31 47.5t29.5 56.5t84 38.5q75 0 96 -6q-6 14 -14.5 20.5t-17.5 9t-19 2.5h-135l-9 8
l37 56h211v2l6 9q26 45 13 72t-50 38.5t-57 7.5t-43 -19q13 -12 45 -75q5 -16 5 -18q0 -9 -5 -9q-8 0 -18 10q-19 17 -38 29.5t-42 20.5t-48.5 10t-57.5 2h-20q3 43 18 66t29 23l7 -4l29 57l1 1q2 3 2 5t-7.5 2.5t-17 2t-16 3t-6.5 6.5q0 4 2 8l34 60h318l12 -11l-30 -69
l-190 -2q-14 0 -42 -4t-44 -25.5t-16 -33.5q16 -3 37 -13t38 -27q44 63 121.5 62.5t101.5 -44t-26 -132.5q0 -8 -4 -11h29l22 -1l-1 -12l-30 -47l-6 -4h-88v-38q25 -3 57 -25.5t41 -111.5zM-190 -408q-105 24 -140 10.5t-27 -37t50.5 -31.5t78.5 3t38 55z" />
    <glyph glyph-name="afii59729" unicode="&#xe30;" 
d="M-118 64h90l-5 -16q-15 -27 -33 -54v-242l19 -1l-1 -12l-30 -47l-6 -4h-88v-38q25 -3 57 -25.5t41 -111.5q-4 -37 -21.5 -55.5t-55 -28.5t-73 -1.5t-56 18t-43.5 14.5t-50 3t-33.5 -5.5t-7.5 -4.5q31 -2 54.5 -15.5t52 -32.5t56.5 -29.5t66 -13.5q25 -3 46 0.5t41 11
t59.5 38.5t47.5 39q2 2 12.5 5t11.5 3q3 0 2 -6l-2 -8q-9 -9 -55.5 -48t-89 -60t-85.5 -29t-86.5 7.5t-66 42t-54.5 52.5t-61 22q4 15 14.5 24t28 17t59.5 12q29 1 55.5 -4t68.5 -23t83 -7t47 41q-4 28 -19 49t-37 37l-6 -24q-3 -12 -22.5 -25t-40.5 -20.5t-61.5 -9.5
t-75 20.5t-31 47.5t29.5 56.5t84 38.5q75 0 96 -6q-6 14 -14.5 20.5t-17.5 9t-19 2.5h-135l-9 8l37 56h260q-57 44 -130 65q-75 20 -149 20q-26 0 -51 -2t-51 -7q6 23 10 38.5t8.5 23.5t10 11.5t11.5 3.5q0 11 20.5 40t29.5 35t12 10q-29 1 -37 1q-15 0 -15 6q0 1 2.5 3
t4.5 3l34 61h191v-11l-39 -62h-60q-23 -4 -44 -12t-45.5 -31t-24.5 -31v-3l2 -1q11 1 24 2.5t26 1.5q29 0 61.5 -6t65.5 -22.5t137 -117.5q-5 45 -20 122t-52 110zM-190 -408q-105 24 -140 10.5t-27 -37t50.5 -31.5t78.5 3t38 55z" />
    <glyph glyph-name="afii59728" unicode="&#xe31;" horiz-adv-x="49" 
d="M-39 -192q3 -150 -43 -214l23 -25l1 -27q-9 8 -11 12l-30 -11q-91 -26 -139.5 -6t-88 37.5t-73.5 9.5q47 -22 70 -45t47 -40.5t51.5 -25.5t88.5 4q44 9 79.5 28t58.5 41.5t76 78.5l21 -9q-53 -76 -112.5 -124.5t-94 -66.5t-95.5 -21.5t-108 33t-75 73t-63 48.5
q27 57 78 57q32 1 61 -10t74.5 -32.5t108.5 -11.5l36 9q-36 28 -48 35q-30 18 -70.5 30t-91.5 12q-104 -13 -129 -24q23 93 82 94.5t102 -11.5q40 -10 146 -89q19 41 23 118l-4 34q-11 52 -101 75q-9 0 -31.5 -0.5t-44.5 -18t-22 -24.5q6 -23 11 -48t-19 -22q-4 0 -46 120
t-53 124l41 89l302 -2l4 -22l-35 -65h-245l31 -146q6 21 12 35t17.5 27.5t31 23t45.5 9.5h16q67 -7 97 -36.5t38 -79.5z" />
    <glyph glyph-name="afii59730" unicode="&#xe32;" horiz-adv-x="611" 
d="M514 -34q-2 31 -12.5 108t-45.5 133h-95v-309q0 -7 -4 -6t-11 7t-8 11q-48 29 -97 45t-84 16q-32 0 -62 -3.5t-53 -5.5q0 9 2.5 25t5 32.5t6.5 30t10 18.5q5 72 48 133q2 0 4 4h-49q-9 2 -13 12l28 65q2 8 7.5 15t13.5 7h190q0 34 -14 55t-22 25h-145l-8 15l33 65
q2 9 6.5 13t11.5 4h349l8 -5v-16l-32 -66l-13 -10h-146v-80h229q9 -1 12 -7t-1 -20l-16 -71v-248q0 -96 -36.5 -129t-83.5 -39.5t-88 0t-77 22t-74 22t-74 -5.5l-16 -3q-5 -1 -8 -7q35 -2 59 -24.5t57 -50.5t94.5 -52t131.5 -1t115 69q64 73 76.5 90.5t21.5 31.5q7 9 13 9
t6 -9v-6q0 -5 -3 -7q-8 -16 -63 -89t-126 -129q-16 -15 -35 -26v-274q0 -9 -9 -15q-10 -1 -22 6q-103 62 -206 62q-10 0 -20 -1.5t-20 -2.5q48 105 217 203q-32 -5 -71 -2q-98 9 -145 61t-76 88t-67 40q14 43 45 61t75 18q38 0 79.5 -11.5t73.5 -21.5t70.5 -14t69 0
t49.5 19.5t26.5 34.5t7.5 91zM338 -59q-2 38 -16.5 140.5t-50.5 124.5h-83q-70 -55 -82 -89t-12 -40v-9q45 0 69.5 -4t53 -17t55 -37t66.5 -69zM397 -426q-48 -28 -82.5 -57t-55.5 -60q41 -11 75.5 -31.5t62.5 -47.5v196z" />
    <glyph glyph-name="afii59731" unicode="&#xe33;" horiz-adv-x="483" 
d="M464 -215v-12l1 -30l-1 1v-233q0 -11 -9 -15q-10 -2 -23 5q-103 60 -207 60q-9 0 -18.5 -1t-18.5 -2q52 109 234 215q-8 6 -17 14q-39 26 -82.5 50.5t-99 42.5t-117.5 14q-20 0 -46.5 -8.5t-48.5 -15.5q16 44 27.5 76.5t34.5 39.5q15 4 33.5 4.5t32.5 0.5q65 0 104.5 -20
t60.5 -39t127 -123l-3 36q-10 92 -26 157t-42 101.5t-64.5 49t-106 15t-108 -6.5t-66.5 -19q0 15 4 31.5t8.5 30.5t8.5 24t8 12q0 2 3 7.5t3 7.5q8 47 42 120l4 2q-37 3 -46 7l-7 7l35 74q4 10 7 13t6 3h314l9 -5v-16l-34 -66l-10 -10h-173q-39 0 -72.5 -31t-44.5 -90
q0 -4 1 -5.5t1 -2.5q8 6 38 8t86 2q73 0 118 -22t71 -72t41.5 -131.5t20.5 -185.5l6 -69h1zM422 -268q-45 -27 -80 -56t-55 -60q42 -11 75 -31t60 -49v196z" />
    <glyph glyph-name="afii59732" unicode="&#xe34;" horiz-adv-x="479" 
d="M369 -160q-8 38 -21.5 72.5t-54 55.5t-97.5 22q-71 0 -113.5 -6t-73.5 -20q0 15 3.5 32t9 30.5t10 23.5t8.5 13q0 4 11.5 38.5t25 64.5t19.5 39q3 4 -19 4h-29q-12 0 -7 9l31 72q8 13 16 14h165q0 18 -14.5 42.5t-34.5 37.5h-129l-9 15l34 69q9 13 13 13h339l8 -5v-16
l-36 -66l-4 -10h-142v-80h167l9 -6v-16l-34 -67l-10 -8h-238q-23 -5 -55.5 -38t-42.5 -85q0 -1 0.5 -3t0.5 -3q9 5 38.5 7.5t87.5 2.5q73 0 118.5 -30t64.5 -85t25.5 -96.5t10.5 -90.5l10 -314q0 -11 -8 -17q-9 -1 -23 6q-104 56 -206 52q-10 0 -20.5 -0.5t-21.5 -1.5
q50 110 230 221zM382 -308q-46 -29 -79.5 -59.5t-53.5 -62.5q43 -9 77.5 -27.5t63.5 -45.5z" />
    <glyph glyph-name="afii59733" unicode="&#xe35;" horiz-adv-x="476" 
d="M373 -225q-10 93 -29.5 144t-50.5 72q-2 -12 -5 -35t-20 -52.5t-41.5 -46.5t-68 -19t-86 23t-51 52.5t-6 67.5t40 93.5t110.5 56.5t97 -3q-6 29 -16.5 48.5t-21.5 24.5t-23 5h-173l-10 15l42 83h178q0 17 -8.5 42.5t-28.5 37.5h-133l-9 15l42 82h338l10 -5v-16l-34 -66
l-8 -10h-142v-80h188l5 -6v-16l-31 -65l-8 -11h-131v-91q45 -24 72 -68t35 -89t13 -122l19 -320q0 -12 -8 -16q-11 -3 -23 4q-106 57 -206 53q-10 0 -21 -1.5t-21 -2.5q50 112 224 222zM261 14q-89 54 -146 27t-47 -83t78 -69.5t91.5 23t23.5 102.5zM380 -264
q-47 -30 -80.5 -59.5t-52.5 -61.5q43 -10 76.5 -29t64.5 -46z" />
    <glyph glyph-name="afii59734" unicode="&#xe36;" horiz-adv-x="591" 
d="M442 304l15 -9l-38 -77l-8 -8h-233q-16 0 -25.5 -11t-36.5 -48.5t-29 -59.5q16 20 36 36.5t279 6.5q-11 -27 -27 -52.5t-32 -25.5q-22 0 -244 3q-3 -3 -8 -3h-6q-9 -28 -13 -39.5t-7 -26.5q61 1 112 0.5t92.5 -10.5t79 -38t69 -86.5t63 -113t27.5 -61.5q-7 -10 -10.5 -9
t-8.5 5t-14 17.5t-29 40.5q-17 19 -31 38v-237q0 -9 -11 -12q-9 -3 -20 3q-105 62 -207 62q-10 0 -20 -1.5t-19 -2.5q52 111 244 225q-12 11 -23 23q-24 23 -56 40t-90 23t-121.5 -3.5t-73.5 -14.5l20 85q7 28 10.5 52.5t10 62t22.5 67.5t29 61q1 4 -28.5 5.5t-28.5 6.5
l43 86h142q0 34 -14.5 53.5t-22.5 26.5h-120l-9 15l42 82h296l9 -5v-16l-32 -66l-9 -10h-116v-80h151q-13 42 -16 53.5t3 26.5q21 61 39.5 60.5t56 -24.5t64 -25t26.5 -8v-3q-35 -36 -94 -62q-39 8 -61 24q-12 2 -6 -10q2 -14 10 -32h7zM374 -240q-48 -28 -82 -57t-55 -60
q40 -11 74 -31t63 -47v195z" />
    <glyph glyph-name="afii59735" unicode="&#xe37;" horiz-adv-x="583" 
d="M549 140q-6 -95 -50 -141t-101.5 -54t-92.5 -2t-75.5 29t-82.5 31.5t-74 -0.5q46 -21 70 -41.5t45.5 -44.5t54.5 -40.5t94 -20.5h27q59 0 94.5 18.5t58 41.5t76.5 78l20 -11q-53 -74 -114 -123q-53 -47 -88 -66v-277q0 -12 -8 -14q-11 -2 -24 5q-105 59 -205 59
q-10 0 -20.5 -0.5t-20.5 -1.5q50 102 223 212q-19 -4 -43 -6l-40 4q-42 4 -77.5 25t-65 51t-55 72.5t-58.5 54.5q25 56 77 56q30 0 63.5 -6t74.5 -24t68.5 -27.5t79 -4t73 27.5t26.5 70q2 31 -8.5 60t-29.5 52t-46.5 35t-57.5 12q-34 0 -45.5 -9.5t-24.5 -23.5
q26 -22 37.5 -44.5t35.5 -83.5q0 -5 0.5 -8.5t0.5 -4.5q0 -4 -3.5 -7t-7.5 -3q-6 0 -13 10q-16 24 -41 46.5t-54 38.5t-59.5 25t-57.5 9q-29 0 -52 -13q0 29 18 59t42 47q8 31 19 57t25 52q2 0 2 3v4q0 1 -37 2.5t-37 6.5l1 2q3 2 3 5l38 82h343l9 -5v-16l-32 -66l-7 -10
h-202q-38 -17 -54 -35t-28 -38.5t-12 -43.5q62 -8 107 -57q8 32 22 52t30.5 31t34.5 14.5t35 3.5q42 0 74 -14t54.5 -36.5t35 -54t12.5 -66.5zM371 -261q-49 -27 -83 -56t-54 -60q40 -12 73.5 -32.5t63.5 -47.5v196z" />
    <glyph glyph-name="afii59736" unicode="&#xe38;" horiz-adv-x="572" 
d="M181 391q-11 -3 -10 -16.5t-1 -32.5q0 -23 -3.5 -49t-20.5 -45q-10 -11 -25 -18t-32.5 -13.5t-36.5 -13.5t-39 -20l10 47l13 42q5 10 17.5 16t25 10t22.5 8t13 7q8 8 16 19.5t9 25.5q1 13 -1.5 21t-7.5 13q-3 2 -13 2.5t-22 1t-29 4.5v11l29 61l7 9h432q6 -6 1 -15
q-16 -33 -28 -75l5 -303h32l8 -8v-12l-40 -85v-300l-1 -1v-252q0 -10 -8 -15q-10 -2 -24 5q-102 61 -204 61q-11 0 -21 -0.5t-20 -2.5q51 106 231 218q-5 4 -13 9q-24 18 -53.5 32.5t-65.5 25t-105 14.5l-61 -15q0 11 7.5 29t21 35t23 29.5t44.5 14.5l4 -2q17 15 26.5 32
t9.5 29v4q-6 10 -11 22t-17 21.5t-35 15t-73 5.5q-53 -10 -65 -43t16 -75.5t28 -57.5q0 -3 -0.5 -9.5t-0.5 -9.5l-54 -55l-19 -1q-19 40 -31 109t27 132.5t78 98.5v2h204l2 -12l-14 -55q20 -19 20 -39q0 -34 -15.5 -66.5t-32.5 -47.5q33 -6 57 -23.5t61 -58t56 -57.5
q0 58 -16 146.5t-63 129.5v27l37 56h37q-6 113 -46 296h-121q4 -26 15.5 -114t15.5 -161h-29q-10 58 -40 168.5t-53 113.5t-40 0zM471 -346q-47 -29 -81.5 -58t-54.5 -60q40 -10 73.5 -30.5t62.5 -48.5v197z" />
    <glyph glyph-name="afii59737" unicode="&#xe39;" horiz-adv-x="580" 
d="M518 -570q0 -10 -10 -15q-9 -2 -21 5q-105 61 -208 61q-9 0 -18.5 -0.5t-19.5 -2.5q51 107 233 219q-9 5 -17 9q-29 18 -64 33t-75 25.5t-71 8.5l-46 -3l-41 -6q0 11 8 28.5t21.5 35t30.5 32t38 14.5l4 -4q16 16 26.5 33.5t14.5 52.5t-36.5 43t-84 5.5t-54 -12.5t-19 -22
t-11.5 -33q7 -39 14.5 -60t25.5 -52v-20l-56 -54l-19 -3q-16 54 -24 119.5t27 125t72 95.5v5h205l2 -14l-20 -50q13 -15 18.5 -32.5t6.5 -31.5t-13 -44.5t-33 -46.5q38 -7 65 -27t64 -68t59 -66q0 58 -16.5 162t-63.5 132v29l37 57h35q0 35 -12.5 153t-34.5 140l-92 -2v-259
q0 -10 -3.5 -14t-6.5 -4q-1 0 -4.5 1.5t-4.5 2.5q-34 38 -95.5 59t-152.5 21q-15 0 -31 -3.5t-24 -3.5q-9 0 -9 6q5 48 17.5 73t24.5 25q7 31 15.5 55.5t21.5 35.5q0 4 -12 4.5t-17 2t-8.5 3.5t-3.5 5v6l32 64q5 11 18 17h437q9 -9 5 -17q-10 -35 -19 -58t-9 -38v-275h35
l8 -9v-13q-17 -37 -41 -88v-553zM323 145q-4 43 -12.5 138.5t-47.5 100.5l-113 3q-44 -35 -64 -99q103 0 237 -143zM476 -346q-48 -29 -81.5 -58t-53.5 -60q41 -10 74.5 -30.5t60.5 -48.5v197z" />
    <glyph glyph-name="afii62841.060" unicode="&#xe3d;" horiz-adv-x="585" 
d="M563 483l-46 -88h-15l-176 -108l150 -113h54l-26 -83h-469l24 83h35l181 113l-142 108h-71l32 88h469zM425 174l-126 93l-154 -93h280zM449 395h-264l118 -88z" />
    <glyph glyph-name="afii62841.061" unicode="&#xe3e;" horiz-adv-x="593" 
d="M31 329q0 43 16 73q15 25 49 59q33 23 71 23q17 0 26 -3q23 -5 36 -21t15 -34q2 -7 2 -15t2 -16q0 -8 1 -14l2 -12q10 23 26 40.5t34.5 32t38 21t39.5 6.5q12 0 20 -3q17 -2 33.5 -18.5t32.5 -38.5t29.5 -47t26 -52t23.5 -53.5t19 -47.5q1 -3 4 -11t3 -14q-2 -2 -5 -3
t-6.5 -1t-7.5 2t-5 2q-7 12 -14.5 24.5t-15.5 21.5q-3 7 -5.5 12.5t-5.5 10.5q-14 26 -27 48t-24 41q-20 33 -56 45l-1 1q-14 4 -27 4q-15 0 -29 -3t-25.5 -11.5t-19.5 -19t-12 -24.5q-3 -12 -3 -19q0 -5 1.5 -10.5t5.5 -8.5q4 -8 10 -18.5t14 -20.5l6 -2l-2 1q8 -1 19 1
t21.5 7t21.5 11.5t17 12.5q11 -9 24 -22t23 -29q-8 -12 -22 -25.5t-29.5 -24.5t-33.5 -16.5t-33 -0.5q-25 8 -42.5 28t-28 44.5t-17 48t-10.5 38.5q-2 8 -11 25.5t-25 31.5q-8 9 -18.5 15.5t-21.5 6.5q-15 0 -31 -16q-12 -6 -22.5 -25t-13.5 -38q-5 -15 -5 -26q0 -9 4 -17.5
t13 -13.5q24 -7 48 -7h30q2 -4 9 -15l10 -17q6 -10 11 -19l10 -18q-7 -4 -17.5 -6t-21.5 -2q-24 0 -47 6q-24 5 -36 15q-16 6 -26.5 15.5t-17 23t-11 30t-11.5 35.5q-1 2 -1 6t-3 10z" />
    <glyph glyph-name="afii59743" unicode="&#xe3f;" horiz-adv-x="583" 
d="M570 483l-46 -88h-15l-175 -108l149 -113h55l-27 -83h-469l24 83h35l182 113l-143 108h-71l32 88h469zM506 60q7 -7 3 -15q-12 -32 -27 -74v-516q0 -1 -4.5 -3.5t-7.5 -2.5q-4 0 -12 2.5t-8 5.5q-10 290 -19 378.5t-34 127.5h-99q4 -24 16 -289h-25q-32 269 -53 288
q-2 1 -9.5 2.5t-15.5 1.5h-35q-9 0 -10.5 -11.5t-1.5 -30.5q0 -25 -3.5 -49.5t-23.5 -45.5q-10 -9 -23.5 -16.5t-32.5 -13.5t-36.5 -13.5t-37.5 -22.5l8 49l12 42q7 10 19 16.5t25 9.5t23 7t21 11q17 26 17 42q3 13 -1 18t-8 9q-3 3 -12.5 3.5t-22 0.5t-23.5 0.5t-3 18.5
l28 57q4 9 12 13h404zM432 174l-126 93l-154 -93h280zM456 395h-264l118 -88z" />
    <glyph glyph-name="afii59744" unicode="&#xe40;" horiz-adv-x="559" 
d="M469 -25q8 -43 10 -77t4.5 -65.5t2.5 -65.5v-78q2 -62 -22 -35q-11 17 -34 36.5t-51 38t-61 28.5t-66 10h-19q-9 0 -17.5 -1.5t-26.5 -8t-20 5.5q4 38 12 63t13 26q22 96 42 127q0 4 -18.5 3.5t-24.5 -0.5h-24q-29 0 -37.5 -14.5t-18.5 -55t-20 -196.5l-8 -262
q0 -3 -1 -5.5t-8 -2.5q-19 0 -23.5 2.5t-4.5 5.5v494q0 39 35 80.5t51 41.5h358q14 -6 6 -22zM561 483l-46 -88h-15l-176 -108l150 -113h54l-26 -83h-469l24 83h35l181 113l-142 108h-71l32 88h469zM458 -304q-5 73 -20.5 143.5t-46.5 142.5h-87q-46 -15 -83 -126
q29 0 86 -18t151 -142zM423 174l-126 93l-154 -93h280zM447 395h-264l118 -88z" />
    <glyph glyph-name="afii59745" unicode="&#xe41;" horiz-adv-x="579" 
d="M517 111q-12 -25 -27 -60t-15 -79v-355q0 -16 -5 -16q-8 0 -18 15q-25 26 -57 59t-70.5 63.5t-79.5 51t-81 20.5q-15 0 -33.5 -0.5t-38.5 -5t-39 -11t-36 -14.5q10 33 17 53t12.5 31.5t10.5 17t8 8.5q11 48 17.5 84.5t16.5 48.5q2 0 5 4q1 2 1 3t-6.5 1t-15 1t-20 1
t-11.5 7q0 1 2 3t2 3l49 88h223l10 -5v-17l-36 -66l-6 -9h-93q-37 0 -70 -49.5t-43 -88.5q15 4 36.5 8t45.5 4q70 0 113 -27t86.5 -110.5t80.5 -121.5q-6 151 -22 243t-61 157l42 82h99l7 -5v-17zM18 329q0 43 17 73q15 25 49 59q32 23 71 23q16 0 26 -3q23 -5 35.5 -21
t15.5 -34q2 -7 2 -15t2 -16q0 -8 1 -14l2 -12q10 23 25.5 40.5t34.5 32t38.5 21t38.5 6.5q13 0 21 -3q17 -2 33.5 -18.5t32 -38.5t29.5 -47t26 -52t23.5 -53.5t19.5 -47.5q1 -3 4 -11t3 -14q-2 -2 -5 -3t-6.5 -1t-7.5 2t-5 2q-7 12 -14.5 24.5t-15.5 21.5q-3 7 -5.5 12.5
t-5.5 10.5q-14 26 -27 48t-24 41q-21 33 -56 45l-1 1q-15 4 -27 4q-15 0 -29.5 -3t-25.5 -11.5t-19 -19t-12 -24.5q-4 -12 -4 -19q0 -5 2 -10.5t6 -8.5q4 -8 10 -18.5t14 -20.5l6 -2l-2 1q7 -1 18.5 1t22 7t21.5 11.5t17 12.5q11 -9 23.5 -22t23.5 -29q-9 -12 -22.5 -25.5
t-29.5 -24.5t-33.5 -16.5t-33.5 -0.5q-24 8 -41.5 28t-28 44.5t-17.5 48t-11 38.5q-2 8 -10.5 25.5t-24.5 31.5q-8 9 -18.5 15.5t-21.5 6.5q-15 0 -32 -16q-11 -6 -21.5 -25t-13.5 -38q-6 -15 -6 -26q0 -9 4.5 -17.5t13.5 -13.5q23 -7 48 -7h29q2 -4 10 -15l10 -17
q6 -10 11 -19l10 -18q-7 -4 -17.5 -6t-22.5 -2q-23 0 -47 6q-23 5 -35 15q-17 6 -27 15.5t-16.5 23t-11 30t-12.5 35.5q-1 2 -1 6t-3 10z" />
    <glyph glyph-name="afii59746" unicode="&#xe42;" horiz-adv-x="593" 
d="M518 145q-13 -25 -41 -92v-398q0 -12 -10 -12q-9 0 -14 8q-37 39 -71.5 74t-69 61.5t-71 42t-77.5 15.5q-28 0 -69.5 -6t-77.5 -25q12 32 18 52.5t12 32t11 17.5t7 7q0 52 19 85t32 61q-34 2 -40.5 4.5t-6.5 5.5q0 1 1 3t1 3l41 83h216l11 -7v-15l-37 -66l-6 -9l-101 2
q-41 -8 -77.5 -56.5t-25.5 -83.5q15 5 35.5 8t45.5 3q23 0 42.5 -3t37.5 -8q100 66 121.5 83t21.5 40q-7 21 -26 28l41 84h99l8 -7v-15zM34 329q0 43 16 73q15 25 49 59q33 23 71 23q17 0 26 -3q23 -5 36 -21t15 -34q2 -7 2 -15t2 -16q0 -8 1 -14l2 -12q10 23 26 40.5t35 32
t38 21t39 6.5q12 0 20 -3q17 -2 33.5 -18.5t32.5 -38.5t29.5 -47t26 -52t23.5 -53.5t19 -47.5q1 -3 4 -11t3 -14q-2 -2 -5 -3t-6.5 -1t-7.5 2t-5 2q-7 12 -14 24.5t-16 21.5q-3 7 -5.5 12.5t-5.5 10.5q-14 26 -27 48t-24 41q-20 33 -56 45l-1 1q-14 4 -26 4q-16 0 -30 -3
t-25.5 -11.5t-19.5 -19t-12 -24.5q-3 -12 -3 -19q0 -5 1.5 -10.5t5.5 -8.5q4 -8 10 -18.5t14 -20.5l6 -2l-2 1q8 -1 19 1t21.5 7t21.5 11.5t17 12.5q11 -9 24 -22t23 -29q-8 -12 -22 -25.5t-29.5 -24.5t-33.5 -16.5t-33 -0.5q-25 8 -42.5 28t-28 44.5t-17 48t-10.5 38.5
q-2 8 -11 25.5t-25 31.5q-8 9 -18.5 15.5t-21.5 6.5q-15 0 -31 -16q-12 -6 -22.5 -25t-13.5 -38q-5 -15 -5 -26q0 -9 4 -17.5t13 -13.5q24 -7 48 -7h30q2 -4 9 -15l10 -17q6 -10 11 -19l10 -18q-7 -4 -17.5 -6t-21.5 -2q-24 0 -47 6q-24 5 -36 15q-16 6 -26.5 15.5t-17 23
t-11 30t-11.5 35.5q-1 2 -1 6t-3 10zM453 -314q0 41 -4 85.5t-37 249.5q-24 -24 -34 -33.5t-43.5 -32.5t-54.5 -37q43 -25 65.5 -53.5t55 -90.5t52.5 -88z" />
    <glyph glyph-name="afii59747" unicode="&#xe43;" horiz-adv-x="642" 
d="M30 508q2 26 45 176q33 123 107 146q7 1 12 1h10q32 0 59 -28.5t50 -83.5q1 -10 3 -19t2 -20q1 -2 1 -3v-1q2 -8 2 -17q0 9 1 17l1 9q0 8 2.5 17.5t3.5 17.5q47 119 114 119q10 0 20 -1q40 -14 68 -51.5t45 -101.5h-2q25 -78 36 -123.5t14 -55.5l-22 -21q-13 40 -39 94
q-44 112 -138 157q-19 11 -31 11q-25 0 -32 -39q-2 -13 -2 -23q0 -35 29 -55q5 -3 9 -5t6 -2q8 -3 15 -3q17 0 33 19l3 -4q-34 -97 -82 -98q-50 31 -52 102q-1 -31 -13 -55q-12 -26 -37 -39q-19 0 -37.5 20t-34.5 61q8 -7 15.5 -9.5t13.5 -2.5q9 0 16 1q3 0 7 2t9 5
q34 21 34 63q0 11 -4 24q-8 44 -38 44q-6 0 -15.5 -1.5t-17.5 -6.5q-47 -25 -81.5 -65.5t-56.5 -98.5q-14 -23 -23.5 -45t-17.5 -40z" />
    <glyph glyph-name="afii59748" unicode="&#xe44;" horiz-adv-x="726" 
d="M673 481q0 -32 -1 -68.5t-4 -72.5v-19q0 -31 0.5 -61t2.5 -59q2 -65 13 -126q7 -30 15 -57.5t19 -50.5l-67 -74q-9 23 -18 52t-17 58q-8 31 -13.5 61.5t-6.5 63.5q-2 8 -2.5 16t-0.5 17q-2 27 -4.5 51.5t-4.5 48.5q-2 18 -2 35v92q-16 -9 -32 -17t-33 -17v-347l-123 -76
l-174 59v362q-15 12 -27.5 18t-28.5 2q-26 -4 -44 -20v-342l-99 -47v416l132 102h165v-434l50 -14q25 -7 49 -13v390l121 71h135zM369 620q-20 2 -41 9.5t-39.5 20t-30 32t-11.5 44.5v8q0 5 1 8v-1q10 44 40 82q32 38 85 38q21 0 41.5 -8t37 -22.5t27.5 -32.5t11 -40
q0 -51 -38 -88q-37 -35 -82 -50h-1zM364 493q-61 0 -110.5 30.5t-82.5 80.5l45 56q3 -5 6 -6l2 -3q3 -1 4 -4q14 -12 28.5 -27.5t31.5 -22.5q23 -9 46 -17t45 -8q17 0 39 7.5t45.5 19t43 25t32.5 27.5q12 0 12 -9q0 -5 -4 -12.5t-12 -14.5q-1 -3 -3 -6t-3 -6
q-11 -16 -27 -34.5t-37 -34.5t-42.5 -27t-43.5 -14h-15zM341 797q-20 0 -35.5 -7.5t-15.5 -24.5q1 -18 11 -32.5t25 -26t33 -18t34 -8.5q18 0 32 8t14 28q0 18 -9.5 32.5t-23 25t-32 17t-33.5 6.5z" />
    <glyph glyph-name="afii59749" unicode="&#xe45;" horiz-adv-x="742" 
d="M364 -681q-9 -27 -16 -27q-24 0 -17 34q31 46 61 91t64 88q60 87 60 138q-1 32 -6.5 60t-17.5 51q-12 24 -42 35q-35 19 -69 19q-61 0 -96 -44l3 3q-6 -15 -6 -27q0 -20 26 -42q8 -4 20.5 -7t27.5 -3h6l30 1q-18 -46 -47 -89q-53 -6 -86 20t-35 76q-2 55 40 104
q20 21 43.5 37.5t51.5 24.5h-1q26 10 59 10q12 0 24 -1t23 -4q1 5 1 11v11q0 25 -12 45.5t-31 32.5h-181q-27 -12 -44 -35.5t-26 -57.5v-15q0 -24 26 -63q-12 -13 -28.5 -31.5t-32.5 -37.5q-20 27 -30 74q-4 11 -5.5 21t-1.5 15q1 4 1 6v5q2 6 2.5 12.5t3.5 11.5
q26 106 166 165l268 2q-19 14 -40 29q-36 26 -79 41.5t-97 15.5q-11 -1 -31 -4t-41 -7t-40 -8.5t-32 -10.5q0 16 8.5 34.5t18.5 36t24.5 31t25.5 20.5q23 16 55 12q12 0 25 -3t22 -4q8 16 11.5 33.5t3.5 35.5q0 54 -54 77q-3 1 -5.5 2t-8 3t-8 2.5t-6.5 0.5h-119
q-22 0 -35 -10t-21.5 -23.5t-11.5 -27t-3 -24.5q1 -24 7 -41t10 -32l8 -24q7 -11 7 -26q0 -16 -8 -34q-11 -16 -21 -28.5t-21.5 -23t-25.5 -16.5t-30 -11q5 15 6.5 27t1.5 23q0 23 -4 46.5t-9 44.5q-4 14 -7.5 27.5t-3.5 22.5q0 21 2.5 40.5t10.5 40.5q7 15 23 33.5
t37.5 39.5t43.5 40.5t38 32.5h-1q1 2 4 3t5 4h236l-15 -96q13 -15 18 -32.5t5 -37.5q0 -27 -6.5 -51.5t-16.5 -48.5q51 -12 91 -34.5t74 -62.5v1q7 -7 11 -16t8 -22q4 -9 11 -20h-2q2 -5 4.5 -9t4.5 -7q4 -7 6 -13.5t6 -12.5q-3 8 -7 18.5t-7 22.5q-10 29 -23 69t-25 87
q-13 52 -13 103t14 97q8 22 23.5 40t37.5 33q9 4 19 6t22 2q27 0 52 -14t42 -38q0 -10 -1.5 -18.5t-4.5 -17.5q0 -9 -1 -19t-1 -17q-2 -9 -5 -21.5t-4 -21.5q-3 1 -7 6t-8 9q-7 6 -13 13t-17.5 13.5t-25 11t-30.5 2.5q-12 -12 -17.5 -34.5t-5.5 -53.5q0 -29 4 -61.5
t10 -66.5q2 -23 6.5 -47t9.5 -46t9 -41.5t8 -31.5q4 -22 4 -27v-19q0 -16 -9 -16h-6l-1 1q-33 37 -67 69l-24 22l-32 -57q7 -12 10 -24t3 -25q0 -44 -27 -78q27 -19 46.5 -42t31.5 -52q2 -10 4 -25.5t2 -28.5q10 -42 -45 -137.5t-178 -243.5h1zM372 622q-18 4 -40.5 10.5
t-39.5 20t-28.5 32t-11.5 42.5v8q0 6 2 10v-1q4 22 14.5 42.5t24.5 37.5q15 18 36.5 28t48.5 10q21 0 42 -8t37 -22t26.5 -32.5t10.5 -38.5q0 -50 -36 -87q-17 -19 -38 -31.5t-46 -20.5h-2zM366 496q-27 0 -55.5 8t-53 22.5t-44.5 34.5t-38 46l50 55q11 -16 29.5 -32t40 -29
t45 -20.5t42.5 -7.5q17 0 40.5 8t46.5 19.5t43 25t33 27.5q8 0 8 -10q0 -8 -6 -19.5t-15 -17.5q-9 -17 -26 -34q-16 -18 -36.5 -34t-42.5 -27.5t-43 -14.5h-18zM345 799q-19 0 -33.5 -7.5t-14.5 -26.5q-1 -16 8.5 -31t26 -26.5t33.5 -18.5t33 -7q17 0 30.5 9t13.5 27
t-9.5 33t-23 26t-30.5 16.5t-34 5.5z" />
    <glyph glyph-name="afii59752" unicode="&#xe48;" horiz-adv-x="967" 
d="M538 -141q-1 26 -2 49.5t-4 46.5q-3 43 -4 83t-5 73q-10 103 -31 162q-38 107 -134 114q-49 5 -90 -24q-37 -27 -63 -76q-12 -24 -25 -52.5t-22 -59.5q-6 -19 -10 -38.5t-8 -41.5l-5 -24q-3 -11 -8 -24q-4 -19 -8 -41q-1 -9 -2.5 -18t-2.5 -18q-4 -19 -7.5 -38t-6.5 -41
l-75 -37q0 44 3.5 86t8.5 80q5 36 12 74t16 67v-1q43 153 120 225.5t182 70.5q130 -11 196.5 -161t65.5 -441q-23 -13 -45 -13q-12 0 -22 4.5t-24 12.5v1zM446 -138q-1 64 -4 112t-5 88q-5 39 -9.5 69t-8.5 55q-5 23 -12 39t-16 25q-16 20 -39 25h2q-34 4 -58 -27
q-12 -11 -22 -33.5t-18 -49.5q-2 -5 -3 -10.5t-3 -12.5q-4 -21 -10 -46.5t-9 -55.5q-5 -19 -7 -39.5t-6 -41.5q-2 -18 -3.5 -34.5t-5.5 -34.5l-42 -34q4 69 9.5 133t14.5 112q23 117 64 176.5t99 53.5q148 -12 146 -471q-12 -12 -26 -12q-13 0 -27 12zM381 619
q-23 3 -45.5 10.5t-39.5 20t-28 31t-11 42.5v18q7 24 17 43.5t25 38.5q31 35 88 35q19 0 39 -6.5t36 -20t27 -32t11 -41.5q0 -26 -9.5 -48t-26.5 -40q-18 -17 -38.5 -30t-43.5 -21h-1zM813 223q-17 0 -38.5 8.5t-39.5 20.5t-30 29.5t-12 40.5q0 7 0.5 11.5t1.5 8.5
q6 22 15.5 43.5t24.5 39.5q32 36 84 36q24 0 44 -8t36 -21t25.5 -31t9.5 -40q0 -51 -35 -89q-36 -35 -83 -49h-3zM813 -152q-18 2 -39.5 9t-39 20t-29.5 30.5t-12 41.5q0 13 2 18q10 47 40 81q32 36 84 36q24 0 44 -7t36 -19.5t25.5 -31.5t9.5 -40q0 -53 -35 -88
q-36 -38 -83 -50h-3zM309 196q4 3 9 4t10 1q3 1 7.5 3t9.5 3q6 2 10 2.5t9 0.5q2 3 6.5 3.5t7.5 0.5v-340q-24 -26 -41 -26q-22 0 -25 27zM348 506q-20 0 -40 4t-39.5 12t-37.5 18t-32 22l61 50q16 -6 32 -14.5t30 -17.5q11 -7 26.5 -11.5t32.5 -4.5q17 -2 33 4t33.5 16.5
t33.5 22.5t30 23l8 8q5 5 10 8q8 -4 8 -8q0 -15 -16 -31t-35 -33q-12 -8 -22 -16t-18.5 -14.5t-17.5 -12t-14 -8.5q-15 -7 -31.5 -12t-34.5 -5zM785 105q-39 0 -79.5 18t-71.5 42l64 49q16 -8 31.5 -17t28.5 -17q13 -6 29.5 -11t30.5 -5q17 0 38 9t41 21t37.5 26t27.5 28
q8 0 8 -10q0 -12 -14.5 -29t-34 -33.5t-40.5 -30t-31 -19.5h1q-16 -9 -33 -15t-33 -6zM785 26q-17 0 -31.5 -8t-14.5 -31q0 -15 10.5 -28.5t24.5 -25t32 -18.5t30 -7q19 0 34.5 8t15.5 27q-1 19 -10 33t-22.5 25t-31.5 17t-37 8zM785 396q-17 0 -31.5 -6t-14.5 -26
q0 -14 10.5 -29.5t24.5 -27t32 -18.5t30 -7q19 0 34.5 8t15.5 28q0 18 -9 32t-24 25t-32.5 16t-35.5 5zM348 796q-17 0 -30.5 -7t-13.5 -28q0 -14 9.5 -28.5t25 -26t32.5 -19t29 -7.5q21 0 35 7.5t14 28.5q0 16 -9.5 31.5t-23 26t-32 16.5t-36.5 6z" />
    <glyph glyph-name="afii59753" unicode="&#xe49;" horiz-adv-x="967" 
d="M538 -141q-1 26 -2 49.5t-4 46.5q-3 43 -4 83t-5 73q-10 103 -31 162q-38 107 -134 114q-49 5 -90 -24q-37 -27 -63 -76q-12 -24 -25 -52.5t-22 -59.5q-6 -19 -10 -38.5t-8 -41.5l-5 -24q-3 -11 -8 -24q-4 -19 -8 -41q-1 -9 -2.5 -18t-2.5 -18q-4 -19 -7.5 -38t-6.5 -41
l-75 -37q0 44 3.5 86t8.5 80q5 36 12 74t16 67v-1q43 153 120 225.5t182 70.5q130 -11 196.5 -161t65.5 -441q-23 -13 -45 -13q-12 0 -22 4.5t-24 12.5v1zM381 619q-23 3 -45.5 10.5t-39.5 20t-28 31t-11 42.5v18q7 24 17 43.5t25 38.5q31 35 88 35q19 0 39 -6.5t36 -20
t27 -32t11 -41.5q0 -26 -9.5 -48t-26.5 -40q-18 -17 -38.5 -30t-43.5 -21h-1zM813 223q-17 0 -38.5 8.5t-39.5 20.5t-30 29.5t-12 40.5q0 7 0.5 11.5t1.5 8.5q6 22 15.5 43.5t24.5 39.5q32 36 84 36q24 0 44 -8t36 -21t25.5 -31t9.5 -40q0 -51 -35 -89q-36 -35 -83 -49h-3z
M813 -152q-18 2 -39.5 9t-39 20t-29.5 30.5t-12 41.5q0 13 2 18q10 47 40 81q32 36 84 36q24 0 44 -7t36 -19.5t25.5 -31.5t9.5 -40q0 -53 -35 -88q-36 -38 -83 -50h-3zM309 249q4 1 9 3.5t10 2.5q9 1 20 6q6 2 12.5 2.5t17.5 1.5v-391q-24 -26 -41 -26q-22 0 -25 27z
M348 506q-20 0 -40 4t-39.5 12t-37.5 18t-32 22l61 50q16 -6 32 -14.5t30 -17.5q11 -7 26.5 -11.5t32.5 -4.5q17 -2 33 4t33.5 16.5t33.5 22.5t30 23l8 8q5 5 10 8q8 -4 8 -8q0 -15 -16 -31t-35 -33q-12 -8 -22 -16t-18.5 -14.5t-17.5 -12t-14 -8.5q-15 -7 -31.5 -12
t-34.5 -5zM785 105q-39 0 -79.5 18t-71.5 42l64 49q16 -8 31.5 -17t28.5 -17q13 -6 29.5 -11t30.5 -5q17 0 38 9t41 21t37.5 26t27.5 28q8 0 8 -10q0 -12 -14.5 -29t-34 -33.5t-40.5 -30t-31 -19.5h1q-16 -9 -33 -15t-33 -6zM785 26q-17 0 -31.5 -8t-14.5 -31
q0 -15 10.5 -28.5t24.5 -25t32 -18.5t30 -7q19 0 34.5 8t15.5 27q-1 19 -10 33t-22.5 25t-31.5 17t-37 8zM785 396q-17 0 -31.5 -6t-14.5 -26q0 -14 10.5 -29.5t24.5 -27t32 -18.5t30 -7q19 0 34.5 8t15.5 28q0 18 -9 32t-24 25t-32.5 16t-35.5 5zM348 796q-17 0 -30.5 -7
t-13.5 -28q0 -14 9.5 -28.5t25 -26t32.5 -19t29 -7.5q21 0 35 7.5t14 28.5q0 16 -9.5 31.5t-23 26t-32 16.5t-36.5 6z" />
    <glyph glyph-name="afii59754" unicode="&#xe4a;" horiz-adv-x="703" 
d="M330 392q11 0 22 -0.5t22 -3.5q-18 37 -27.5 67t-11.5 53q-2 25 1.5 45.5t13.5 37.5v-2q17 34 45 53q10 4 21 11.5t17 14.5q5 1 9 3.5t7 4.5q17 6 33 10.5t31 8.5q22 6 40 11.5t29 9.5q21 7 54.5 26t80.5 50l-16 -60q-7 -60 -129 -102q-60 -20 -96.5 -40.5t-48.5 -40.5
q-13 -19 -18.5 -38t-3.5 -39q1 -20 5 -40.5t9 -43.5q3 -21 10.5 -49t16.5 -60q-17 12 -32 18.5t-26 8.5q-60 -8 -96 -29t-48 -55q-26 -69 -31 -340q-6 -269 -15 -325q-8 -54 -25.5 -111.5t-37.5 -107.5q-21 -51 -51.5 -104t-66.5 -101l-5 52q49 76 80 162v-1q15 46 24 90.5
t15 90.5q3 21 3.5 78.5t0.5 150.5v331q0 33 2.5 63t6.5 57q4 30 12.5 55.5t23.5 48.5q26 42 72 65q33 16 78 16z" />
    <glyph glyph-name="afii59755" unicode="&#xe4b;" horiz-adv-x="604" 
d="M590 -132q0 -4 -5.5 -8t-6.5 -4q-3 0 -6 4t-8 10q-132 189 -203.5 239.5t-145.5 54t-114.5 -5.5t-56.5 -12.5t-28 -3.5q-5 0 -9 1.5t-4 7.5l2 5q11 32 23 52.5t27.5 31t32.5 16t78 9.5h73q0 29 -8 60t-17 41.5t-19 14t-13 3.5h-143l-11 15l36 70q4 12 19 12h410l8 -5v-16
l-36 -66l-10 -10h-185l2 -125q49 -9 106.5 -54t120.5 -163t91 -165v-9z" />
    <glyph glyph-name="afii59756" unicode="&#xe4c;" horiz-adv-x="702" 
d="M382 510q-1 -25 -10.5 -55t-27.5 -67q10 3 21.5 3.5t21.5 0.5q44 0 78 -16q46 -23 72 -65q30 -47 36 -104q8 -55 8 -120v-271q0 -118 1 -190.5t4 -98.5q6 -43 15.5 -90.5t23.5 -90.5v1q14 -42 34 -83.5t45 -78.5l-4 -52q-38 48 -67.5 101t-49.5 104q-20 50 -36.5 107.5
t-26.5 111.5q-6 28 -9.5 108.5t-6.5 216.5t-10 221t-21 119q-12 35 -48 55.5t-96 28.5q-13 -2 -29 -8.5t-33 -18.5q12 32 18 51.5t10 37.5q1 4 2 10t2 10q5 23 8.5 43.5t4.5 40.5q3 38 -23 77q-25 39 -146 81q-120 42 -127 102q-3 13 -8 30.5t-8 29.5q47 -31 81 -50t54 -26
q8 -4 20.5 -8t29.5 -8q16 -5 38 -10.5t47 -13.5q8 -8 21 -16.5t28 -16.5q31 -21 50 -54q8 -16 12.5 -37t0.5 -42z" />
    <glyph glyph-name="afii59763" unicode="&#xe53;" horiz-adv-x="608" 
d="M508 -38q2 -108 -36.5 -163.5t-83.5 -78.5t-88 -8t-66.5 29.5t-51 23t-57.5 5.5t-38.5 -9t-11.5 -9q36 -4 65 -23t61 -50.5t65 -49.5t78 -24q28 -3 52.5 2.5t48.5 18.5t70 62t56 63q3 3 14 7t14 4q4 0 1 -11l-1 -12q-11 -12 -66 -75.5t-104.5 -98.5t-101 -34t-90 19.5
t-76 55t-74.5 79t-71 38.5q5 21 18.5 35.5t33.5 28t68 18.5q35 3 66 -7.5t79.5 -36.5t90.5 -6t58 49t9 101q-1 21 -9.5 48t-23 43t-39 20.5t-60.5 4.5q-13 0 -25.5 -4t-28.5 -13t-24.5 -19t-8.5 -18l28 -115q-13 -36 -19 -36q-1 0 -6 4.5t-5 16.5q-19 77 -126 377l44 90h158
q0 30 -12.5 51.5t-25.5 28.5h-117l-8 15l40 82h320l9 -5v-16l-34 -66l-7 -10h-139v-80h188l-8 -22l-31 -67l-10 -8h-289l41 -201q18 50 60 76.5t82 26.5q27 0 52 -3t47 -16.5t36 -42.5t20 -85z" />
    <glyph glyph-name="afii59764" unicode="&#xe54;" horiz-adv-x="545" 
d="M504 202q9 -50 13 -95t5 -90l2 -90q1 -45 2 -94q4 -12 4.5 -20.5t0.5 -15.5q0 -14 -5 -14t-12 19q-14 41 -46.5 73.5t-63.5 52.5t-68 31.5t-72 11.5h-22q-9 0 -19.5 -0.5t-30 -9t-23.5 4.5q6 41 14.5 69.5t16.5 28.5q23 108 46 143q0 3 -21.5 2.5t-28.5 -0.5h-27
q-31 0 -41 -15.5t-19.5 -61t-16 -180t-6.5 -167.5l-8 -210q0 -5 -2 -7t-9 -2q-21 0 -26 2t-5 7v597q0 43 38.5 88.5t55.5 45.5h145q0 23 -8 46q-8 24 -25 32h-138l-9 15l38 73q5 9 17 9h326l10 -5v-16l-34 -66l-9 -10h-140v-78h226q17 -4 9 -23zM492 -109q-6 81 -23.5 159.5
t-52.5 158.5h-98q-49 -17 -91 -139q35 0 98.5 -20.5t166.5 -158.5z" />
    <glyph glyph-name="afii59765" unicode="&#xe55;" horiz-adv-x="570" 
d="M523 -433q-23 18 -48 41q-13 9 -33 25.5t-45 33.5q-57 39 -122 49q-33 5 -54.5 6.5t-31.5 1.5l-28 -1q-12 -2 -27 -2q-31 -2 -58 -5.5t-43 -5.5q11 49 24 72t37 30q6 1 27.5 2.5t45 1.5t42 -1.5t27.5 -2.5q57 -4 97.5 -28.5t88 -76.5t70.5 -76l-4 189q0 46 -16 207
t-55 183h-84l-3 -286q1 -39 1 -42q-13 -5 -17 8q-6 28 -32 46.5t-71 38t-106.5 13.5t-93.5 -17l-1 4q-1 3 -1 4q0 43 12.5 69.5t21.5 26.5q13 50 38.5 90.5t32.5 48.5h-53q-8 3 -4 19l27 58q8 12 16 16h196q0 31 -14 53q-14 20 -22 24h-145l-8 15l33 65q2 9 6.5 13t11.5 4
h349l8 -5v-16l-32 -66l-13 -10h-146v-77h216q8 -1 8 -16l-25 -85v-639zM308 -60q1 78 -23.5 164.5t-51.5 105.5h-57q-33 -4 -63 -49.5t-46 -84.5q43 -1 78.5 -3.5t56 -15t106.5 -117.5z" />
    <glyph glyph-name="afii59766" unicode="&#xe56;" horiz-adv-x="455" 
d="M21 -53q0 43 11 74.5t32 53.5t45.5 33.5t53.5 11.5q41 0 83 -26t79 -68l29 189h-308l-8 10l17 66l10 13l14 9h165q-1 18 -8 39q-9 24 -26 32h-138l-9 15l38 73q5 9 17 9h327l9 -5v-16l-34 -66l-9 -10h-140v-71h160l12 -19l-6 -72q-17 -21 -43 -99.5t-85 -277.5
q-4 -10 -6 -21t-8 -11q-7 0 -14 15t34 163q0 7 -5 10.5t-15.5 11.5t-26.5 13.5t-33 5.5q-42 -4 -71.5 -15.5t-47.5 -32t-23.5 -45.5t-5.5 -56q0 -24 15 -71.5t124 -287.5q2 -7 -1 -11t-7 -4q-14 -8 -18 -6.5t-5 6.5q-102 206 -129.5 267t-36 103.5t-8.5 67.5z" />
    <glyph glyph-name="afii59767" unicode="&#xe57;" horiz-adv-x="480" 
d="M463 -57q0 -35 -23.5 -80t-116.5 -189q70 -66 86 -88v-27q-10 10 -32.5 29.5t-55.5 39.5t-76 33.5t-92 13.5q-46 0 -79.5 -2.5t-61.5 -10.5q17 109 105 105t117.5 -19.5t69.5 -53.5q6 6 50 84t44 104q0 57 -37.5 98t-117.5 48q-2 0 -6 0.5t-8 0.5q-18 0 -26.5 -6.5
t-17 -13.5t-11 -13.5t-2.5 -12.5l20 -81l-3 -1q0 -16 -7 -16q-8 0 -12.5 6.5t-5.5 17.5l-119 308l46 93h158q0 19 -8 42q-8 24 -26 32h-137l-10 15l38 73q5 9 17 9h327l9 -5v-16l-34 -66l-9 -10h-140v-74h165l8 -7v-16l-32 -65l-8 -9h-294l50 -203q4 54 44 79.5t84 25.5
q32 0 63 -11t54 -33.5t38 -53t15 -70.5v-4z" />
    <glyph glyph-name="afii59768" unicode="&#xe58;" horiz-adv-x="474" 
d="M427 229v-460q0 -5 -2.5 -7t-3.5 -2q-6 0 -10 9q-37 33 -65.5 61t-86.5 61.5t-124.5 29.5t-78.5 -10t-38 -10q-9 -7 -9 7q55 94 90 102q11 2 22 7t20.5 13.5t25 18.5t30.5 14q-23 -1 -52 2t-49 17.5t-29.5 40t5.5 52.5l27 43q-24 3 -34 4q-8 0 -5 8l31 65q8 20 16 20h147
q-2 19 -6 37q-9 24 -30 32h-121l-8 15l37 73q6 9 17 9h298l8 -5v-16l-32 -66l-10 -10h-123v-69h154q8 0 8 -6.5t-4 -17.5zM400 -179q0 35 -6.5 169.5t-11.5 142.5q-31 -31 -62 -48t-66.5 -25.5t-54.5 -21t-33 -31.5q3 0 6 1.5t5 1.5q61 0 96 -22t51 -42.5t76 -124.5z
M384 176q0 6 -1 13t-5 13.5t-9.5 11t-12.5 4.5h-191q-43 0 -47 -19q0 -58 51.5 -69.5t102.5 -2.5t64 15t30.5 15.5t17.5 18.5z" />
    <glyph glyph-name="afii59769" unicode="&#xe59;" horiz-adv-x="484" 
d="M467 -511q-20 16 -44 33.5t-54.5 32t-65.5 24.5t-78 10h-8l47 78q0 22 11 43.5t29.5 42t41 38.5t43.5 29q-10 52 -27.5 86t-40.5 55.5t-55 31.5t-74 13q-8 0 -16 0.5t-12 0.5q-52 0 -91 -8t-68 -19q0 15 3.5 31.5t9.5 32t10.5 24t6.5 11.5q0 1 -0.5 6.5t-0.5 8.5
q11 30 28.5 63.5t29.5 56.5h1v3q2 0 2 1q0 3 -17 3h-20q-14 1 -9 16l33 70q6 12 13 14h144q-2 15 -6 31q-10 24 -30 32h-121l-9 15l38 73q5 9 16 9h298l8 -5v-16l-31 -66l-10 -10h-124v-63h128l10 -7v-16l-34 -65l-12 -10h-160q-23 0 -50 -8t-53 -47t-26 -67v-7q11 7 40.5 9
t86.5 2q71 0 116 -26.5t61.5 -81t33.5 -141t37 -206.5zM400 -227q-26 -11 -43 -24t-33 -27t-25 -27t-9 -28v-2q29 0 51.5 -9.5t40 -25t49.5 -76.5z" />
    <glyph glyph-name="afii59770" unicode="&#xe5a;" horiz-adv-x="550" 
d="M59 229q-5 1 0 1l-2 11l30 61l12 12h188q-1 17 -9 38q-8 24 -28 32h-141l-8 15l39 73q5 9 16 9h355l8 -5v-16l-32 -66l-11 -10h-162v-70h200l11 -8l-3 -11l-14 -73v-609q-6 -13 -40.5 23.5t-67 59.5t-79.5 39t-110 16q-15 0 -34.5 -1.5t-41.5 -3.5t-43.5 -4.5t-37.5 -6.5
q16 52 27.5 75t32.5 27q8 4 54.5 7.5t115.5 -31t122.5 -81t69.5 -61.5v170q-25 327 -59 376h-112q17 -242 21 -308h-31q-9 69 -22 175t-41 134q-21 8 -61 5q-8 -1 -7.5 -20.5t-0.5 -38.5q0 -24 -4.5 -50.5t-21.5 -43.5q-12 -11 -25.5 -18t-31 -13.5t-37.5 -14.5t-35 -18
l-1 14l7 32l13 43q7 8 17.5 14t24 10.5t24 7t13.5 7.5q8 10 15.5 20t10.5 26q1 11 -3.5 24.5t-11.5 20.5q0 1 -9.5 2.5t-22 2t-22.5 0.5h-4v-1v0z" />
    <glyph glyph-name="afii59771" unicode="&#xe5b;" horiz-adv-x="630" 
d="M527 -306q-12 10 -23 19q-24 18 -52.5 32t-63 22t-81.5 11l56 81q4 22 32 47.5t63.5 42.5t57.5 29q-35 52 -82 109.5t-96 106t-97 84t-83 48.5q-18 -8 -30.5 -19.5t-27.5 -43.5q0 -4 1.5 -9.5t1.5 -11.5q32 -5 59.5 -24.5t49 -38.5t51.5 -76.5t30 -63.5q0 -3 -2 -6.5
t-6 -3.5q-6 0 -17 10q-54 55 -107 79t-101 24q-15 0 -28 -3t-26 -7q3 29 18.5 57.5t44.5 52.5v6q0 16 37.5 69.5t52.5 66.5l-80 4q0 3 2.5 5t2.5 3l34 81h237l8 -4v-16l-30 -70q-2 -1 -7.5 -2t-13 -1t-15 -0.5t-7.5 -4.5t9 -10q55 -50 93 -97t127 -244q-25 270 -39.5 311
t-34.5 61v21l32 56h107l7 -4v-16q-5 -8 -42 -88v-673h19l10 -17l-29 -45q6 -7 14 -27q0 -46 -40 -75q14 -4 27 -16t21.5 -27.5t35.5 -85.5q3 -8 -4 -8q-4 -3 -7 0q-35 37 -47 44t-24 11t-27 5.5t-41 1.5q-10 0 -22.5 -3t-27.5 -3q16 49 33.5 67t37.5 18h22q5 4 9 4t5.5 1
t3 3t1.5 9q1 24 -6 41t-29 23t-92 7q-33 -1 -47.5 -10t-14 -25t5.5 -31.5t26 -40.5q9 -8 -6 -30t-33 -31.5t-23 -1.5q-16 51 -21.5 79.5t5.5 63.5q6 11 17 26.5t23.5 28.5t27.5 24.5t35 17.5h140zM516 -83q-121 -32 -124 -61q23 0 42 -9.5t32.5 -23t26 -29.5t23.5 -31v154z
" />
    <glyph glyph-name="afii62841.075" unicode="&#xe5c;" 
d="M-166 -321q12 27 35 29q16 0 29 -2q-11 63 -19 139q-10 86 -33 125h-99q4 -27 16 -183h-27q-32 162 -51 179q-4 4 -10.5 4.5t-15.5 1t-21 0.5h-15q-10 -1 -9.5 -20t-1.5 -43t-22 -42q-10 -11 -24.5 -17.5t-32.5 -13.5t-36.5 -13.5t-40.5 -20.5l10 48l12 40q7 9 20 14.5
t25.5 9t22.5 7.5t18 11q16 26 12.5 32t-7.5 8q-1 2 -11.5 2.5t-22.5 0.5t-23 1.5t-3 18.5l27 53q4 11 12 14h409q4 -7 3 -14q-15 -32 -27 -73v-277l16 -8q18 -9 31 -24t17 -32q3 -17 -0.5 -50.5t-17.5 -68.5t-36.5 -63.5t-57.5 -29.5q-49 -6 -94.5 28t-148.5 153.5
t-161 144.5l9 14q34 2 65 -20t133.5 -116t139.5 -109.5t75 -15.5q31 3 44 20t9 37q-6 23 -35.5 40t-80.5 3q-16 -3 -21 26zM-90 -295q12 -3 23 -7l-35 8z" />
    <glyph glyph-name="afii62841.076" unicode="&#xe5d;" 
d="M-170 -333q13 29 36 29q16 0 28 -2l35 -6l7 -5h1q-3 3 -6 5q-11 16 -33.5 32.5t-50.5 33.5t-60 26t-62 9h-37q-10 0 -27.5 -7t-18.5 4q3 34 10.5 57t13.5 24q22 86 42 113q0 6 -18.5 4.5t-25.5 -1.5h-22q-29 0 -38 -12.5t-17 -49t-19 -177.5l-9 -200q0 -2 -1.5 -5
t-6.5 -3q-19 0 -23.5 3t-4.5 5v409q0 34 33.5 71.5t48.5 37.5h353q15 -3 7 -18l-29 -66q8 -39 10.5 -70t4 -59.5t1.5 -58.5v-70q1 -42 -11 -38l4 -3q19 -12 32.5 -26t15.5 -30q6 -18 2 -52.5t-19 -69t-37 -62t-57 -31.5q-48 -4 -93.5 30t-107 153t-109.5 157l16 16
q26 -4 49.5 -33t86.5 -120t100 -107t77 -15q30 3 43 20.5t8 34.5q-4 25 -34.5 41.5t-81.5 4.5q-17 -5 -20 26zM-74 -276q-6 67 -21 130.5t-47 128.5h-83q-46 -12 -82 -113q29 0 85 -16.5t148 -129.5zM-59 -318q-1 0 -4 1z" />
    <glyph glyph-name="afii62841.077" unicode="&#xe5e;" horiz-adv-x="53" 
d="M-23 62l12 -11q-4 -6 -24 -65v-311q0 -2 -4 -3.5t-8 -1.5q-24 0 -24 5q0 77 -17.5 186.5t-42.5 118.5h-76v-236q0 -8 -4 -11.5t-5 -3.5q-7 0 -9 6q-37 29 -88.5 55.5t-141.5 26.5q-14 0 -31 -2.5t-24 -2.5q-4 0 -4 1q2 45 14 65t27 20q0 3 2.5 11t12 29t31.5 42
q-22 2 -33 2.5t-11 6.5v1l2 1l40 71h406zM-154 -352q13 27 36 30q13 0 28 -3l35 -8l16 -8q17 -9 30.5 -23.5t16.5 -33.5q5 -16 1 -49.5t-17.5 -68.5t-36 -63.5t-60.5 -29.5q-47 -5 -92.5 28.5t-148 153t-161.5 146.5l10 12q33 4 63 -19t133 -116t141 -109.5t77 -16.5
q31 3 43.5 21t7.5 36q-7 23 -36 40t-79 3q-18 -3 -21 27zM-228 -240q-4 27 -21 115.5t-46 104.5h-88q-33 -17 -49.5 -36.5t-23.5 -44.5q120 -9 228 -139z" />
    <glyph glyph-name="afii62841.078" unicode="&#xe5f;" 
d="M-36 -439q1 -13 -5 -36.5t-18 -47t-31 -39.5t-48 -16q-38 -6 -62 9t-48 47.5t-62.5 85t-66.5 79.5t-76 59l16 10q25 -14 42.5 -25.5t53 -42.5t63 -61t54 -51t54 -36.5t56.5 -18.5q22 -1 32.5 9t8.5 25q-2 16 -22 31t-61 9q-12 0 -12 11t6 23.5t19 23.5q5 7 10 8
q34 37 36 58q6 25 -5 41t-41.5 23.5t-47.5 5.5t-36 -13q8 -6 34 -44q5 -9 5 -13t-5 -4t-14 7q-14 10 -31 18t-35 12.5t-41.5 5.5t-48.5 1h-18q3 25 15.5 40t26.5 15l3 -3l25 35v2q3 0 3 1q0 3 -6.5 3.5t-14 0.5t-13 0.5t-5.5 3.5q0 4 1 5l29 38h290l-37 -48h-160
q-11 -3 -35 -5t-38 -16t-14 -20q15 -3 32 -8t32 -16q38 36 102.5 36t85 -17.5t26.5 -40.5v-2q0 -11 -7 -31q-7 -21 -61 -71q13 -4 34 -12q12 -11 19.5 -21.5t11.5 -22.5zM-59 -142q0 20 -10.5 72.5t-28.5 72.5h-82v-135q0 -9 -13 -9q-28 31 -83.5 38.5t-120.5 4.5
q-17 0 -30.5 -2.5t-20.5 -2.5q-8 0 -8 1q4 31 15.5 46t19.5 15q5 20 14 30t9 13h-8q-8 1 -11.5 2t-7 1.5t-3.5 1.5v6l23 34q3 6 7 10.5t11 5.5h371q11 0 8 -11q-10 -22 -17.5 -36t-7.5 -25v-133h-26zM-197 -111q-3 50 -13 80t-54 34h-98q-38 -12 -43 -44q43 0 72 -3t45 -7
t91 -60z" />
    <glyph glyph-name="afii62841.079" unicode="&#xe60;" 
d="M27 -349q4 -11 0 -36t-15 -49t-27.5 -42.5t-43.5 -19.5q-40 -8 -65.5 4t-53 42.5t-70 79t-72.5 73t-82 51.5l16 10q28 -9 45.5 -19t55.5 -38t67.5 -55t58.5 -46.5t57.5 -32t58.5 -12.5q21 0 31.5 11.5t6.5 25.5q-4 17 -25 29.5t-61 4.5q-14 -1 -14.5 9t5.5 23.5t16 26.5
t18 13q15 2 58 -10l3 -2q-9 9 -19 18q-27 22 -59 41.5t-119.5 38.5t-184.5 -11h-15q0 75 22 85q-1 8 8 37.5t36 64.5h2l2 1v4q0 1 -15 2t-20.5 3t-12 2.5t-6.5 4.5l3 3l41 77h320q-2 -18 -16 -53t-29 -35h-163q-61 3 -85.5 -23.5t-37.5 -60.5q0 -2 1.5 -5.5t2.5 -2.5
q11 3 45 3h29q79 -1 135.5 -25t98 -77t76.5 -96q21 -18 21 -29q0 -8 -5 -8q-11 0 -27 14q-9 9 -20 17q4 -3 9 -8q9 -11 14 -23z" />
    <glyph glyph-name="afii62841.080" unicode="&#xe61;" 
d="M-51 -354q3 -12 -2.5 -36.5t-18 -48t-31.5 -40t-47 -16.5q-42 -2 -66 11.5t-48 45.5t-61 85t-66 80t-77 59l19 10q25 -13 41.5 -24.5t51.5 -42.5t62.5 -60.5t54.5 -52t54 -37t55 -18.5q23 -2 33.5 9t8.5 24q-3 17 -23 31.5t-59 12.5q-14 0 -14 10t8 22t19 24q5 6 9 10
q-22 -8 -45 -8q-11 0 -21 1t-19 3q-41 15 -74 48t-47.5 76.5t-34.5 69.5l-11 16v22q31 -10 73 -49q8 0 20 5.5t31 13t36 19t24 20t7 17.5q-3 17 -20.5 20.5t-49.5 4.5h-76l-10 11l38 68h283l2 -6q15 14 46 14t56 -6q15 -17 3 -37t-17 -37.5t6.5 -35t5.5 -21.5h-3
q-48 14 -98 54q0 34 24 53q-12 4 -25 3l-31 -54l-11 -6h-95v-36q7 0 12 0.5t9 0.5q34 0 60.5 -9.5t45.5 -27t29.5 -38.5t10.5 -44q0 -21 -36 -62q-34 -36 -71 -54q-10 -3 -18 -8q15 1 56 -15q14 -11 22.5 -21.5t9.5 -22.5zM-84 -171q-37 37 -69 51t-82 17q-35 -16 -76 -33
q16 -28 35.5 -48t33.5 -33t41.5 -24t70.5 -11q31 6 52.5 22.5t-6.5 58.5z" />
    <glyph glyph-name="afii62841.081" unicode="&#xe62;" 
d="M-28 59v-12l-28 -50l-7 -7h-188v-104l3 -5q3 8 13.5 16.5t24 16t31 13t36.5 5.5q9 0 27.5 -5.5t39 -17.5t32.5 -31t12 -46q-1 -22 -10 -51.5t-25.5 -53t-39.5 -36.5t-59 -17q-26 0 -46 7.5t-35 19t-24 23.5q-10 13 -13 24q-4 -16 -15 -27q-9 -11 -24.5 -21.5t-32 -15.5
t-35.5 -5q-13 0 -31 4.5t-38 15.5t-33.5 33.5t-10.5 60.5q3 32 19.5 57t40 42.5t51.5 28.5t47 11q24 0 41.5 -11.5t25.5 -19.5q0 24 -8.5 48.5t-16.5 31t-49 9.5h-119l-4 9l31 64h393q-14 34 -17.5 44t2.5 22q20 53 39 51t55.5 -20.5t63 -20.5t26.5 -6v-4q-35 -30 -94 -51
q-38 6 -59 21q-11 2 -7 -10.5t11 -26.5zM-56 -369q5 -14 5 -41.5t-7.5 -54t-23.5 -48.5t-44 -28q-42 -13 -70 -4.5t-62 39t-85.5 77t-86.5 69t-96 46.5l15 14q32 -8 52.5 -17t64.5 -34t79.5 -50.5t69 -43t65 -27t63.5 -7.5q23 5 31 18.5t3 27.5q-7 17 -31 28.5t-66 -2.5
q-13 -3 -15.5 8.5t2 26t14 29t17.5 16.5q15 5 63 -3q15 -8 27 -18t16 -21zM-75 -209q-7 18 -19 33.5t-30 26.5t-39 17.5t-38 6.5q-20 0 -36 -8t-16 -35q0 -20 8 -38.5t22.5 -33t33.5 -23t40 -8.5q25 0 50 15t24 47zM-287 -207q0 20 -12.5 35.5t-31 26.5t-34 15.5t-26.5 4.5
q-13 0 -22 -0.5t-18 -6.5t-15 -15.5t-6 -25.5q0 -23 10 -44t24 -36t35 -16.5t34 -1.5q28 0 45 17.5t17 46.5z" />
    <glyph glyph-name="afii62841.082" unicode="&#xe63;" 
d="M-8 -446q3 -11 -2.5 -35.5t-18.5 -47t-32 -39.5t-46 -17q-42 -3 -66 10.5t-48 46.5t-61 85t-66 79t-76 61l16 9q27 -12 43 -24t51.5 -43t63 -61t55 -52t54 -37.5t55.5 -16.5q22 -3 32.5 8.5t9.5 24.5q-4 16 -24 30.5t-58 10.5q-15 0 -15 10.5t8 23t18 24t18 11.5
q15 1 57 -15q7 -6 12 -10q-16 19 -32 39q-22 22 -46 43.5t-51.5 36t-82.5 20.5t-114.5 -3.5t-66.5 -13.5l17 75q7 26 10 43.5t9.5 50t46.5 97.5q2 2 -23.5 1t-28.5 8l33 65q2 4 6 7t11 4h288q-14 40 -17.5 51.5t3.5 27.5q22 60 40.5 59.5t55.5 -24.5t64 -25t27 -7v-3
q-37 -37 -97 -63q-35 8 -59 24q-12 2 -7 -10q6 -14 11 -30h9l7 -8l-33 -66l-8 -9h-216q-16 0 -29 -11t-33.5 -35t-23.5 -43q13 19 32 33.5t252 4.5q8 0 5 -11q-11 -17 -23.5 -38t-28.5 -21q-18 0 -226 3q-3 -2 -7 -2t-7 -1q-13 -34 -17 -49q56 3 104.5 2.5t86.5 -11
t71.5 -34.5t63 -76t59 -100.5t25.5 -52.5q-4 -10 -7 -9t-8.5 5t-13.5 16q-5 8 -17 24q5 -9 6 -20z" />
    <glyph glyph-name="afii62841.083" unicode="&#xe64;" 
d="M-36 -439q1 -13 -5 -36.5t-18 -47t-31 -39.5t-48 -16q-38 -6 -62 9t-48 47.5t-62.5 85t-66.5 79.5t-76 59l16 10q25 -14 42.5 -25.5t53 -42.5t63 -61t54 -51t54 -36.5t56.5 -18.5q22 -1 32.5 9t8.5 25q-2 16 -22 31t-61 9q-12 0 -12 11t6 23.5t19 23.5q5 7 10 8
q24 37 24 49q0 15 -11 32t-42 23t-47 4.5t-36 -10.5q10 -9 36 -48q4 -9 4 -11q0 -5 -4 -5q-6 0 -14 5q-17 11 -32.5 19t-34 13.5t-41.5 6.5t-49 1h-18q3 27 16 41t25 14l7 -3l23 37q0 1 2 1v3q0 2 -5 2h-15q-8 0 -12.5 1.5t-4.5 4.5v5l26 38h244l8 -11l-25 -38h-134
q-10 -2 -33 -4t-37 -16.5t-14 -22.5q15 -1 31.5 -7t31.5 -17q39 39 103 38.5t89 -19.5t25 -54q-3 -31 -58 -72q15 -2 38 -12q12 -11 19.5 -21.5t11.5 -22.5zM-275 -134q-48 -4 -69.5 -5.5t-36.5 -8.5l16 53q12 58 48 102q-45 -1 -44 3l31 45l13 8h262q-12 36 -15.5 45.5
t1.5 20.5q21 51 38 49t53 -19.5t60.5 -19.5t24.5 -6v-4q-34 -28 -91 -50q-32 7 -55 22q-11 0 -6 -11t12 -27h19l3 -11l-32 -40l-13 -6h-216q-24 0 -33 -13t-27 -40q15 13 40 26l229 -5q-19 -34 -31 -41q-185 6 -245 2q-3 -17 -3 -22q157 4 196 -0.5t67.5 -20t48 -49.5
t49.5 -89q8 -11 -1 -18q-5 -1 -10 3t-8 8q-8 13 -54.5 66t-145.5 54z" />
    <glyph glyph-name="afii62841.084" unicode="&#xe65;" 
d="M32 -423q1 -12 -4.5 -36t-17 -47.5t-31 -39.5t-46.5 -16q-42 -6 -66 9t-48 47.5t-61 85t-66.5 79.5t-77.5 60l17 9q27 -13 44 -24.5t51.5 -43t62 -61.5t54.5 -51t54.5 -36.5t55.5 -18.5q23 -1 33.5 9t8.5 25q-3 16 -23 31t-60 9q-13 0 -13 11t7.5 24t19.5 23l5 6q2 3 3 3
q11 17 22 44t11 51q0 18 -7.5 37.5t-32.5 48t-67 33t-55.5 -16.5t3 -37t40.5 -30q26 -13 62 -27q0 -5 -7.5 -13.5t-17 -17t-19 -13.5t-15.5 -5q-19 2 -41 9.5t-40.5 20.5t-31 29t-12.5 36q2 33 39.5 73.5t82.5 60.5q37 15 37 28q16 30 -37 35h-107q-16 0 -40 -8t-23 -22.5
t15.5 -25.5t55.5 -16q0 -3 -9.5 -13t-20 -20.5t-22 -18.5t-18.5 -8q-6 0 -15.5 2t-18 10t-13.5 18.5t-6 27.5q-4 34 11.5 65.5t66.5 73.5l18 18h223l13 -11l-18 -40q5 -6 10.5 -23.5t-7 -32.5t-34.5 -34q48 -5 86 -43.5t38 -101.5q0 -29 -14 -61q-12 -33 -54 -82
q16 -3 35 -13q13 -10 20.5 -21t11.5 -23z" />
    <glyph glyph-name="afii62841.085" unicode="&#xe67;" 
d="M-32 47q-35 -67 -60.5 -134.5t-72.5 -169.5l-32 -4l33 82q-107 41 -158 41q-28 0 -44 -10q-6 -2 -10 -9.5t-4 -15.5q0 -22 3 -47.5t9.5 -61t45.5 -126.5q1 -3 3 -14.5t2 -12.5q0 -3 -3 -7t-7 -4q-5 0 -7 3q-87 141 -98.5 176.5t-11.5 59.5q0 28 12 52.5t41 40.5
q26 19 55 27.5t62 8.5q11 0 27.5 -2t33 -6t34 -8.5t33.5 -8.5l31 94h-295l-8 11l38 61h340l8 -4v-12zM-113 -456q4 -12 -2 -35.5t-18.5 -47t-31.5 -40t-47 -16.5q-39 -5 -63.5 10t-49 47t-61 85t-65 80t-77.5 59l17 10q24 -14 41.5 -25.5t53 -42.5t62.5 -61.5t54.5 -51.5
t55 -36.5t54.5 -17.5q22 -2 32.5 8.5t8.5 24.5q-3 17 -23 31.5t-58 9.5q-13 0 -13 11t6.5 23.5t17.5 24t19 11.5q15 2 57 -16q12 -11 20.5 -21.5t9.5 -23.5z" />
    <glyph glyph-name="afii62841.086" unicode="&#xe68;" 
d="M-58 -466q3 -13 -2.5 -37t-18 -46.5t-32 -39t-46.5 -16.5q-41 -4 -65.5 10t-48.5 47t-61 85t-64.5 78.5t-76.5 59.5l17 11q25 -13 42 -24q16 -12 48 -39v4q0 55 -12 372l39 63h182q15 0 33.5 -5.5t37.5 -18t31 -27t12 -33.5q0 -3 -2 -7.5t-2 -7.5q-8 -23 -31 -48.5
t-64 -44.5l126 -84h39q20 0 4 -24q0 -8 -5.5 -17t-11 -17t-9.5 -12t-6 -4q-38 0 -78.5 -4t-79 -9t-79.5 -19.5t-88 -50.5q-12 -5 -18 -10.5t-9 -5.5q34 -29 58 -56q27 -30 54.5 -51.5t53.5 -37t56 -17.5q21 -4 32 7.5t9 26.5q-4 16 -24 29.5t-58 11.5q-14 0 -14 10t8 22
t18 23.5t18 11.5q15 1 56 -15q15 -11 23 -21.5t9 -22.5zM-51 -217q-16 11 -39 28.5t-49.5 28.5t-67.5 11t-129 7l-6 -196q55 32 91 52.5t72.5 38.5t127.5 30zM-113 -53q0 15 -26 25.5t-85 10.5h-84l-15 -12l-7 -16l-6 -62l65 -7l82 -8h1q36 0 53.5 19.5t21.5 42.5v7z" />
    <glyph glyph-name="afii62841.087" unicode="&#xe69;" 
d="M-36 -439q1 -13 -5 -36.5t-18 -47t-31 -39.5t-48 -16q-38 -6 -62 9t-48 47.5t-62.5 85t-66.5 78.5q-3 5 -9 8q-14 -61 -42 -204q0 -3 -4 -5t-8 -2q-15 0 -18 2t-3 5q34 201 34 202q3 15 6 33q-16 9 -32 21l16 10q10 -6 19 -8l2 6q6 34 19.5 66t41.5 52t67 28t106 4
t99 -25q-1 8 -12.5 48.5t-31.5 60t-49 31.5h-234l-6 12l36 76h338l9 -4v-15l-34 -69h-38q17 -17 33 -67t16.5 -82t0.5 -45v-49q-29 32 -83.5 43t-120.5 -1t-85 -31.5t-30 -54.5q-3 -6 -4 -13q15 -10 36 -29q36 -33 63.5 -63t54 -51t54 -36.5t56.5 -18.5q22 -1 32.5 9t8.5 25
q-2 16 -22 31t-61 9q-12 0 -12 11t6 23.5t17.5 24t20.5 11.5q15 2 57 -16q12 -11 19.5 -21.5t11.5 -22.5z" />
    <glyph glyph-name="afii62841.088" unicode="&#xe6a;" horiz-adv-x="49" 
d="M-43 -295q0 -9 -6.5 -24.5t-19.5 -26.5q-11 -8 -37 -35q15 -4 39 -14q12 -11 19.5 -21.5t10 -23t-3.5 -36t-18 -47t-31 -39.5t-48 -16q-38 -6 -62 9t-48 47.5t-62.5 85t-66.5 79.5t-76 59l16 10q25 -14 42.5 -25.5t53 -42.5t63 -61t54 -51t54 -36.5t56.5 -18.5
q22 -1 32.5 9t8.5 25q-2 16 -22 31t-61 9q-12 0 -12 11t6 23q2 4 4 5q-2 2 -2 3l6 5q4 3 5 7q42 51 43 76q0 25 -13.5 40t-35 22.5t-40 5t-40.5 -12.5q12 -9 42 -53q4 -10 4 -12q0 -6 -4 -6q-8 0 -16 6q-19 12 -36.5 20.5t-38 14.5t-45.5 7.5t-57 1.5h-19q11 31 22 46.5
t25 15.5l5 -2q0 11 7.5 20.5t20.5 20.5h2q1 1 1 2q0 2 -7 2.5t-16 0.5t-14.5 2t-5.5 5q0 4 2 7l31 42h230q-24 5 -56 9q-62 8 -137 3q-37 -4 -58 -13.5t-31 -25t-15 -39.5t-6 -55v-12q0 -1 -3.5 -3t-7.5 -2q-5 0 -9 2t-4 3q11 118 25 144t43 39.5t77 17.5q64 4 113.5 -1
t87.5 -23q-3 24 -16.5 43t-24.5 30t-88 11h-174l-8 8l39 50h313l7 -3v-9l-28 -44h-28q11 -9 16.5 -18.5t12 -25t6.5 -32.5v-69q-11 5 -26 10l7 -4l-32 -48h-123q-13 -2 -35 -3t-43.5 -16t-23.5 -26q24 -4 42.5 -10t33.5 -19q13 10 23 18.5t19 13.5t29 10t56.5 1.5
t58.5 -24.5t27 -55v-5z" />
    <glyph glyph-name="afii62841.089" unicode="&#xe6b;" 
d="M-36 -439q1 -13 -5 -36.5t-18 -47t-31 -39.5t-48 -16q-38 -6 -62 9t-48 47.5t-62.5 85t-66.5 78.5l-13 13q-14 -50 -30 -125q0 -3 -4 -6t-7 -3q-21 6 -21 11l30 141v8q-15 9 -31 21l16 10q10 -4 17 -8q8 56 16 89q9 40 28 72.5t64 42.5l-2 41l2 33h-126l-8 8l28 69l10 4
h366l6 -15l-16 -54l-12 -12h-160q-13 0 -24 -4t-22 -21t-18 -40q26 5 115 5q74 -8 105.5 -51t33 -75.5t-15 -54.5t-54.5 -41t-70 -18q-34 -1 -58.5 7.5t-49 33.5t-28.5 48t-7 39q-28 -19 -44 -59q-9 -19 -22 -70q14 -14 41 -35q36 -33 63.5 -63t54 -51t54 -36.5t56.5 -18.5
q22 -1 32.5 9t8.5 25q-2 16 -22 31t-61 9q-12 0 -12 11t6 23.5t17.5 24t20.5 11.5q15 2 57 -16q12 -11 19.5 -21.5t11.5 -22.5zM-290 -171q-5 -27 0.5 -43.5t18 -23.5t24.5 -11t29.5 -7.5t68.5 7.5t61 42.5t-34 49t-168 -13.5z" />
    <glyph glyph-name="afii62841.090" unicode="&#xe6c;" horiz-adv-x="49" 
d="M-63 -375q3 -12 -3.5 -36t-19 -47t-31 -39.5t-47.5 -16.5q-40 -5 -63.5 10t-47.5 47t-61.5 85t-66 78.5t-76.5 60.5l16 10q26 -14 42.5 -26t52.5 -42.5t63 -61t54.5 -52t54 -37t55.5 -16.5q23 -4 33 7.5t9 25.5q-3 17 -23 31.5t-60 9.5q-14 0 -14 11t7 23.5t19 23.5
q10 9 18 12q53 74 53 93q0 58 -90 79q-9 1 -31.5 -0.5t-44.5 -17.5t-22 -23q6 -21 15.5 -59.5t-12.5 -36.5q-6 0 -52.5 128.5t-57.5 132.5l41 82l302 -2l4 -19l-35 -61h-245l31 -138q6 18 12 32t17.5 26t31 21.5t45.5 9.5h16q67 -7 97 -35t30 -71q7 -27 -12 -63
q-21 -32 -58 -82q10 -4 23 -12q12 -11 20 -21.5t11 -23.5z" />
    <glyph glyph-name="afii62841.091" unicode="&#xe6d;" 
d="M1 -418q4 -12 -2 -36.5t-18.5 -46.5t-31 -39t-47.5 -17q-40 -4 -65 10t-47.5 46.5t-60 85.5t-66 79t-77.5 60l17 8q25 -11 42 -23t53 -43t63 -61t54 -51.5t53.5 -37t57.5 -16.5q22 -4 32 7.5t9 24.5q-3 16 -22.5 30.5t-59.5 11.5q-15 0 -15 10t7.5 22.5t19 24t19.5 11.5
q9 1 26 -3l-1 1q-32 26 -57 47t-76 47t-108.5 23t-68.5 -8t-33 -9q-8 -3 -8 7q47 73 78 80q10 0 19.5 4t17.5 11.5t23 13.5q13 8 23 11q-17 -1 -42 1q-24 2 -41.5 13.5t-27 31t4.5 40.5l23 34q-37 2 -37 3l3 1l34 71h305l-20 -68v-354q0 -1 -1 -5q8 -3 20 -8
q13 -11 20.5 -22t8.5 -23zM-67 -318q0 24 -7.5 128t-9.5 111q-26 -24 -53.5 -37.5t-59 -19.5t-48.5 -16.5t-27 -22.5q1 0 4.5 1t4.5 1q51 0 82.5 -17t45 -33.5t68.5 -94.5zM-83 -45q0 3 -0.5 9t-4 11t-8.5 8.5t-11 3.5h-167q-38 0 -41 -16q0 -45 45.5 -53.5t90 -1t55.5 11.5
t26 11.5t15 15.5z" />
    <glyph glyph-name="afii62841.092" unicode="&#xe6e;" 
d="M16 -442q2 -14 -3.5 -37.5t-17 -46.5t-31 -39t-47.5 -16q-41 -6 -65 9t-48 47.5t-61.5 85t-66.5 79t-76 58.5l17 10q26 -12 43 -23.5t52 -43.5t62.5 -61.5t55 -50.5t53.5 -36.5t57 -19.5q20 -1 31 9.5t10 25.5q-4 16 -24 30.5t-59 9.5q-13 0 -13 10.5t7 23t17.5 24
t19.5 11.5h5q-16 83 -29.5 111t-54 48t-98.5 21q-67 0 -110.5 -6t-73.5 -18q0 14 4 29.5t8 28t9 21t7 10.5q0 5 13 37t23.5 45.5t22.5 25.5q5 2 -13 2h-25q-12 0 -7 10l33 66q2 7 5 9t7 3l303 -1l9 -20l-34 -60l-11 -8h-181q-28 -1 -57.5 -15.5t-52.5 -72.5q0 -1 2 -3l2 -2
q8 3 37.5 7t86.5 4q73 0 118 -28.5t64 -78.5t31 -163v-11q6 -3 13 -7q14 -9 21 -20.5t10 -22.5z" />
    <glyph glyph-name="afii62841.093" unicode="&#xe6f;" 
d="M-56 -450q4 -12 -2 -36.5t-19 -46.5t-31 -39t-48 -17q-41 -4 -65 10t-47.5 47t-60.5 85t-65 78.5t-78 60.5l17 10q26 -13 42 -25t52 -43.5t63 -61t54.5 -51t53.5 -37t56 -17.5q21 -4 32 7.5t10 26.5q-5 16 -24 29.5t-58 11.5q-15 0 -15 10t8 23q8 11 17 22q-2 1 -2 3l6 5
l26 45q4 33 -6 51t-42.5 24t-49.5 4.5t-39 -10.5q12 -7 39 -48q7 -8 7 -12t-7 -4t-15 4q-17 12 -34 20.5t-37 13t-41 6t-51 1.5h-17q5 28 17.5 42t23.5 14l8 -1l23 36q0 2 1 2q1 1 1 3q0 1 -6 1h-13q-8 0 -13.5 1.5t-5.5 5.5t1 6l28 38h253q-16 18 -40 26q-33 11 -77.5 13
t-47.5 2q-45 0 -80 -6t-59 -15q0 10 2.5 20.5t7.5 20t9 16.5t7 8l9 21q9 20 31 44h-30q-18 0 -17 8l29 47q7 7 15 10h294l12 -3l-4 -12l-30 -42l-6 -7h-205q-25 0 -36 -10.5t-25 -33.5q-5 -12 -5 -14q8 4 34 6t76 2q81 0 120 -16.5t56.5 -49t26.5 -84t19 -124.5
q0 -4 -2.5 -6t-6.5 -2t-9.5 2t-5.5 6q-8 45 -20.5 89.5t-30.5 70.5q-4 -3 -35 -38h-133q-12 -1 -36.5 -4.5t-38.5 -17t-14 -20.5q15 -3 33 -9t32 -17q39 40 107 40t93.5 -19t25.5 -56q-3 -36 -66 -85q17 -4 42 -15q14 -10 22 -21t10 -23z" />
    <glyph glyph-name="uni1F6D.001" unicode="&#xe70;" horiz-adv-x="53" 
d="M-16 -408q2 -11 -0.5 -36.5t-13 -48.5t-27.5 -42t-45 -20q-40 -9 -65.5 3.5t-53 42t-69.5 78t-73 73t-82 52.5l17 11q24 -9 43 -20t57 -38.5t68 -54.5t59 -46t57.5 -32t57.5 -13q22 0 32 12.5t6 24.5q-4 16 -26.5 29.5t-59.5 5.5q-13 -3 -14 8t4.5 23.5t16 25.5t18.5 13
q4 3 15 0q-16 73 -32 112q-20 41 -44 62q-4 -17 -8 -33.5t-25 -34.5t-45 -28.5t-71 -13t-87 28.5t-36 65t34.5 78.5t95.5 53.5q88 0 112 -7q-8 25 -16.5 35.5t-20.5 13.5t-22 3h-155l-10 11l41 71h325l25 -1l-2 -19l-34 -54l-9 -8h-98v-61q27 -4 57.5 -48t55.5 -226
q0 -1 -6 -4q9 -1 17 -5q13 -10 23 -21t13 -21zM-197 -164q-122 34 -162.5 15t-31 -51.5t58 -46t90.5 4t45 78.5z" />
    <glyph glyph-name="uni1F6F.001" unicode="&#xe71;" 
d="M-42 -387q6 -12 4.5 -37t-8 -49t-22 -44.5t-42.5 -27.5q-39 -10 -66.5 -1.5t-57 36t-76.5 71.5t-79.5 65t-87.5 44l14 12q27 -8 46 -16t60.5 -31.5t74.5 -48t63 -40.5t59.5 -25t60.5 -5q21 1 30 13.5t3 27.5q-7 13 -29 24t-61 0q-12 -4 -14.5 6.5t1.5 24t13 26.5t17 16
q13 4 47 -3q-64 59 -141 86q-81 30 -161 30q-27 0 -54.5 -4t-55.5 -11q5 31 10 50t10 30.5t10.5 16.5t12.5 5q0 13 22.5 52t30.5 47q10 6 13 13q-29 1 -37 1q-17 0 -17 8l2 4q2 3 3 4l38 81h206v-16l-43 -81h-64q-25 -4 -46 -15.5t-48.5 -40.5t-27.5 -43q0 -1 1 -2v-2
q14 2 26.5 3t27.5 1q32 0 67 -8t70.5 -29t146.5 -152q-7 57 -21.5 158.5t-56.5 145.5l43 81h97l-5 -21q-17 -37 -36 -72v-313q0 -8 -2 -12q8 -7 15 -12q9 -10 14 -21z" />
    <glyph glyph-name="uni1F74.001" unicode="&#xe72;" 
d="M-39 -408q4 -14 -0.5 -38t-16 -47t-30.5 -40.5t-47 -19.5q-40 -4 -64 9t-49.5 44.5t-66 82.5t-70 77t-77.5 56l16 11q26 -12 43.5 -23.5t55 -40.5t65 -58.5t55.5 -50t55.5 -35t56.5 -15.5q22 -1 32 10.5t8 25.5q-2 17 -23 30.5t-61 6.5q-13 0 -13 10.5t6 23.5t16 24.5
t18 12.5q9 0 25 -2q-33 29 -93 66q-65 39 -99.5 49t-72.5 10q-28 0 -67 -5.5t-73 -21.5q9 29 15.5 47.5t12.5 28t10 15.5t9 8q-1 46 16.5 75.5t32.5 53.5q-34 2 -40.5 4.5t-6.5 5.5q0 1 2 2.5t2 2.5l37 76h205l8 -4v-15l-33 -61l-7 -8l-95 3q-39 -8 -73 -51.5t-25 -75.5
q16 3 35 7t42 4t41 -4t34 -7q96 59 117 74t21 37q-8 18 -26 24l41 77h92l8 -4v-15q-13 -23 -38 -82v-322q0 -2 -1 -5l3 -1q13 -10 21 -21t11 -21zM-98 -333q0 38 -3.5 58.5t-33.5 206.5q-25 -23 -35 -31t-40.5 -29t-48.5 -35q39 -21 91.5 -83t69.5 -87z" />
    <glyph glyph-name="uni1F75.001" unicode="&#xe73;" 
d="M-11 -403q4 -12 0.5 -37t-12.5 -48.5t-26 -42t-45 -22.5q-40 -9 -65.5 2.5t-53 41t-88 86.5t-91 79.5t-84.5 49.5l20 18q20 -8 39 -17.5t70.5 -41t87.5 -65.5t65 -53t58 -31t58 -11q22 0 30.5 11.5t5.5 26.5q-5 16 -26.5 28.5t-61.5 2.5q-12 0 -12.5 9.5t4.5 23.5
t14.5 26.5t17.5 13.5q12 1 35 -4q-2 3 -3 5q-67 58 -145.5 87t-158.5 29q-28 0 -55.5 -4t-54.5 -9q3 30 9 49.5t10.5 31t10 16t12.5 6.5q0 12 9.5 28.5t24 39.5t21.5 29q8 5 13 15q-54 0 -54 8q0 1 1.5 3.5t1.5 4.5l39 81h343l24 -4l-1 -20l-31 -69v-314q0 -10 -1 -16l8 -2
q15 -9 24 -19t13 -22zM-80 -321q-3 102 -22 193t-56 94h-133q-23 -3 -46.5 -14.5t-50 -41t-26.5 -42.5q0 -2 1 -4v-2q13 2 26.5 4t28.5 2q31 0 66.5 -8.5t69.5 -29.5t142 -151z" />
    <glyph glyph-name="uni1F76.001" unicode="&#xe74;" 
d="M-42 -430q6 -11 3 -35t-11.5 -49t-24.5 -44.5t-43 -22.5q-40 -11 -67 0t-54.5 40t-73 75.5t-77 68t-83.5 47.5l13 13q29 -9 47 -18.5t58 -35t71 -51.5t61 -43.5t59 -28t58 -9.5q22 0 31 13t6 27q-6 15 -27.5 26t-60.5 1q-13 -1 -14.5 10t3 23.5t13.5 25.5t17 14h5l12 29
q-1 25 -13.5 43.5t-46.5 24.5t-53 5.5t-40 -11.5q11 -10 41 -49q5 -11 5 -12q0 -5 -5 -5q-8 0 -16 5q-18 12 -36 20t-39.5 13.5t-45.5 7t-54 1.5q-5 0 -10.5 -0.5t-9.5 -0.5q4 31 18 44.5t29 13.5h6l25 35h1q0 2 2 2v3q0 1 -5.5 1t-14 1t-15.5 2t-7 6q0 1 1 5l31 39h298
q-51 19 -82 27t-74.5 15t-118 7t-122.5 -17q7 21 9.5 33.5t6.5 21t10 11.5q5 2 10 2q12 23 17 32.5t9.5 14t5 7.5t0.5 4q-1 0 -2 1h-6q-4 0 -15 -0.5t-18 -0.5q-4 0 -6 2.5t-2 5.5l1 1v3l39 53h386l9 -4v-11q-17 -18 -38 -41v-167h4l-30 -53h-189q-12 -1 -37.5 -3.5
t-41.5 -17.5t-16 -20h1q16 -3 35 -9t34 -17q41 39 114 39t101.5 -19.5t28.5 -58.5q-6 -30 -46 -66q8 -2 18 -6q16 -8 24.5 -17.5t13.5 -21.5zM-78 -144q-5 34 -18.5 84t-37.5 59l-188 -1q-23 -3 -39 -9t-23 -14.5t-14 -13.5t-7 -13l1 -3q14 2 50.5 1t65.5 -3.5t52.5 -7
t157.5 -79.5z" />
    <glyph glyph-name="uni1F77.001" unicode="&#xe75;" 
d="M-32 -377q4 -12 2.5 -37t-8 -49.5t-22 -44.5t-45.5 -25q-37 -12 -64 -1.5t-56.5 37.5t-76.5 71.5t-79.5 66t-86.5 42.5l15 14q29 -8 46.5 -16t58.5 -32.5t74 -49t63 -40.5t59.5 -25.5t59.5 -6.5q21 0 29 13t5 26q-6 16 -28.5 26t-60.5 0q-13 -2 -15 7.5t2 24t13 27
t17 14.5q13 5 47 -2q-81 69 -105 89q-21 19 -44 35q-19 17 -43 34q-3 -12 -13 -32q-8 -19 -24.5 -38t-40.5 -30t-51 -11q-45 0 -74 21t-27 65q0 31 9 56t24 44.5t30 31.5t30 12q29 0 48 -3.5t32 -5.5q0 9 -11.5 28.5t-27 20t-23.5 0.5h-85l-9 14l39 69h232l5 -7v-11l-28 -56
l-7 -9h-57v-55q40 -9 77 -38t139 -198q0 19 -2 39t-18 116t-27 121.5t-30 29.5l35 68h98l5 -18q-8 -13 -39 -78v-309q11 -8 19 -15q11 -9 15 -20zM-296 -167q-38 19 -66 26.5t-57.5 5t-35.5 -7.5t-10 -16q0 -9 4.5 -28t19 -29.5t33.5 -15.5t35 -5q23 0 37.5 5t23 15.5
t12.5 22t4 27.5z" />
    <glyph glyph-name="uni1F78.001" unicode="&#xe76;" horiz-adv-x="49" 
d="M-18 47l-37 -76v-306q0 -6 -4 -8t-7 -2t-9.5 3.5t-8.5 11.5q-23 26 -77.5 65.5t-82 60t-51.5 25.5q-3 -12 -11.5 -25t-21 -25t-29 -19.5t-37.5 -7.5q-30 0 -59 9.5t-51 30t-28.5 56t2 65.5t26.5 58q1 1 1 3v4q0 9 -25 13l-8 12l37 69h87l7 -4v-13l-27 -56l-8 -8h-6
q-15 -4 -29 -39t-5 -57.5t24.5 -40t40.5 -26t66 -0.5q19 0 30 10.5t15.5 25t5 29t0.5 21.5q0 19 -4 33t-10.5 23.5t-14 16.5t-26.5 10v14l36 61h82l7 -4v-13l-42 -69v-65q58 -36 111.5 -114t74.5 -95q-21 255 -65 293v17l25 50h96l10 -4v-13zM-42 -377q6 -12 4.5 -37
t-8 -49.5t-22.5 -44.5t-42 -27q-40 -11 -67 -2t-56.5 36.5t-77 71.5t-80.5 64t-88 43l15 12q27 -7 45.5 -15t60 -31t74.5 -47t63.5 -40.5t60 -26t59.5 -4.5q21 1 29.5 13t4.5 27q-7 15 -29 25t-61 -1q-13 -4 -14.5 7t2.5 24.5t12 27t16 14.5q16 4 58 -4q17 -8 26.5 -16.5
t14.5 -19.5z" />
    <glyph glyph-name="uni1F79.001" unicode="&#xe77;" 
d="M-15 -423q1 -12 -4 -36t-18 -47.5t-32 -39.5t-46 -16q-41 -6 -65.5 9t-47.5 47.5t-61 85t-66 79.5t-76 60l17 9q24 -13 41.5 -24.5t53 -43t62.5 -61.5t54 -51t54 -36.5t57 -18.5q21 -1 31.5 9t9.5 25q-4 16 -23.5 31t-59.5 9q-13 0 -13 11t6.5 24t18.5 24.5t20 11.5
q14 1 55 -17q5 -4 11 -6q-61 75 -114 114q-65 46 -132 48t-102.5 -6t-50 -11.5t-25.5 -3.5q-4 0 -7.5 2t-3.5 6v6q11 30 22 48t24 28t28.5 15t71.5 7h66q0 25 -7.5 54t-16 38.5t-17 12t-12.5 2.5h-128l-9 14l31 63q5 10 16 11h370l9 -4v-15l-32 -61l-11 -8h-167l5 -111
q40 -8 92.5 -48.5t85 -112t55.5 -111.5v-8q0 -3 -4 -7l-4 -4q-4 0 -7.5 4t-5.5 8l-3 5q3 -6 4 -13z" />
    <glyph glyph-name="uni1F7A.001" unicode="&#xe78;" horiz-adv-x="49" 
d="M-39 -389q6 -11 6 -36t-7.5 -50t-22.5 -45.5t-43 -25.5q-37 -14 -64.5 -4.5t-57 36.5t-78 70.5t-82 63.5t-88.5 43l15 12q29 -8 47.5 -16t60 -30t74 -46t64 -40t61 -25t57.5 -6q23 4 31 16t3 26q-6 15 -28.5 25.5t-60.5 -2.5q-13 -3 -15.5 7t1.5 24.5t13.5 28t14.5 14.5
q14 4 47 -1q-10 13 -31 28q-25 16 -55.5 31t-65.5 26t-106 13l-63 -13q0 11 8.5 28.5t23 35.5t23 29.5t43.5 14.5h3q19 13 28 30.5t9 27.5v7q-4 9 -10 20.5t-18 21t-35.5 15.5t-74.5 5q-49 -11 -62 -44t16 -75t29 -58q0 -4 -1.5 -9.5t-1.5 -6.5l-55 -56l-16 -2
q-20 40 -32.5 107.5t27 131.5t79.5 101v4h201l4 -15l-15 -54q22 -22 22 -39q0 -33 -15.5 -66t-34.5 -49q34 -5 56 -22t60 -67.5t59 -68.5q0 58 -19 156.5t-61 139.5v27l37 58h103l9 -10v-13l-41 -85v-299l-7 -8h-7q15 -8 25 -16.5t14 -20.5z" />
    <glyph glyph-name="uni1F7B.001" unicode="&#xe79;" 
d="M-1 -384q1 -11 -2.5 -37t-14 -51t-30 -45t-51.5 -22q-44 -12 -75 -0.5t-61.5 41.5t-80 78.5t-86 71t-74.5 42.5l19 10q9 2 30 -8t64.5 -37t79.5 -54t68.5 -45t66 -29.5t66.5 -11.5q26 1 36.5 13t6.5 27q-5 16 -29 28.5t-70 1.5q-14 -3 -16 8.5t4.5 26t17.5 27t19 14.5
q7 1 15 1q-72 40 -236 50q-21 0 -45.5 -4t-47.5 -8q7 40 26.5 61t45.5 21l-2 5q25 41 27 46h1v3h-8q-8 0 -12 0.5t-8 2t-4 2.5l4 5l34 60h35q21 15 21 33q0 15 -7 30.5t-49 17.5h-66q-27 0 -37.5 -9.5t-12.5 -32.5t8.5 -35.5t26.5 -31.5v-7q0 -7 -7 -15t-17 -15.5t-19.5 -12
t-13.5 -4.5q-3 0 -3 1v4q-25 35 -29 53.5t-4 27.5q0 12 6 28.5t17 32.5t26.5 33.5t29.5 28.5l29 25h180l-24 -60q13 -31 3 -54.5t-25 -37.5h158q-2 22 -14.5 46t-53.5 46v18l27 42h102l5 -6v-11q-8 -11 -35 -55v-80h23l7 -4v-12l-22 -36l-8 -6v-190q10 -3 22 -6
q17 -9 27 -19t16 -21zM-110 -160h-186q-11 -7 -44 -54h1q64 0 97.5 -12t78.5 -38t73 -50z" />
    <glyph glyph-name="uni1F7C.001" unicode="&#xe7a;" 
d="M1 -434q4 -13 1.5 -37.5t-11.5 -49t-26 -42.5t-47 -22q-39 -10 -64.5 1.5t-52 41.5t-71 78t-76.5 70.5t-83 49.5l15 14q27 -12 45.5 -21t58 -36.5t69 -54t59.5 -44.5t57.5 -30t58.5 -11q23 0 32.5 12t5.5 27q-5 15 -26 27t-61 4q-15 -1 -15.5 9t4.5 23.5t15 25.5t19 14
q6 1 21 0l-27 220q-17 -31 -34 -44.5t-34.5 -24t-31.5 -10.5q-26 0 -53.5 5.5t-49 19t-35 38.5t-13.5 67q-6 -16 -11 -33.5t-5 -35.5q0 -24 5 -51t9.5 -43.5t14.5 -48.5q-3 -23 -6 -25.5t-7 -2.5q-71 105 -95 126.5t-51 29t-53 11.5q9 37 29 57t32 21h10q49 -5 59 -35.5
t8 -55.5t40 -90q-16 44 -21.5 76t-5.5 57q0 35 10 58.5t21 39.5q30 56 78 89.5t115 33.5q21 0 44.5 -4t38.5 -9l43 8q4 0 7.5 -1.5t7.5 -10.5l-8 -438l-1 -1l6 -1q13 -10 22.5 -20t13.5 -21zM-101 -75q0 33 -24.5 52.5t-75.5 19.5q-36 0 -59 -7t-37 -17.5t-17 -26t-3 -37.5
q0 -18 11 -33.5t31 -27t45 -16.5t50 -5q54 0 66.5 25t12.5 73z" />
    <glyph glyph-name="uni1F7D.001" unicode="&#xe7b;" horiz-adv-x="49" 
d="M-480 48q7 8 9 10t6 1l44 -8q13 5 38 9t45 4q67 0 115.5 -32.5t80.5 -84.5q8 -15 18.5 -38.5t10.5 -56.5q0 -24 -6 -56t-22 -72q50 54 45 81.5t21.5 59.5t83.5 48h9q14 -3 34.5 -22t30.5 -54q-27 -4 -66 -12.5t-74 -43.5t-109 -122q-6 0 -7 3.5t-1 10.5q10 31 15 55t9 49
t4 50q0 17 -4 34t-10 32q0 -39 -14 -64t-35 -38t-48 -17t-55 -4q-15 0 -33 8.5t-35 23t-34 42.5l-27 -343q0 -5 -22 -5q-1 0 -4.5 0.5t-3.5 4.5zM-412 -69q0 -48 13 -71.5t67 -23.5q25 0 50.5 4.5t46 16t32 26.5t11.5 33q0 19 -4 34.5t-16.5 26t-36 16.5t-59.5 6
q-54 0 -79 -18.5t-25 -49.5zM-36 -439q1 -13 -5 -36.5t-18 -47t-31 -39.5t-48 -16q-38 -6 -62 9t-48 47.5t-62.5 85t-52.5 69.5t-61 50l22 15q28 -12 42.5 -27t34 -36.5t47 -51.5t54 -51t54 -36.5t56.5 -18.5q22 -1 32.5 9t8.5 25q-2 16 -22 31t-61 9q-12 0 -12 11t6 23.5
t17.5 24t20.5 11.5q15 2 57 -16q12 -11 19.5 -21.5t11.5 -22.5z" />
    <glyph glyph-name="afii62841.028" unicode="&#xe7c;" 
d="M-31 -376q7 -11 3.5 -36.5t-11.5 -50t-23.5 -43t-43.5 -24.5q-40 -9 -66 0.5t-54.5 37.5t-74.5 74.5t-78.5 68.5t-84.5 46l15 13q28 -8 45.5 -17.5t58.5 -34t72.5 -50.5t61.5 -43t59.5 -27.5t59.5 -9.5q21 2 30.5 14t3.5 27q-5 15 -27 26.5t-61 1.5q-12 -3 -14 7.5t3 24
t14 26t18 15.5q8 3 31 -3l-4 4q-115 120 -158.5 160.5t-87 69t-72.5 39.5q-16 -9 -24.5 -17.5t-27.5 -33.5q0 -4 2 -9t2 -8q27 -6 50.5 -21.5t44 -32t47 -63.5t26.5 -51t-2 -6t-5 -2q-5 0 -16 8q-46 43 -93.5 63t-90.5 20q-12 0 -24.5 -2t-24.5 -7q4 26 17 49.5t40 44.5v3
q0 14 33.5 57t45.5 55l-57 4l-7 8l23 52q1 4 6 8t10 5h201l7 -4v-13l-29 -58q-1 -2 -5 -2h-12q-8 0 -13.5 -0.5t-5.5 -4.5q0 -3 6 -8q52 -41 113.5 -137.5t81.5 -120.5q-18 198 -31 232.5t-34 50.5v19l29 46h94l8 -4v-13q-5 -7 -36 -73v-304q0 -5 -4 -7h4q15 -8 23.5 -18
t12.5 -21z" />
    <glyph glyph-name="afii62841.029" unicode="&#xe7d;" 
d="M-55 -385q3 -13 -3 -37t-19 -46.5t-31 -39t-48 -16.5q-40 -4 -63.5 10t-47.5 46.5t-61.5 85t-65.5 79t-77 58.5l16 9q27 -12 43.5 -23.5t52.5 -42.5t62.5 -60.5t54 -51t54 -37t55.5 -19.5q23 -2 33 9t9 26q-3 16 -23 30t-59 12q-15 0 -15 10t7.5 22t18.5 24q5 7 10 8l3 4
q50 49 48 87v11q-6 35 -19 62t-50 38.5t-57 7.5t-43 -19q13 -12 45 -75q5 -16 5 -18q0 -9 -5 -9q-8 0 -18 10q-19 17 -38 29.5t-42 20.5t-48.5 10t-57.5 2h-20q3 43 18 66t29 23l7 -4l29 57l1 1q2 3 2 5t-7.5 2.5t-17 2t-16 3t-6.5 6.5q0 4 2 8l34 60h318l12 -11l-30 -69
l-190 -2q-14 0 -42 -4t-44 -25.5t-16 -33.5q16 -3 37 -13t38 -27q44 63 121.5 62.5t107.5 -50t11 -122.5q-32 -71 -56 -93q-2 -3 -3 -4q11 -5 24 -11q13 -11 20.5 -21.5t10.5 -22.5z" />
    <glyph glyph-name="uni1F80.001" unicode="&#xe7e;" 
d="M-152 -376q-6 7 -1.5 14.5t9.5 22t5 31.5q0 13 -4 24t-11 19q0 -25 -13 -41t-33 -27.5t-45.5 -15.5t-50.5 -4q-38 3 -64 15t-61 53l-19 -203q0 -3 -8 -3q-1 0 -10.5 1t-9.5 2l8 336l56 -8q14 4 36.5 7t44.5 3q66 0 109.5 -16.5t55.5 -30.5t30 -46.5t3 -97.5q24 22 26 39
t17.5 33t53.5 16h5q15 -1 34.5 -13.5t35.5 -41.5h-41q-33 0 -60.5 -9.5t-53.5 -36.5t-44 -22zM-47 -223l-13 -10l-11 10l-34 221h-120q2 -16 7.5 -65.5t9.5 -92.5h-24q-8 35 -25.5 97t-49.5 65t-50 0q-6 -3 -6 -11v-19q0 -14 -4.5 -28.5t-22.5 -26.5q-8 -7 -21 -11.5t-31 -8
t-36 -8t-37 -11.5l11 28l9 26q7 5 19 8t23.5 5.5t21.5 5t11 4.5q8 4 15.5 11.5t9.5 15.5q4 8 -0.5 12.5t-9.5 8.5q-1 2 -10 2h-21q-12 0 -22.5 0.5t-12.5 0.5l40 57h412q-9 -26 -25 -61zM-67 -460q3 -13 -2.5 -36.5t-18.5 -47.5t-32 -40t-46 -16q-42 -4 -66 10t-48 46.5
t-61 92.5t-86 93q6 16 17 9q27 -12 44 -27.5t30 -28.5t33 -38t47.5 -46.5t54.5 -36.5t55 -19q22 -1 33 10t8 24q-2 16 -22 31t-61 10q-12 0 -12 10.5t7.5 23.5t18 24.5t18.5 11.5q15 1 57 -16q13 -10 21.5 -21.5t10.5 -22.5zM-405 -240q0 -31 17.5 -46.5t70.5 -15.5
q22 0 48 3.5t44 11.5t29.5 17t11.5 21t-4 22t-15.5 18.5t-35 12.5t-57.5 4q-50 0 -79.5 -13.5t-29.5 -34.5z" />
    <glyph glyph-name="uni1F82.001" unicode="&#xe7f;" 
d="M-27 -398q5 -10 6.5 -35t-5.5 -50t-22 -45.5t-42 -26.5q-40 -14 -66 -6t-57.5 34.5t-80 68.5t-82.5 61.5t-88 39.5l12 13q30 -6 48 -13.5t61 -29t76.5 -44.5t65 -37.5t61.5 -23t58 -4.5q23 1 30.5 14.5t1.5 25.5q-6 17 -29 25.5t-62 -3.5q-11 -4 -13.5 7t1 24.5
t11.5 27.5t17 15q12 6 58 -1q-2 1 -4 3q-101 152 -135.5 190t-70 62t-76.5 35l-17 -23q17 0 37.5 -8t35 -21t24.5 -31t10 -37q0 -18 -5.5 -35.5t-18.5 -33.5q-24 -32 -55 -54.5t-70 -22.5q-16 0 -40 7.5t-43.5 32t-36 78.5t3.5 198q-10 10 -11 10q-12 0 -20 0.5t-8 8.5l2 1
l35 64h78l6 -4v-12l-30 -44l-15 -14q-12 -7 -15.5 -20.5t-5.5 -50.5q0 -20 1 -58.5t20.5 -65.5t49 -47t78.5 -20q18 0 33 6.5t27 22.5q5 7 5 19q0 22 -37 43.5t-110 21.5q8 22 22.5 43.5t27.5 24.5l65 75l-9 6h-47l-4 10l33 64h172l5 -4v-12l-27 -50l-5 -8h-47l-7 -6
q33 -19 63.5 -48.5t55.5 -64t64 -151.5q-18 226 -30.5 252.5t-21.5 30.5v18l25 43h86l8 -4v-12q-7 -7 -13.5 -22t-22.5 -51v-332q0 -7 -6 -8q8 -5 16 -11q10 -8 15 -21z" />
    <glyph glyph-name="uni1F83.001" unicode="&#xe80;" horiz-adv-x="662" 
d="M652 -107q0 -11 -10 -11q-9 0 -13 11q-39 102 -80.5 171t-86 118.5t-86.5 81t-91 42.5l-25 -29q25 0 49.5 -10t42.5 -27t30.5 -40.5t12.5 -48.5q0 -22 -7 -44.5t-23 -43.5q-30 -42 -68 -71.5t-86 -29.5q-22 0 -51 10t-53.5 41t-44 101t1.5 257q-8 13 -9 13q-15 0 -25 2
t-10 10l2 3l41 82h98l7 -5v-16l-37 -56l-18 -20q-12 -8 -17.5 -25t-8.5 -64q0 -28 2.5 -77.5t25.5 -85t59.5 -61.5t93.5 -26q26 0 42.5 9t34.5 30q6 10 6 25q0 31 -46 56.5t-136 25.5q12 31 28 56.5t36 31.5l77 100l-8 5h-58l-7 15l41 82h213l6 -5v-16l-33 -66l-7 -10h-59
l-8 -5q41 -26 79 -65t68 -82.5t96 -280.5z" />
    <glyph glyph-name="uni1F84.001" unicode="&#xe81;" horiz-adv-x="608" 
d="M508 -38q2 -108 -36.5 -163.5t-83.5 -78.5t-88 -8t-66.5 29.5t-51 23t-57.5 5.5t-38.5 -9t-11.5 -9q36 -4 65 -23t61 -50.5t65 -49.5t78 -24q28 -3 52.5 2.5t48.5 18.5t70 62t56 63q3 3 14 7t14 4q4 0 1 -11l-1 -12q-11 -12 -66 -75.5t-104.5 -98.5t-101 -34t-90 19.5
t-76 55t-74.5 79t-71 38.5q5 21 18.5 35.5t33.5 28t68 18.5q35 3 66 -7.5t79.5 -36.5t90.5 -6t58 49t9 101q-1 21 -9.5 48t-23 43t-39 20.5t-60.5 4.5q-13 0 -25.5 -4t-28.5 -13t-24.5 -19t-8.5 -18l28 -115q-13 -36 -19 -36q-1 0 -6 4.5t-5 16.5q-19 77 -126 377l44 90h158
q0 30 -12.5 51.5t-25.5 28.5h-117l-8 15l40 82h320l9 -5v-16l-34 -66l-7 -10h-139v-80h188l-8 -22l-31 -67l-10 -8h-289l41 -201q18 50 60 76.5t82 26.5q27 0 52 -3t47 -16.5t36 -42.5t20 -85z" />
    <glyph glyph-name="uni1F85.001" unicode="&#xe82;" horiz-adv-x="545" 
d="M504 202q9 -50 13 -95t5 -90l2 -90q1 -45 2 -94q4 -12 4.5 -20.5t0.5 -15.5q0 -14 -5 -14t-12 19q-14 41 -46.5 73.5t-63.5 52.5t-68 31.5t-72 11.5h-22q-9 0 -19.5 -0.5t-30 -9t-23.5 4.5q6 41 14.5 69.5t16.5 28.5q23 108 46 143q0 3 -21.5 2.5t-28.5 -0.5h-27
q-31 0 -41 -15.5t-19.5 -61t-16 -180t-6.5 -167.5l-8 -210q0 -5 -2 -7t-9 -2q-21 0 -26 2t-5 7v597q0 43 38.5 88.5t55.5 45.5h145q0 23 -8 46q-8 24 -25 32h-138l-9 15l38 73q5 9 17 9h326l10 -5v-16l-34 -66l-9 -10h-140v-78h226q17 -4 9 -23zM492 -109q-6 81 -23.5 159.5
t-52.5 158.5h-98q-49 -17 -91 -139q35 0 98.5 -20.5t166.5 -158.5z" />
    <glyph glyph-name="uni1F86.001" unicode="&#xe83;" horiz-adv-x="570" 
d="M523 -433q-23 18 -48 41q-13 9 -33 25.5t-45 33.5q-57 39 -122 49q-33 5 -54.5 6.5t-31.5 1.5l-28 -1q-12 -2 -27 -2q-31 -2 -58 -5.5t-43 -5.5q11 49 24 72t37 30q6 1 27.5 2.5t45 1.5t42 -1.5t27.5 -2.5q57 -4 97.5 -28.5t88 -76.5t70.5 -76l-4 189q0 46 -16 207
t-55 183h-84l-3 -286q1 -39 1 -42q-13 -5 -17 8q-6 28 -32 46.5t-71 38t-106.5 13.5t-93.5 -17l-1 4q-1 3 -1 4q0 43 12.5 69.5t21.5 26.5q13 50 38.5 90.5t32.5 48.5h-53q-8 3 -4 19l27 58q8 12 16 16h196q0 31 -14 53q-14 20 -22 24h-145l-8 15l33 65q2 9 6.5 13t11.5 4
h349l8 -5v-16l-32 -66l-13 -10h-146v-77h216q8 -1 8 -16l-25 -85v-639zM308 -60q1 78 -23.5 164.5t-51.5 105.5h-57q-33 -4 -63 -49.5t-46 -84.5q43 -1 78.5 -3.5t56 -15t106.5 -117.5z" />
    <glyph glyph-name="uni1F87.001" unicode="&#xe84;" horiz-adv-x="455" 
d="M21 -53q0 43 11 74.5t32 53.5t45.5 33.5t53.5 11.5q41 0 83 -26t79 -68l29 189h-308l-8 10l17 66l10 13l14 9h165q-1 18 -8 39q-9 24 -26 32h-138l-9 15l38 73q5 9 17 9h327l9 -5v-16l-34 -66l-9 -10h-140v-71h160l12 -19l-6 -72q-17 -21 -43 -99.5t-85 -277.5
q-4 -10 -6 -21t-8 -11q-7 0 -14 15t34 163q0 7 -5 10.5t-15.5 11.5t-26.5 13.5t-33 5.5q-42 -4 -71.5 -15.5t-47.5 -32t-23.5 -45.5t-5.5 -56q0 -24 15 -71.5t124 -287.5q2 -7 -1 -11t-7 -4q-14 -8 -18 -6.5t-5 6.5q-102 206 -129.5 267t-36 103.5t-8.5 67.5z" />
    <glyph glyph-name="uni1F88.001" unicode="&#xe85;" horiz-adv-x="480" 
d="M463 -57q0 -35 -23.5 -80t-116.5 -189q70 -66 86 -88v-27q-10 10 -32.5 29.5t-55.5 39.5t-76 33.5t-92 13.5q-46 0 -79.5 -2.5t-61.5 -10.5q17 109 105 105t117.5 -19.5t69.5 -53.5q6 6 50 84t44 104q0 57 -37.5 98t-117.5 48q-2 0 -6 0.5t-8 0.5q-18 0 -26.5 -6.5
t-17 -13.5t-11 -13.5t-2.5 -12.5l20 -81l-3 -1q0 -16 -7 -16q-8 0 -12.5 6.5t-5.5 17.5l-119 308l46 93h158q0 19 -8 42q-8 24 -26 32h-137l-10 15l38 73q5 9 17 9h327l9 -5v-16l-34 -66l-9 -10h-140v-74h165l8 -7v-16l-32 -65l-8 -9h-294l50 -203q4 54 44 79.5t84 25.5
q32 0 63 -11t54 -33.5t38 -53t15 -70.5v-4z" />
    <glyph glyph-name="uni1F89.001" unicode="&#xe86;" horiz-adv-x="474" 
d="M427 229v-460q0 -5 -2.5 -7t-3.5 -2q-6 0 -10 9q-37 33 -65.5 61t-86.5 61.5t-124.5 29.5t-78.5 -10t-38 -10q-9 -7 -9 7q55 94 90 102q11 2 22 7t20.5 13.5t25 18.5t30.5 14q-23 -1 -52 2t-49 17.5t-29.5 40t5.5 52.5l27 43q-24 3 -34 4q-8 0 -5 8l31 65q8 20 16 20h147
q-2 19 -6 37q-9 24 -30 32h-121l-8 15l37 73q6 9 17 9h298l8 -5v-16l-32 -66l-10 -10h-123v-69h154q8 0 8 -6.5t-4 -17.5zM400 -179q0 35 -6.5 169.5t-11.5 142.5q-31 -31 -62 -48t-66.5 -25.5t-54.5 -21t-33 -31.5q3 0 6 1.5t5 1.5q61 0 96 -22t51 -42.5t76 -124.5z
M384 176q0 6 -1 13t-5 13.5t-9.5 11t-12.5 4.5h-191q-43 0 -47 -19q0 -58 51.5 -69.5t102.5 -2.5t64 15t30.5 15.5t17.5 18.5z" />
    <glyph glyph-name="uni1F8A.001" unicode="&#xe87;" horiz-adv-x="484" 
d="M467 -511q-20 16 -44 33.5t-54.5 32t-65.5 24.5t-78 10h-8l47 78q0 22 11 43.5t29.5 42t41 38.5t43.5 29q-10 52 -27.5 86t-40.5 55.5t-55 31.5t-74 13q-8 0 -16 0.5t-12 0.5q-52 0 -91 -8t-68 -19q0 15 3.5 31.5t9.5 32t10.5 24t6.5 11.5q0 1 -0.5 6.5t-0.5 8.5
q11 30 28.5 63.5t29.5 56.5h1v3q2 0 2 1q0 3 -17 3h-20q-14 1 -9 16l33 70q6 12 13 14h144q-2 15 -6 31q-10 24 -30 32h-121l-9 15l38 73q5 9 16 9h298l8 -5v-16l-31 -66l-10 -10h-124v-63h128l10 -7v-16l-34 -65l-12 -10h-160q-23 0 -50 -8t-53 -47t-26 -67v-7q11 7 40.5 9
t86.5 2q71 0 116 -26.5t61.5 -81t33.5 -141t37 -206.5zM400 -227q-26 -11 -43 -24t-33 -27t-25 -27t-9 -28v-2q29 0 51.5 -9.5t40 -25t49.5 -76.5z" />
    <glyph glyph-name="afii62841.030" unicode="&#xe88;" horiz-adv-x="550" 
d="M59 229q-5 1 0 1l-2 11l30 61l12 12h188q-1 17 -9 38q-8 24 -28 32h-141l-8 15l39 73q5 9 16 9h355l8 -5v-16l-32 -66l-11 -10h-162v-70h200l11 -8l-3 -11l-14 -73v-609q-6 -13 -40.5 23.5t-67 59.5t-79.5 39t-110 16q-15 0 -34.5 -1.5t-41.5 -3.5t-43.5 -4.5t-37.5 -6.5
q16 52 27.5 75t32.5 27q8 4 54.5 7.5t115.5 -31t122.5 -81t69.5 -61.5v170q-25 327 -59 376h-112q17 -242 21 -308h-31q-9 69 -22 175t-41 134q-21 8 -61 5q-8 -1 -7.5 -20.5t-0.5 -38.5q0 -24 -4.5 -50.5t-21.5 -43.5q-12 -11 -25.5 -18t-31 -13.5t-37.5 -14.5t-35 -18
l-1 14l7 32l13 43q7 8 17.5 14t24 10.5t24 7t13.5 7.5q8 10 15.5 20t10.5 26q1 11 -3.5 24.5t-11.5 20.5q0 1 -9.5 2.5t-22 2t-22.5 0.5h-4v-1v0z" />
    <glyph glyph-name="afii62841.031" unicode="&#xe89;" 
d="M-52 -252l21 -1l-1 -16l-32 -56l-7 -8h-95v-58q25 -4 54 -46.5t54 -238.5q0 -5 -17 -9q-5 0 -9 2t-4 5q-17 90 -33.5 130t-40.5 60q-3 -18 -6.5 -34t-24 -33.5t-43.5 -28.5t-68.5 -13.5t-84 28.5t-35 64t33 77t92.5 53q85 0 108 -6q-7 24 -16 35t-20 12t-22 1h-149l-9 12
l40 69h236l4 6q36 47 14.5 77.5t-58.5 42t-57 7.5t-43 -19q13 -12 45 -75q5 -16 5 -18q0 -9 -5 -9q-8 0 -18 10q-19 17 -38 29.5t-42 20.5t-48.5 10t-57.5 2h-20q3 43 18 66t29 23l7 -4l29 57l1 1q2 3 2 5t-7.5 2.5t-17 2t-16 3t-6.5 6.5q0 4 2 8l34 60h318l12 -11l-30 -69
l-190 -2q-14 0 -42 -4t-44 -25.5t-16 -33.5q16 -3 37 -13t38 -27q44 63 121.5 62.5t106 -36.5t8.5 -109l-29 -42q-2 -1 -2 -4h34zM-188 -470q-116 32 -154.5 14t-29.5 -49.5t55 -44t86.5 4.5t42.5 75z" />
    <glyph glyph-name="afii62841.032" unicode="&#xe8a;" horiz-adv-x="707" 
d="M646 -33v-316q0 -11 -12 -13q-9 -3 -20 4q-104 60 -205 60h-21q-11 0 -20 -2q52 109 238 216l1 13q-34 77 -67 134q-41 70 -85.5 119.5t-87 81t-91.5 42.5l-24 -29q24 0 48.5 -10t43 -27t31 -40.5t12.5 -48.5q0 -22 -7 -44.5t-23 -43.5q-31 -42 -68.5 -71.5t-85.5 -29.5
q-22 0 -51.5 10t-54 41t-43.5 101t2 257q-8 13 -9 13q-15 0 -25 2t-10 10l2 3l41 82h98l7 -5v-16l-38 -56l-17 -20q-12 -8 -17.5 -25t-8.5 -64q0 -28 2.5 -77.5t25.5 -85t59.5 -61.5t93.5 -26q26 0 42.5 9t34.5 30q6 10 6 25q0 31 -46 56.5t-136 25.5q11 31 27.5 56.5
t35.5 31.5l78 100l-8 5h-58l-8 15l42 82h212l7 -5v-16l-33 -66l-7 -10h-59l-9 -5q42 -26 80 -65t68 -82.5t87 -249.5q0 32 -3.5 77.5t-16 156.5t-28.5 145.5t-26 40.5v23l31 56h103l11 -5v-16q-8 -10 -16.5 -29.5t-26.5 -66.5v-397h2zM606 -126q-48 -29 -82.5 -58t-56.5 -60
q43 -10 75.5 -30t63.5 -47v195z" />
    <glyph glyph-name="afii62841.033" unicode="&#xe8b;" horiz-adv-x="571" 
d="M523 -306q0 -19 2.5 -39t-10 -66t-121.5 -240q-1 -14 -9 -15.5t-26 -1.5q-5 0 -9 1.5t-4 5.5l6 10l77 155q31 69 28 111v12q-7 35 -20 64.5t-51.5 41t-59.5 7.5t-46 -19q13 -15 47 -79q8 -18 8 -21q0 -8 -8 -8t-17 10q-21 19 -40.5 31.5t-42.5 20.5t-49.5 11t-62.5 3
q-5 0 -10.5 -0.5t-9.5 -0.5q3 47 19.5 70t31.5 23l7 -2l28 61l1 1v2q3 1 3 2q0 5 -8 5.5t-17 1t-16.5 2.5t-7.5 6q0 6 3 10l33 63h312q-1 277 -71 290h-71v-264q0 -4 -3.5 -8t-5.5 -4q-3 0 -8 2t-6 7q-18 26 -42 43t-51.5 27t-53.5 14t-53 4q-32 0 -61.5 -3.5t-50.5 -4.5
q0 8 2 23.5t4.5 30.5t6.5 27t9 17q0 3 15.5 34t45.5 50q1 0 4 4l-53 1q-5 2 -7 8t5 15l27 60l14 9h204q0 4 -2.5 15.5t-6.5 22t-10 22t-17 16.5h-146l-8 12l41 78h358l7 -5v-15l-32 -61l-8 -9h-152v-76h235q13 -5 2 -25l-21 -60v-306q0 -3 -5 -6q-3 -1 -4 -1l-3 -15l-28 -52
l-197 -2q-15 -3 -44 -7t-45.5 -27t-16.5 -35h1q16 -2 38 -13t40 -30q45 66 125.5 66t105.5 -31.5t32 -70.5v-6zM319 -13q-3 34 -21 130.5t-45 105.5h-90q-41 -1 -97 -72v-17q36 0 73 -6.5t68 -23t112 -117.5z" />
    <glyph glyph-name="afii62841.034" unicode="&#xe8c;" horiz-adv-x="471" 
d="M443 111q0 -27 -14 -76t-98 -158.5t14 -114.5q36 23 59 56q55 10 13 -64q-36 -60 -131 -38.5t-2 160t93 161.5q0 26 -4.5 49.5t-15.5 41t-37 32.5t-70 24q-30 7 -50 -0.5t-35 -16.5q-16 -15 -24 -33q0 -25 29 -49.5t85 -45.5q10 -3 5.5 -17.5t-15.5 -28.5t-24.5 -24.5
t-20.5 -10.5q-8 0 -25.5 8.5t-43 31.5t-41.5 54.5t0 71.5q10 29 30.5 57.5t44.5 51t56.5 36t44.5 10.5q5 15 8 27q4 13 4 26t-7 22q-6 21 -40 25.5t-56 4.5h-49q-20 0 -32 -3.5t-18 -10.5t-10 -17q-3 -16 3.5 -32.5t31.5 -37.5q13 -4 12.5 -15.5t-10.5 -28.5t-23 -30
t-18 -13q-4 0 -12 13.5t-17.5 33.5t-15 40.5t-2.5 37.5q3 23 7.5 39t14.5 29.5t23.5 29t37.5 33.5l36 29h203l9 -15l-22 -53q9 -9 14 -19.5t5 -25t-11.5 -38.5t-37.5 -48q30 -3 63 -22t52 -44t26.5 -53.5t7.5 -51.5z" />
    <glyph glyph-name="afii62841.035" unicode="&#xe8d;" horiz-adv-x="25" 
d="M-102 472q-12 51 -15.5 63t7.5 31q13 48 32.5 47t57.5 -24.5t64.5 -25t26.5 -6.5v-3q-36 -38 -89 -56q-45 6 -65 27q-11 1 -7 -11q4 -18 10 -42h-22z" />
    <glyph glyph-name="afii62841.036" unicode="&#xe8e;" horiz-adv-x="44" 
d="M-19 -381v-318q0 -9 -12 -14q-9 -2 -20 5q-105 59 -206 59h-20q-11 0 -21 -1q53 111 238 216v53h41zM-60 -474q-49 -29 -82.5 -58t-55.5 -60q41 -12 74.5 -31.5t63.5 -46.5v196z" />
    <glyph glyph-name="afii62841.037" unicode="&#xe8f;" horiz-adv-x="44" 
d="M-212 -381v-318q0 -9 -8 -14q-10 -2 -21 5q-105 59 -207 59h-19q-10 0 -21 -1q52 111 237 216v53h39zM-251 -474q-48 -29 -81.5 -58t-56.5 -60q42 -12 76 -31.5t62 -46.5v196z" />
    <glyph glyph-name="afii62841.038" unicode="&#xe90;" horiz-adv-x="44" 
d="M-232 -537l4 -17l-15 -22q6 -5 8 -11t2 -10q0 -19 -22 -31q54 -23 51 -67q0 -5 -5 -8q-7 -2 -14 6q-7 19 -27 28.5t-48 14.5h-17q-25 0 -58 -7q7 41 58 45q24 0 43 -4q10 12 8 19q0 8 -35 24h-71q-40 -15 -48 -34v-3q0 -18 14 -37q-6 -17 -41 -30q-19 28 -19 55
q-4 45 99 85h106q-83 34 -168 34h-17q-8 0 -16 -1q44 61 196 121l7 18l25 12v-180zM-264 -410q-40 -16 -68.5 -32t-45.5 -32q33 -9 60.5 -19.5t53.5 -26.5v110z" />
    <glyph glyph-name="afii62841.039" unicode="&#xe91;" horiz-adv-x="766" 
d="M650 -71q0 -20 -2 -38q0 -1 -2 -2q-4 -38 -28 -64q-33 -36 -107 -44t-117.5 3.5t-85 35t-82.5 31.5t-74 0q48 -22 71.5 -42t45 -45t55 -41.5t90.5 -25.5l47 -1q108 6 143 24.5t58 41.5t76 79l22 -9q-55 -77 -113 -125.5t-119 -77.5q-17 -8 -37 -13h79v1h31l9 -16l-29 -44
q5 -7 14 -29q0 -43 -40 -74q14 -3 27 -15t22 -27.5t35 -87.5q3 -6 -5 -8q-4 -1 -8 0q-32 39 -44.5 45.5t-24 10.5t-27 6t-41.5 2q-10 0 -23 -3.5t-28 -3.5q18 49 35.5 68.5t37.5 19.5h20q7 1 11 1t5 1.5t2.5 4t1.5 8.5q1 25 -5.5 41.5t-28.5 21.5t-93 7q-33 -2 -47.5 -10.5
t-14 -25t5.5 -32t26 -39.5q10 -8 -5.5 -29.5t-33 -31.5t-24.5 -2q-16 52 -20.5 80.5t4.5 62.5q7 11 18.5 26.5t23.5 28t29 24.5q10 9 20 13l-16 4q-82 10 -116 31t-63.5 51.5t-54.5 73t-59 53.5q24 58 76 58q31 0 64 -7t74.5 -25t91 -32t112.5 -4t86 31q16 19 21 53
q-39 99 -78 165q-41 70 -85.5 119.5t-87 81t-91.5 42.5l-24 -29q24 0 48.5 -10t43 -27t31 -40.5t12.5 -48.5q0 -22 -7 -44.5t-23 -43.5q-31 -42 -68.5 -71.5t-85.5 -29.5q-22 0 -51.5 10t-53.5 41t-43.5 101t1.5 257q-8 13 -9 13q-15 0 -25 2t-10 10l2 3l41 82h98l7 -5v-16
l-38 -56l-17 -20q-12 -8 -17.5 -25t-8.5 -64q0 -28 2.5 -77.5t25.5 -85t59.5 -61.5t93.5 -26q26 0 42.5 9t34.5 30q6 10 6 25q0 31 -46 56.5t-136 25.5q11 31 27.5 56.5t35.5 31.5l78 100l-8 5h-58l-7 15l41 82h213l6 -5v-16l-33 -66l-7 -10h-59l-8 -5q41 -26 79 -65
t68 -82.5t95 -284.5q0 32 -3 77.5t-19.5 174t-33 163t-26.5 40.5v23l31 56h103l12 -5v-16q-9 -10 -17.5 -29.5t-26.5 -66.5v-432z" />
    <glyph glyph-name="afii62841.040" unicode="&#xe92;" horiz-adv-x="514" 
d="M336 -183q23 12 42.5 4t35.5 -19t28.5 -27t18.5 -35t2 -35q-2 -17 -19.5 -46.5t-45 -56.5t-60 -43t-66.5 -5q-46 15 -73.5 64t-71.5 199q-20 66 -38 112q-7 -35 -17 -89l-19 -105q0 -7 -10 -10.5t-14 -3.5q-7 0 -10 3.5t-3 11.5l13 96q9 84 25 163q-6 11 -13 19l13 8
q3 0 4 -1q17 72 42 113q29 46 76.5 78.5t148.5 29.5q36 0 66.5 -2.5t38.5 -7.5l1 1q2 1 2 5q0 53 -42.5 95t-66 46.5t-48.5 4.5h-161q-7 3 -11.5 5t-7.5 5l23 66l8 15l9 6h344q13 -1 15 -16l-18 -54q-3 -23 -15 -25t-29 -2.5t-17 -4.5l2 -2v-1l1 -1q8 -7 25.5 -50t17.5 -93
q0 -3 2.5 -8.5t2.5 -6.5q5 -2 9 -11.5t9.5 -24t8.5 -31.5t3 -33q-27 12 -66 20t-119.5 5.5t-116 -24t-59.5 -63.5q-24 -37 -33 -72q1 -1 2 -4q18 -32 73 -158.5t83 -156.5t64 -45q28 -10 47.5 1.5t22.5 30.5q5 23 -15 50.5t-71 35.5q-19 3 -13.5 17.5t25.5 42.5z" />
    <glyph glyph-name="afii62841.041" unicode="&#xe93;" horiz-adv-x="574" 
d="M509 115l-10 3h-22q0 35 -11 132q-12 103 -36 134h-93l-1 -243q1 -23 -16 -13q-34 48 -99.5 64.5t-140.5 13.5q-23 0 -39.5 -5t-23.5 -5q-10 0 -10 3q6 50 18.5 75t23.5 25q5 45 15.5 61.5t10.5 18.5q0 4 -9.5 4.5t-13.5 1.5t-7.5 3.5t-3.5 3.5v7l28 57q3 9 8 15t13 10
h438q16 0 10 -20q-12 -34 -20 -57.5t-8 -36.5v-252h2l-3 -27l-29 -49l-190 -2q-12 -1 -40.5 -5t-44 -26.5t-15.5 -33.5q16 -2 36.5 -12.5t37.5 -26.5q45 62 122 61.5t111.5 -40.5t-8.5 -149l-47 -78q108 -135 99 -255q-8 6 -16.5 11t-16.5 10q-70 35 -189 33q-15 1 -23 6
q-6 8 0 16l120 199q53 113 29.5 141.5t-59 40t-56 7.5t-44.5 -19q11 -12 43 -74q8 -15 8 -18q0 -8 -8 -8q-6 0 -16 8q-19 18 -38.5 30.5t-41.5 20t-47.5 10.5t-58.5 3q-7 0 -11.5 -1.5t-10.5 -1.5q3 46 19 67.5t31 21.5l7 -3l28 57v1l1 2q3 2 3 4q0 3 -8 3t-17 0.5
t-15.5 2.5t-6.5 6q0 5 1 11l34 59h295v-3h32zM317 175q-5 74 -17.5 139t-64.5 70h-116q-44 -21 -50 -85q51 0 85 -5.5t53 -17t110 -101.5zM359 -416q37 9 69.5 -4.5t64.5 -31.5q-15 59 -27.5 84.5t-45.5 57.5z" />
    <glyph glyph-name="afii62841.042" unicode="&#xe94;" horiz-adv-x="629" 
d="M452 -3q-35 33 -70 63.5t-107 64.5t-112 34q-28 0 -69.5 -7t-74.5 -24q9 32 15 52.5t12 31.5t10.5 16.5t8.5 8.5q-2 51 16 84t33 62q-34 1 -41.5 3t-7.5 6q0 2 1.5 3t1.5 4l42 82h218l9 -5v-16l-34 -66l-8 -10h-120q-24 -5 -60 -53t-24 -85q15 4 35.5 8.5t44.5 4.5
t43.5 -4.5t37.5 -8.5q100 68 123.5 84t23.5 39l-31 27l43 85h98l8 -5v-16q-13 -26 -41 -92v-362q3 -12 -2 -40.5t-23 -44t-42.5 -24t-54.5 -8.5q-26 0 -63 10.5t-73.5 22t-70 19.5t-48.5 4q0 -2 -2 -2t-4 -2q-5 -1 -6 -2q32 -10 56 -29.5t45.5 -39.5t44.5 -39t55 -23h24
q39 0 78 16t78 43t74.5 61t72.5 69l15 -14q-35 -35 -79 -78t-93 -81q-33 -28 -70 -51l6 2v-340h-17q-40 46 -94.5 65.5t-121.5 25.5q0 10 5 25t13 28t15.5 21t14.5 8q13 31 32 54.5t39 40.5t39 29q10 7 21 15q-38 -16 -71 -16h-15q-37 5 -67 25.5t-57 48t-52 58.5t-50 61
q21 54 70 54q25 0 57 -10t66.5 -22.5t70.5 -22t71 -9.5q48 0 69.5 18.5t19.5 64.5zM452 30q0 26 -4.5 64t-32.5 242q-24 -25 -36 -33.5t-45.5 -32.5t-54.5 -37q43 -26 65.5 -46t55 -77.5t52.5 -79.5zM363 -298q-16 -4 -37 -13.5t-39 -22t-32.5 -29t-20.5 -30.5q38 -5 66 -23
t63 -71v189z" />
    <glyph glyph-name="afii62841.043" unicode="&#xe95;" horiz-adv-x="644" 
d="M505 -5q-1 -52 -28.5 -74t-68.5 -27t-76 1.5t-71.5 23t-73.5 22.5t-73 -2l-15 -6q-7 -1 -10 -7q36 -2 60 -23.5t56.5 -49.5t83.5 -52t120.5 -2t106.5 65q72 76 85.5 93t21.5 32q6 9 12 9q8 0 8 -9v-6q0 -4 -3 -5q-10 -16 -64.5 -84.5t-125.5 -131.5q-9 -10 -20 -16v-285
q0 -12 -9 -15q-8 -1 -22 5q-103 60 -205 60h-20q-11 0 -21 -2q52 107 231 212q-42 -17 -91 -13q-87 11 -133 62t-76.5 87.5t-66.5 40.5q12 42 44.5 59.5t74.5 17.5q38 0 80.5 -9.5t74.5 -21t61 -16t62.5 0t49.5 23.5t8 42q-26 34 -58.5 63t-67 52t-73.5 36.5t-79 13.5
q-12 0 -32 -1t-40 -5.5t-39 -10.5t-34 -14q7 32 14 52.5t13.5 31.5t11 16.5t7.5 8.5q5 49 18.5 83t21.5 45t15 18q-67 -4 -67 3q0 2 1 5l1 1l41 89h414l8 -5v-16q-7 -12 -14 -30.5t-29 -52.5v-382zM472 39q0 62 -11.5 184t-32.5 161h-206q-14 -4 -27.5 -12t-32 -22
t-29.5 -40.5t-14 -63.5q17 4 39.5 8.5t42.5 4.5q70 0 110 -24.5t80.5 -93.5t80.5 -102zM391 -318q-48 -27 -83 -56t-56 -60q44 -12 77 -31t62 -47v194z" />
    <glyph glyph-name="afii62841.044" unicode="&#xe96;" horiz-adv-x="668" 
d="M497 5q-76 74 -126 120q-50 42 -77 66q0 -17 -12 -40q-10 -23 -28.5 -45.5t-44.5 -36.5t-57 -14q-53 0 -86 26t-28 78q0 37 10 67t26.5 53.5t34.5 37.5t35 14q33 0 53.5 -2t35.5 -7q0 9 -14 35t-29.5 26.5t-26.5 0.5h-98l-9 15l44 82h260l8 -5v-16l-32 -66l-9 -10h-65
v-70q44 -11 128 -131t111 -153q0 22 -16 153.5t-29 172t-37 46.5l42 81l106 -2l8 -5v-16q-12 -15 -46 -92l3 -334q-3 -64 -29.5 -90.5t-72.5 -34.5t-89 -1.5t-77.5 21t-72 22t-75.5 -3.5l-13 -4q-8 -2 -11 -6q35 -4 60 -25.5t57 -49t93 -52t131.5 -1.5t108.5 65
q70 75 82 93.5t24 30.5q6 9 11 9q8 0 8 -9v-7q0 -1 -3 -4q-10 -16 -64 -84t-124 -132q-23 -19 -49 -32v-278q0 -12 -9 -15q-8 -1 -22 5q-103 60 -205 60h-20q-11 0 -21 -2q53 108 238 215v3q-37 -11 -82 -7q-96 9 -143.5 60.5t-76.5 86.5t-66 42q13 40 44.5 58.5t74.5 18.5
q39 0 81 -11t74.5 -22.5t70.5 -14.5t67.5 1t50.5 23.5t14 42.5zM270 205q-25 12 -64.5 26t-73 11.5t-39 -8t-11.5 -19.5q-1 -13 4.5 -34.5t21.5 -35t38 -19.5t41 -6q24 0 41 6t26.5 18.5t12.5 26t3 34.5zM388 -318q-48 -27 -83 -56t-56 -60q44 -12 77 -31t62 -47v194z" />
    <glyph glyph-name="afii62841.045" unicode="&#xe97;" horiz-adv-x="683" 
d="M542 -14q-7 -41 -29 -62.5t-65 -30t-78 -1.5t-71 23.5t-73.5 22t-73.5 -4.5l-16 -2q-6 -2 -10 -7q37 -3 61 -25t56 -50t83 -52t121 -1.5t107 63.5q71 80 85 96t22 31q6 9 12 9q7 0 7 -9v-7q0 -4 -3 -5q-10 -16 -64 -84.5t-125 -130.5q-20 -19 -41 -30l-11 -27
q11 -2 31 -4q21 -2 33.5 -17t19 -32.5t8 -38t-1.5 -32.5q0 -24 -16 -45.5t-33 -38t-41.5 -36t-71 -1t-114.5 108t-218 203.5q-17 22 -17 27q1 4 7 1q22 5 127.5 -74.5t138.5 -112t78 -55.5t81 -28q16 -1 28.5 11t15.5 28q3 18 -3 27t-15.5 15.5t-19.5 7t-17 0.5
q-20 0 -40 -4.5t-36 -17.5q6 33 11.5 51t9.5 27.5t7.5 13t8.5 10.5l14 17q-39 -11 -81 -8q-86 10 -133.5 61.5t-76.5 87.5t-65 40q11 45 44 61.5t74 16.5q39 0 81.5 -10.5t74.5 -21.5t61 -16.5t57.5 1t49.5 26t13 39.5q-24 28 -57.5 58t-70 55t-76 40.5t-75.5 15.5
q-16 0 -35 -1t-38.5 -5.5t-39 -10.5t-32.5 -14q5 32 12.5 52.5t13.5 31.5t11 16l9 9q12 51 22 85t23 54q0 1 3 3q0 1 -13.5 2.5t-21.5 2t-15.5 2.5t-7.5 6q0 2 2 3t2 4l42 82h226l8 -5v-16l-34 -66l-8 -10h-95q-37 -5 -46.5 -12.5t-23.5 -24t-24 -40.5t-15 -61
q15 4 36.5 8.5t44.5 4.5q69 0 113 -24.5t86.5 -102t81.5 -112.5q-7 148 -23 233t-59 146l40 82h98l8 -5v-16q-6 -12 -13.5 -30.5t-13 -36t-9.5 -36.5t-4 -35v-336z" />
    <glyph glyph-name="afii62841.046" unicode="&#xe98;" horiz-adv-x="636" 
d="M191 394q-4 -6 -4 -24t-3 -40q0 -23 -4.5 -48.5t-22.5 -44.5q-9 -12 -23 -18t-31.5 -12t-36.5 -14.5t-39 -20.5l8 46l14 45q6 8 18 14t24.5 10t22.5 7.5t15 7.5q8 8 15 18.5t9 25.5q3 12 -1 26.5t-11 19.5q0 2 -10 2.5t-22.5 1t-24 2t-3.5 1.5l-2 12l27 64l7 6h424l8 -4
l2 -9l-18 -77v-266q0 -28 -5 -59.5t-21 -61.5t-45.5 -46.5t-60.5 -16.5q-48 0 -86 11t-69 22.5t-58 19.5t-57.5 4.5t-39 -9.5t-8.5 -9q34 -2 62 -21.5t60.5 -51.5t65 -49.5t78.5 -24.5q31 -1 54 3.5t47 17.5t85.5 78t70.5 78q2 3 12.5 7.5t12.5 4.5q5 0 2 -10l-2 -13
q-8 -13 -78 -92t-119 -113l-2 -1v-280q0 -9 -9 -13q-8 -3 -22 4q-103 61 -205 61h-20q-11 0 -21 -3q49 103 213 201q-18 -3 -35 -3q-52 0 -90.5 18.5t-74 55t-74.5 79t-73 36.5q5 23 18.5 38t34 28t67.5 19q35 2 66 -8t61 -23t63 -22.5t70 -6.5q26 5 50 18t32 41.5t7 118.5
q0 44 -15.5 134.5t-16.5 97.5h-117q0 -23 -4 -289h-28q-11 263 -43.5 285t-70.5 14zM389 -264q-48 -26 -83 -55.5t-56 -59.5q44 -13 77 -32.5t62 -46.5v194z" />
    <glyph glyph-name="afii62841.047" unicode="&#xe99;" horiz-adv-x="643" 
d="M640 -17q-20 -35 -47 -64.5t-71 -70.5q-25 -27 -53 -44v-291q0 -9 -10 -13q-9 -3 -20 4q-105 61 -207 61h-21q-9 0 -19 -3q52 111 235 216v1q-32 -15 -70 -15h-15q-39 6 -69.5 25.5t-56 48t-52.5 65t-71 55.5q32 28 46 40t35 12q22 0 49.5 -12t59 -25.5t65 -24.5
t67.5 -11q24 0 41 5.5t29 17t16.5 24.5t4.5 26q-31 70 -101.5 106t-143.5 36q-40 0 -65.5 -5t-27.5 9q3 43 11.5 66.5t16.5 25.5q16 88 58 135q-44 1 -61 1h-26q-23 0 -50.5 -26.5t-34 -150t-8.5 -549.5q0 -4 -10.5 -7t-16.5 -3q-4 0 -8.5 3t-4.5 7v700q0 17 38.5 70
t54.5 53h396q16 -5 3 -23l-17 -67l23 -370q0 -50 -36.5 -80.5t-96.5 -30.5q-26 0 -58 10.5t-64.5 22.5t-58.5 21.5t-40 9.5q-2 0 -3 -2h-1l-3 -1q32 -8 56 -27.5t46 -40t45.5 -39.5t54.5 -23h22q36 0 75 21t71 46t51.5 46t40.5 44zM506 64q-7 108 -32.5 205.5t-58.5 114.5
h-85q-47 -9 -105 -134q37 0 72.5 -6.5t68.5 -27t140 -152.5zM427 -264q-46 -26 -80.5 -55.5t-55.5 -59.5q43 -13 76 -32.5t60 -46.5v194z" />
    <glyph glyph-name="afii62841.048" unicode="&#xe9a;" horiz-adv-x="692" 
d="M691 -13q0 -4 -1 -5q-13 -16 -67 -85t-123 -130q-24 -21 -53 -35v-270q0 -9 -9 -15q-11 -1 -22 6q-104 60 -206 60q-11 0 -20.5 -0.5t-19.5 -1.5q49 104 219 205q-33 -4 -70 -1q-109 8 -156.5 59t-77 87.5t-65.5 40.5q11 41 43 59.5t76 18.5q39 0 82.5 -10.5t85 -20.5
t77 -19t58.5 -6q32 2 51 14.5t29 32t13 44.5t3 55q-5 105 -15 163t-53 151h-109v-333q3 -14 6 -22.5t3 -15.5q0 -14 -9 -14q-1 0 -5 4t-9 15q-13 41 -36 67t-53 41.5t-66 20.5t-72 5q-12 0 -39 -1.5t-56 -10.5q0 2 -1 5v3q0 43 12.5 71.5t20.5 28.5q21 96 63 131l-56 4
l-3 17l30 65q6 11 16 16h479q9 -5 9 -10t-2 -11l-25 -83v-306q0 -35 -4 -65.5t-16.5 -52.5t-35.5 -38.5t-59 -20.5q-42 -4 -86 6t-88 23.5t-85.5 20.5t-78.5 -3l-16 -2q-4 -2 -8 -8q33 -2 58 -24t57.5 -50.5t107 -52t143.5 -0.5t108 64q70 75 83.5 93t24.5 30q2 12 10 12
t8 -12v-4zM344 88q-4 65 -23 153t-36 143h-90q-88 -26 -107 -136q35 0 70.5 -3.5t66.5 -19t119 -137.5zM408 -314q-48 -28 -83 -57t-56 -60q43 -12 76 -32t63 -48v197z" />
    <glyph glyph-name="afii62841.050" unicode="&#xe9c;" horiz-adv-x="648" 
d="M559 22l1 -23l-23 -36q7 -7 14 -26q0 -46 -41 -77q17 -2 29 -14.5t21 -28t36 -85.5q0 -5 -3 -5q14 -11 22 -22q12 -15 16 -32t0 -52t-17.5 -68.5t-37.5 -60.5t-59 -31q-55 -6 -88.5 5.5t-69.5 53t-92.5 109.5t-77 93t-83.5 78q0 16 21 13q36 -13 87 -63t92 -85.5
t78.5 -63.5t77 -44.5t76.5 -14.5q30 0 43.5 17.5t9.5 34.5q-7 25 -35.5 42.5t-79.5 3.5q-21 -2 -21.5 12.5t7.5 34t21 36.5t22 20q22 4 40 1q15 -4 26 -8q-25 26 -34 33q-10 6 -22.5 10t-28.5 5.5t-41 1.5q-8 0 -21.5 -3.5t-28.5 -3.5q16 49 33.5 68.5t37.5 19.5h21
q7 1 10.5 2t5 2t2 3.5t0.5 7.5q4 26 -2.5 42t-29 21.5t-93.5 7.5q-32 -2 -46.5 -10t-14.5 -25t4.5 -31.5t27.5 -38.5q8 -11 -6.5 -32.5t-33 -31t-21.5 -1.5q-18 52 -23 81t3 61q7 14 17.5 28t24 27.5t29 24.5t31.5 17h108q-10 15 -21 29q-33 32 -64 53t-68 31t-71 10h-23
q-9 0 -19.5 -0.5t-29.5 -8.5t-22 6q4 41 12.5 69.5t16.5 28.5q23 108 47 143q0 3 -21.5 2t-28.5 -1h-26q-31 0 -41 -15.5t-20 -60.5t-16.5 -179.5t-6.5 -169.5l-9 -294q0 -3 -2 -6t-8 -3q-21 0 -25.5 3t-4.5 6v683q0 43 38.5 88t54.5 45h398q17 -5 8 -23l-32 -81
q8 -48 12 -94t6 -90.5t3 -90.5v-80h42zM484 67q-7 81 -24 159t-52 158h-97q-50 -16 -91 -139q34 0 96.5 -20t167.5 -158z" />
    <glyph glyph-name="afii62841.051" unicode="&#xe9d;" horiz-adv-x="604" 
d="M432 -67q8 -42 -11.5 -81.5t-52.5 -64t-80.5 -24.5t-87 25t-73.5 32t-62 0q39 -18 59 -35.5t39.5 -39.5t53.5 -44t92 -13.5t82.5 26t46 34t57.5 65.5l27 -13q-31 -38 -45 -55t-46 -48.5t-75 -57.5q-27 -15 -54 -22h74v2h29l10 -14l-27 -44q5 -7 13 -26q0 -42 -39 -72
q13 -2 25.5 -13.5t21 -27t34.5 -83.5q2 -7 -3 -8q-3 -1 -8 0q-33 37 -45 43.5t-23.5 10.5t-25.5 5.5t-40 1.5q-9 0 -22 -3t-28 -3q18 45 34.5 64t34.5 19h23q4 3 8 3t6 0.5t2.5 3t0.5 8.5q1 24 -5 39t-28 21t-89 7q-32 -1 -46.5 -9t-14 -23.5t5.5 -30.5t26 -39
q8 -9 -6.5 -29t-31.5 -29.5t-23 -1.5q-16 50 -21 77t3 60q7 10 18 24.5t23.5 27t27.5 23t31 16.5h7q-35 6 -64.5 24t-54.5 44.5t-47 63.5t-50 47q20 52 65 52q26 0 53.5 -6t62.5 -22t94 -20q80 12 79 91q-4 42 -21 56.5t-53.5 23t-56 6t-41.5 -14.5q11 -13 43 -71
q5 -14 5 -19q0 -6 -5 -6q-8 0 -17 8q-19 17 -38 29.5t-41 20t-46.5 8.5t-57.5 1h-20q4 41 19.5 63t27.5 22l8 -4l26 54l2 2q0 1 2 1v5q0 2 -7 2t-16 0.5t-14.5 2.5t-5.5 6v8l31 57q0 -1 23 -1h142l106 1q-46 28 -112 28h-88q-57 -5 -81.5 -7.5t-40.5 -12.5l20 77
q14 92 55 158q-52 -1 -51 4l35 69l15 13h313q-12 42 -15.5 53.5t0.5 23.5q23 61 40.5 59t55 -23.5t63.5 -23t26 -8.5v-4q-37 -33 -95 -58q-36 7 -57 25q-11 0 -6.5 -13t11.5 -31h15l3 -17l-36 -62l-15 -8h-253q-26 0 -35.5 -20.5t-31.5 -59.5q17 17 47 38l266 -7
q-22 -51 -39 -63q-212 6 -282 4q-2 -23 -2 -36q181 9 225.5 0.5t77.5 -30.5t55.5 -74t60.5 -139q6 -13 -4 -24q-4 -3 -10 4t-10 12q-12 21 -64 100q-14 19 -30 35l-25 -56h-165q-11 -2 -38.5 -6t-44 -25t-16.5 -33h2q17 -2 35.5 -11t36.5 -28q44 62 119 61.5t100.5 -29
t34.5 -74.5z" />
    <glyph glyph-name="afii62841.052" unicode="&#xe9e;" horiz-adv-x="575" 
d="M492 -101q8 -40 -11.5 -78t-53 -61.5t-82 -23t-86.5 24.5t-73 30t-63 0q40 -18 59.5 -35t38.5 -37.5t54.5 -41.5t92.5 -13.5t82.5 24.5t47 33t55.5 64l13 -21q-17 -24 -32 -39t-46 -49t-74 -58.5t-88 -23.5l-33 4q-37 3 -66 21.5t-54.5 43.5t-47 61t-49.5 45q22 48 67 48
q24 0 52 -4.5t63 -20t94 -22.5q81 13 77 89q-3 40 -19.5 53.5t-53 22t-56.5 7t-41 -15.5q10 -10 42 -67q4 -14 4 -18q0 -6 -4 -6q-8 0 -16 8q-21 16 -39 28t-39 19t-46.5 9t-57.5 2q-7 0 -11 -1t-9 -1q4 41 18 61t30 20l7 -1l25 50v1q0 2 2 2q2 2 2 5q0 2 -6.5 2t-15.5 0.5
t-16 2.5t-7 6t1 8l32 54h165l117 1q-35 33 -101 56q-67 24 -103 27.5t-76 3.5q-27 0 -68 -6t-74 -22q9 29 16.5 46.5t12.5 28t9 15t10 5.5q0 45 17.5 77.5t30.5 48.5q0 1 -8 0.5t-17.5 1t-16 2.5t-6.5 7q0 1 0.5 3t0.5 3l40 73h389l8 -5v-15l-40 -65v-286l8 -13l-27 -58
h-181q-11 -2 -37.5 -6t-43.5 -24t-17 -30q19 -4 38 -12.5t36 -25.5q42 58 118.5 57.5t102 -28t34.5 -71.5zM437 140q0 16 -21.5 131.5t-53.5 124.5h-164q-12 -2 -33.5 -9.5t-51.5 -41.5t-25 -70q14 4 34.5 7.5t42.5 3.5q45 0 77.5 -11.5t58 -26t71 -52t65.5 -56.5zM426 -407
v1h28l11 -13l-28 -43q7 -6 15 -25q0 -40 -41 -67q14 -3 26.5 -14.5t21.5 -25.5t35 -80q2 -7 -4 -7q-4 -1 -7 0q-34 35 -46 41t-23 9.5t-25.5 5t-41.5 1.5q-8 0 -21.5 -2t-28.5 -4q19 45 36.5 63t35.5 18h19q7 2 10.5 2t5 1t2.5 3t1 8q3 23 -4.5 38.5t-29 20t-88.5 4.5
q-32 0 -47 -8t-14 -22t5.5 -29t25.5 -38q8 -7 -6.5 -27t-32.5 -29t-21 -2q-17 49 -21.5 74.5t4.5 56.5q8 12 17.5 25.5t21.5 25.5t27.5 21.5t32.5 16.5h149z" />
    <glyph glyph-name="afii62841.053" unicode="&#xe9f;" horiz-adv-x="634" 
d="M500 67q-3 -64 -24 -91t-50.5 -36t-66.5 -10t-62 4t-66 27t-82.5 30t-74.5 0q48 -20 71.5 -39.5t45.5 -44.5t55 -41t91 -22h27q61 0 97 11t73 40t81 84l20 -13q-42 -56 -84 -102.5t-92 -75t-144 -28.5l-42 3q-40 6 -75 26.5t-65 49.5t-55 72.5t-61 54.5q28 56 79 56
q31 0 64.5 -5t73 -24t67 -28t74.5 -6q47 7 70 30t16 73q-19 47 -78.5 62.5t-138.5 18t-119.5 -5.5t-67.5 -20q0 16 3.5 33t8.5 31.5t9.5 24t9.5 11.5q0 1 2 6.5t2 8.5q0 50 17.5 93t26.5 50l2 1v1l1 2q0 4 -22 4.5t-36 2.5q-12 2 -2 25l20 54q5 15 16 16h369l9 -6l1 -15
l-34 -66q-2 -3 -7.5 -5t-10.5 -5h-163q-23 0 -48 -4.5t-67 -46.5t-42 -95v-5l1 -1q9 5 40 7.5t68 2.5q99 3 153 -19t82 -60t34 -96zM445 -244v3h27l10 -16l-28 -46q7 -7 15 -26q0 -46 -42 -77q16 -2 28.5 -14.5t21.5 -28t35 -84.5q1 -8 -4 -10q-4 -2 -7 0q-35 39 -46.5 45.5
t-23.5 10.5t-26.5 6t-42.5 2q-8 0 -21.5 -2.5t-28.5 -5.5q18 49 35 68.5t37 19.5h21q6 1 9.5 1t5 2.5t2 4.5t0.5 7q4 26 -3.5 42t-29.5 23t-92 7q-32 0 -46 -9t-14 -26.5t4.5 -32.5t23.5 -39q11 -8 -4 -30.5t-32 -32t-23 -1.5q-16 52 -20.5 80t3.5 62q6 14 16.5 28.5
t24.5 28t28 24.5t33 16h154z" />
    <glyph glyph-name="afii62841.054" unicode="&#xea0;" horiz-adv-x="644" 
d="M507 67q-3 -64 -24 -91t-50.5 -36t-66.5 -10t-62 4t-66 27t-82.5 30t-73.5 0q48 -20 71 -39.5t45 -44.5t55.5 -41t90.5 -22h27q61 0 97 11t73 40t81 84l21 -13q-43 -56 -85 -102.5t-92 -75t-144 -28.5l-42 3q-40 6 -75 26.5t-65 49.5t-55 72.5t-61 54.5q28 56 79 56
q32 0 65 -5t72.5 -24t67.5 -28t74 -6q47 7 70 30t16 73q-19 47 -78.5 62.5t-138.5 18t-119.5 -5.5t-67.5 -20q0 16 3.5 33t9 31.5t9.5 24t9 11.5q0 1 2 6.5t2 8.5q0 50 18 93t26 50l2 1v1l1 2q0 4 -22 4.5t-36 2.5q-12 2 -2 25l20 54q5 15 16 16h370l8 -6l1 -15l-34 -66
q-2 -3 -7.5 -5t-10.5 -5h-162q-24 0 -49 -4.5t-66.5 -46.5t-41.5 -95v-5l1 -1q8 5 39 7.5t68 2.5q100 3 153.5 -19t81.5 -60t34 -96z" />
    <glyph glyph-name="afii62841.055" unicode="&#xea1;" horiz-adv-x="590" 
d="M562 -180l6 -7v-8l-33 -59v-204l-4 -7h-15q-8 8 -27.5 19.5t-45 21.5t-53.5 17.5t-86 11.5l-51 -11q0 7 7 20t18 25t18.5 20t33.5 11h6q14 8 22 20t8 20l-2 1q-1 1 -1 2q-1 7 -6 15t-16 14t-28.5 10t-59.5 3q-43 -7 -51.5 -29t13.5 -51t22 -40q0 -3 -0.5 -7t-0.5 -5
l-43 -38l-15 -1q-17 27 -27.5 74t21.5 91t65 68v3h166l2 -11l-10 -36q15 -14 15 -27q0 -23 -11.5 -45.5t-28.5 -33.5q29 -4 47 -15.5t48.5 -46.5t49.5 -46q0 39 -16 106t-50 97v17l9 15l-4 -1l8 19q41 63 15.5 88.5t-58.5 33t-54 4.5t-46 -16q14 -9 44 -64q6 -13 6 -17
q0 -6 -6 -6q-8 0 -16 8q-20 15 -39 25t-41 16.5t-47 10t-58 3.5q-7 0 -11.5 -0.5t-10.5 -0.5q5 36 21 55.5t29 19.5l7 -1l26 49q0 1 2 2q2 0 2 4q0 2 -7.5 2t-16 0.5t-15 2t-6.5 6.5q0 3 3 8l21 39l12 13l20 -2h59q36 0 186 2h3q0 37 -13 149q-13 118 -35 140l-92 -2v-259
q0 -10 -3.5 -14t-6.5 -4q-1 0 -4.5 1.5t-4.5 2.5q-34 38 -95.5 59t-152.5 21q-15 0 -31 -3.5t-24 -3.5q-9 0 -9 6q5 48 17.5 73t24.5 25q7 31 15.5 55.5t21.5 35.5q0 4 -12 4.5t-17 2t-8.5 3.5t-3.5 5v6l32 64q5 11 18 17h437q9 -9 5 -17q-10 -35 -19 -58t-9 -38v-275h-10
l4 -18l-30 -47l-157 -2q-13 0 -40.5 -4t-44 -23.5t-16.5 -27.5q19 -4 38 -12t39 -22q43 53 119.5 53t100.5 -25t24.5 -53.5t-9.5 -49.5q-7 -17 -31 -42h58zM324 145q-4 43 -12.5 138.5t-47.5 100.5l-113 3q-44 -35 -64 -99q103 0 237 -143z" />
    <glyph glyph-name="afii62841.056" unicode="&#xea2;" horiz-adv-x="597" 
d="M454 -150l7 -7v-8l-32 -60v-205l-7 -5h-15q-8 8 -26.5 18.5t-45 21.5t-54 18.5t-83.5 10.5l-51 -10q0 7 5.5 19.5t17.5 25t20 20.5t32 9h4q15 8 23 20.5t8 18.5q0 2 -1 3q-2 8 -7 16t-16 15t-28 11t-58 3q-44 -7 -53.5 -30t14 -52t23.5 -38q0 -3 -2.5 -7t-2.5 -7l-42 -36
l-15 -2q-17 27 -26.5 74.5t22.5 90.5t66 67v5h165l1 -13l-9 -35q13 -15 13 -27q0 -23 -11 -46t-28 -32q28 -5 45.5 -16t50 -46t48.5 -46q0 38 -15.5 105.5t-50.5 96.5v18l9 15l-2 -3l9 20q39 64 13 89t-59.5 33t-54 4.5t-45.5 -16.5q14 -11 46 -65q4 -11 4 -16q0 -6 -4 -6
q-8 0 -17 8q-21 14 -38.5 25t-39.5 17.5t-48 9t-60 2.5q-5 0 -10.5 -0.5t-9.5 -0.5q3 38 19 57.5t31 19.5l6 -3l26 49h1v4q2 0 2 3q0 1 -7.5 1t-15.5 1.5t-15 3t-7 6.5q0 3 2 8l25 38l11 13l20 -1h59q34 0 165 1h12q-51 38 -129 39l-91 -1q-58 -4 -84 -7.5t-43 -11.5l21 78
q16 98 58 168q-55 -3 -54 3l38 72l14 15h322q-13 44 -16.5 55t1.5 26q21 61 40.5 60.5t57.5 -24.5t64.5 -25t26.5 -8v-3q-37 -36 -96 -62q-39 8 -61 25q-11 1 -7 -12.5t13 -31.5h15l4 -20l-38 -65l-16 -8h-257q-28 0 -38.5 -20t-30.5 -62q16 17 45 39l274 -7
q-22 -55 -37 -66q-220 7 -291 3q-5 -25 -4 -35q186 8 232.5 -1t80 -32.5t57 -77t60.5 -143.5q7 -16 -1 -27q-7 -3 -13 4t-11 15q-9 19 -65 102q-12 21 -29 35l3 -12l-29 -47l-138 -1q-10 0 -38.5 -4t-45 -24t-16.5 -28h1q18 -2 37.5 -10.5t37.5 -24.5q43 56 120 56
t101 -26.5t25 -53.5t-8 -49q-8 -16 -33 -41h58z" />
    <glyph glyph-name="afii62841.057" unicode="&#xea3;" horiz-adv-x="501" 
d="M475 -156l5 -7v-8l-32 -58v-205l-4 -7h-16q-8 10 -27.5 21.5t-45 22t-54.5 17.5t-85 9l-51 -10q0 8 7.5 20t18.5 24t18 20.5t35 10.5h3q15 10 22 22t7 19v2q-4 7 -8.5 15t-14 14.5t-28 10.5t-60.5 2q-43 -4 -51.5 -27t13.5 -52t22 -41q0 -1 -0.5 -5t-0.5 -6l-43 -39
l-14 -1q-18 30 -27.5 76.5t21 89.5t64.5 69v1h165l1 -9l-9 -38q16 -14 16 -27q0 -23 -12 -44.5t-27 -33.5q27 -3 45.5 -15t49.5 -47.5t49 -45.5q0 40 -16 106t-50 96v19l9 13h-3l9 18q38 63 12.5 89t-58 33.5t-54 4t-44.5 -15.5q12 -10 44 -64q4 -13 4 -16q0 -8 -4 -8
q-8 0 -16 8q-21 16 -39.5 27t-41 17t-48 8.5t-58.5 2.5q-6 0 -10.5 -0.5t-8.5 -0.5q1 37 17.5 57t29.5 20l8 -3l28 49v1l1 2q1 1 1 4q0 2 -8 2h-16q-8 0 -15.5 1.5t-7.5 7.5q0 5 5 8l22 39l12 12l19 -1h61q33 0 195 1h22l5 -20l-28 -48l-169 -1q-13 -1 -40 -4.5t-43 -23
t-16 -29.5q17 -4 37 -10.5t38 -22.5q43 54 120 53t100 -26t25 -52.5t-9 -50.5q-6 -14 -31 -42h58zM428 396l-15 -8l-19 3q11 -16 17 -31.5t12 -49t6 -64.5v-109q-43 24 -109.5 37.5t-146.5 1.5q-39 -4 -57 -21.5t-27.5 -38.5t-15.5 -45t-26 -112q0 -3 -3.5 -6.5t-8.5 -3.5
q-4 0 -9.5 3.5t-5.5 6.5q22 178 36.5 220t46 64t83.5 29q67 7 121 -2t95 -40q-4 41 -18 80.5t-26.5 56.5t-95.5 17h-187l-8 15l34 66l18 16h326l8 -5v-16z" />
    <glyph glyph-name="afii62841.062" unicode="&#xea4;" horiz-adv-x="496" 
d="M368 160q-14 16 -33 28q-39 17 -90 19.5t-56 2.5q-51 -1 -91.5 -10t-67.5 -20q0 16 3.5 32.5t8.5 31.5t9.5 24t8.5 11q0 3 10.5 34.5t35.5 69.5q-15 0 -36 -1.5t-18 12.5l33 72q8 11 18 15h339l12 -5l-2 -16l-35 -66l-8 -10h-237q-29 0 -41 -17t-28 -53l-7 -19
q10 4 39.5 7.5t85.5 3.5q97 0 141.5 -26.5t64 -76.5t30.5 -129.5t22 -191.5q0 -8 -2.5 -11.5t-7.5 -3.5q-7 0 -11 3l-1 1v-1l-34 -60v-203l-5 -7h-15q-8 8 -26.5 19.5t-45 21.5t-55 17.5t-83.5 11.5l-53 -11q0 7 7 20t18.5 25t19.5 20t33 8h3q16 11 23.5 23t7.5 18v4
q-4 8 -9 16t-15 14t-28 10t-60 3q-42 -7 -51 -29t12.5 -51.5t21.5 -39.5q0 -3 -0.5 -7t-0.5 -5l-42 -38l-15 -2q-17 27 -26.5 74.5t21.5 91.5t63 68v3h166l3 -11l-12 -37q17 -13 17 -27q0 -23 -12.5 -45t-26.5 -33q27 -4 45.5 -15.5t49.5 -46.5t49 -46q0 39 -16 106t-50 97
v17l10 15l-3 -1l8 19q40 63 14 88t-59.5 33t-55 4.5t-44.5 -15.5q12 -12 46 -65q4 -12 4 -16q0 -7 -4 -7q-8 0 -16 9q-23 14 -41 24.5t-40.5 17t-48 9.5t-58.5 3q-4 0 -9.5 -1.5t-9.5 -1.5q1 39 17.5 58.5t29.5 19.5l9 -1l26 48q0 2 1 3q2 0 2 4q0 2 -7.5 2t-15.5 0.5
t-15.5 2t-7.5 6.5q0 3 3 8l24 38l11 12l20 -1h60q32 0 165 1h17zM450 -115l3 -3q-10 66 -24 135.5t-35 110.5l-15 20q-2 4 -5 8l3 -16l-27 -47l-140 -2q-12 0 -39 -4t-43.5 -23.5t-16.5 -27.5q19 -4 38.5 -12t37.5 -25q42 56 119.5 56t100 -26t24.5 -53.5t-8 -49.5
q-6 -16 -31 -41h58z" />
    <glyph glyph-name="afii62841.063" unicode="&#xea5;" horiz-adv-x="545" 
d="M518 -168l5 -7v-8l-32 -58v-206l-7 -7h-15q-8 11 -27.5 21.5t-44 21.5t-53.5 18.5t-85 8.5l-51 -9q0 8 6 20t17.5 24t19.5 20t36 10h2q15 9 22.5 21.5t7.5 18.5v3q-4 8 -8.5 15.5t-14 14t-28.5 11t-60 2.5q-43 -5 -52 -28t13.5 -52t22.5 -40q0 -1 -1 -5t-1 -7l-43 -38
l-13 -3q-19 30 -28.5 77.5t21.5 90t65 67.5v3h165l1 -11l-9 -36q16 -15 16 -29q0 -21 -12.5 -43.5t-27.5 -33.5q28 -4 46.5 -16t49.5 -46.5t47 -46.5q0 41 -15 107.5t-49 95.5v20l9 12h-3l8 19q38 62 13 88.5t-58 33.5t-54 4t-47 -15q15 -11 47 -65q4 -12 4 -16q0 -9 -4 -9
q-8 0 -16 9q-23 16 -40.5 26.5t-40 17.5t-48 9t-59.5 2q-5 0 -9.5 -0.5t-9.5 -0.5q2 37 18.5 57.5t28.5 20.5l8 -4l27 48v2l3 2q1 2 1 3q0 3 -8 3h-16q-8 0 -15.5 2t-7.5 6q0 5 4 8l23 39l11 14l20 -2h58q36 0 187 2h7q-35 32 -101 55q-69 26 -106 28t-76 2
q-28 0 -69.5 -5.5t-74.5 -21.5q9 29 16 47.5t12.5 28.5t9.5 15t8 6q0 43 19 75.5t31 51.5h-8q-8 0 -17 0.5t-17 2t-8 6.5q0 2 1.5 3t1.5 4l42 74h394l8 -5v-15q-14 -21 -42 -66v-288q0 -8 -6 -8h-2l3 -12l-27 -47l-159 -1q-12 -2 -40.5 -5.5t-44 -23t-15.5 -28.5
q19 -3 38 -10.5t37 -23.5q45 55 120.5 54.5t99.5 -26t26 -52.5t-8 -50q-9 -15 -34 -42h61zM446 136q0 17 -22 134t-54 126l-166 -1q-14 -3 -36 -10.5t-52 -41t-25 -70.5q14 4 34.5 7t44.5 3q46 0 78 -11t59 -25t72 -52.5t67 -58.5z" />
    <glyph glyph-name="afii62841.064" unicode="&#xea6;" horiz-adv-x="655" 
d="M98 190l58 -12q12 8 36 11t45 3q68 0 114 -30t77 -82q9 -16 19.5 -37.5t10.5 -55.5q0 -23 -1.5 -36.5t-16.5 -53.5q32 38 30 56t23.5 47.5t84.5 46.5h7q16 -3 34 -22t36 -62q-9 3 -58.5 -4.5t-79.5 -24.5t-57.5 -44.5t-47.5 -64.5l-8 15q23 85 20 123q0 17 -4 34t-9 29
q0 -37 -12.5 -61t-34.5 -36t-48 -16t-54 -4q-15 0 -32.5 8t-33 21t-58.5 57l-17 -206q0 -3 -11 -3q-1 0 -10.5 0.5t-9.5 2.5zM512 107l-14 -14l-10 14l-49 289h-117q3 -21 7.5 -81t9.5 -125h-20q-10 51 -29 130.5t-52 81.5t-50 0q-7 -2 -7 -14v-30q0 -20 -4.5 -41.5
t-22.5 -39.5q-10 -10 -24 -15.5t-31 -11t-36 -12t-38 -17.5l10 42l12 36q6 7 17.5 11.5t24 8.5t23 7.5t12.5 7.5q9 6 16.5 16t8.5 22t-2 19.5t-9 11.5q0 1 -10.5 1t-22.5 1.5t-22 2t-12 0.5l39 73h435q-22 -36 -39 -79zM405 -182h82l7 -6v-8l-34 -60v-206l-5 -4h-14
q-9 8 -26.5 19.5t-41.5 21.5t-51 17.5t-82 9.5l-49 -9q0 7 5 19.5t18 25.5l18 20q8 8 32 9h6q13 11 20.5 22t7.5 19l-1 4q-2 7 -7.5 15t-15.5 14t-26.5 10t-56.5 3q-41 -6 -49.5 -29t12.5 -52.5t21 -38.5q0 -3 -1 -7t-1 -6l-40 -37l-15 -3q-16 28 -25.5 75.5t21 91
t61.5 68.5v2h159l3 -9l-12 -38q16 -15 16 -27q0 -23 -12 -44.5t-26 -33.5q26 -3 44 -15t47 -47t46 -47q0 40 -14.5 107.5t-48.5 95.5v19zM154 63q0 -45 17.5 -68t70.5 -23q25 0 50 5t44.5 15.5t31.5 25t12 33.5q0 17 -4 31.5t-16.5 26t-35.5 17.5t-58 6q-51 0 -81.5 -18.5
t-30.5 -50.5z" />
    <glyph glyph-name="afii62841.065" unicode="&#xea7;" 
d="M-84 -248l-2 -4h64l-10 -70l-10 -11h-148q-11 0 -21 -2t-20 -12t-17 -36q24 7 107 7q63 -9 93 -52.5t34.5 -76.5t-35 -64t-85.5 -28.5t-68 12t-43 28.5t-24 35t-6 33q-25 -19 -42 -59t-33 -130q0 -4 -4 -5.5t-8 -1.5q-18 4 -18 8q25 196 53.5 237.5t55.5 47.5v59h-95
l-7 8l16 54l-1 17l22 2h205l-3 -4q0 -4 4.5 -5.5t8.5 -1.5q16 0 24 3q6 3 11 8h-45l5 6q36 47 14.5 77.5t-58.5 42t-57 7.5t-43 -19q13 -12 45 -75q5 -16 5 -18q0 -9 -5 -9q-8 0 -18 10q-19 17 -38 29.5t-42 20.5t-48.5 10t-57.5 2h-20q3 43 18 66t29 23l7 -4l29 57l1 1
q2 3 2 5t-7.5 2.5t-17 2t-16 3t-6.5 6.5q0 4 2 8l34 60h318l12 -11l-30 -69l-190 -2q-14 0 -42 -4t-44 -25.5t-16 -33.5q16 -3 37 -13t38 -27q44 63 121.5 62.5t106 -36.5t8.5 -109zM-251 -470q3 -60 44 -76t87 -4t55 44t-30 50t-156 -14z" />
    <glyph glyph-name="afii62841.066" unicode="&#xea8;" horiz-adv-x="859" 
d="M657 72q-4 -8 -12 -22t-21 -31t-33 -34.5t-48 -31t-65 -21.5t-83 -8q-67 0 -115.5 17.5t-83.5 43t-58 52.5t-35 46q-31 0 -49 7t-26.5 17t-11 18t-2.5 9q0 7 5 10.5t13 3.5q5 1 16.5 2t23.5 2q9 1 16 1t14 3q12 0 21 9t17 27q7 21 16.5 38.5t18.5 32.5q-23 31 -31.5 57
t-8.5 49q0 22 6 39.5t14 32.5t18 25t18 15h8q-2 -15 -3.5 -27t-1.5 -23q0 -29 8 -48q8 -16 19.5 -28.5t22.5 -20.5q8 6 20 14t26 15q15 6 27.5 11.5t22.5 9.5q15 7 19 17t4 25q0 32 -18 65q-17 31 -56 43v11q18 9 34 9q33 0 58 -16t41.5 -40.5t25 -52t9.5 -49.5q24 0 40 8.5
t25.5 22.5t14 30t4.5 34q0 11 -0.5 21t-3.5 19l4 10q19 -11 31 -26t19.5 -31t11 -33t3.5 -32q0 -31 -8 -52l13 -9q8 -5 18 -13q38 24 67.5 33.5t55.5 9.5q28 0 47 -9.5t25 -14.5v-11q-28 -1 -51 -8.5t-41 -19t-30 -24.5t-21 -28q7 -18 12 -40.5t4 -36.5q42 -20 71 -27.5
t48 -7.5q14 0 26.5 5.5t23.5 8.5l1 -10q-5 -23 -14 -37.5t-20 -23.5t-24 -12.5t-26 -3.5q-16 0 -39 6.5t-48.5 16t-49.5 20.5t-43 22q1 -2 1 -5v-7q0 -21 -6.5 -39t-16 -32.5t-21 -27t-20.5 -20.5q0 -1 1 -2l3 -4q11 5 26.5 14.5t30 23t28.5 27.5t22 29zM399 -5
q-9 2 -27 8.5t-36.5 18.5t-30.5 33t-12 52q0 44 29 69q28 26 66 33l4 -13q-11 -12 -16.5 -28t-5.5 -34q0 -10 2 -22.5t9 -23t17.5 -19.5t23.5 -14q1 5 3 7t4 6q-15 7 -26.5 24t-11.5 37q0 12 4 22t12 19.5t21.5 15t29.5 5.5t28 -6.5t19.5 -15.5t11 -18.5t3.5 -17.5
q0 -15 -3.5 -27t-14.5 -26l2 -4q1 -4 4 -6q24 17 32 50q4 9 4 21q0 19 -13 41q0 1 -1.5 2.5t-2.5 3.5q-6 6 -12 13q-10 6 -42 15t-83 9q-42 0 -76.5 -11.5t-63 -26.5t-47 -31t-30.5 -28l-6 -3q15 -24 36 -48t51 -43.5t65.5 -31.5t76.5 -13zM296 -252l151 157v13l36 -27v-228
zM445 336q-23 0 -45 -5t-46 -14.5t-49 -23t-47 -32.5q32 16 66 24.5t82 8.5q27 0 52 -3.5t52.5 -12.5t59.5 -23.5t74 -36.5q-18 53 -70.5 82t-128.5 36zM442 -155q-13 -13 -25 -27t-27 -31q10 -6 25 -12t27 -12v82z" />
    <glyph glyph-name="afii62841.067" unicode="&#xea9;" horiz-adv-x="705" 
d="M481 510l-31 -89h-127q64 -42 136.5 -113t160.5 -176q-6 254 -76 291l28 87h122l-39 -87v-322q0 -33 -15 -37h-1l-2 -1v-1q-7 0 -17 7t-18 14q-91 99 -192.5 176.5t-203.5 126.5q-31 -22 -55 -46.5t-40 -48.5q63 -12 118.5 -45t105.5 -85q19 -20 8 -40l-3 -3h-1
q-2 -1 -8 -1h-6l-2 1h-3q-4 3 -8 3q-115 80 -253 80q-8 0 -17.5 -1t-17.5 -1q27 72 55 126.5t57 95.5h-108l25 89h428zM504 -173q-4 -9 -13.5 -23.5t-27 -29.5t-46.5 -26.5t-72 -11.5q-40 0 -69.5 10t-50 25.5t-34.5 32t-22 28.5q-18 0 -28 4.5t-16.5 10t-7.5 10.5t-1 7
q0 10 10 10q6 1 17.5 2t19.5 1q2 0 4 1h2q16 0 22 23q8 21 22 39q-14 18 -19 34t-5 31q0 13 4.5 24t10.5 20.5t13 16t14 12.5q-6 -23 -6 -35q0 -22 9.5 -37t21.5 -20q11 9 28 16l25 14q11 2 12.5 8t1.5 15q0 21 -9 38t-32 26v8q8 6 19 6q21 0 35.5 -10t25 -24.5t16.5 -30.5
t6 -30q14 0 22.5 5t13.5 12.5t7.5 16t2.5 19.5q0 16 -5 27l7 8q22 -15 31.5 -36t9.5 -42q0 -6 -1.5 -14t-5.5 -15q11 -5 22 -13q20 15 39.5 20.5t33.5 5.5q15 0 26.5 -4.5t16.5 -6.5v-11q-36 -5 -56 -18t-28 -31q4 -6 4 -12v-15q0 -10 3 -17v1q11 -17 24 -24.5t25 -7.5
q13 0 24.5 6t18.5 10q1 0 2.5 2t8.5 6v-12q-7 -30 -21 -38.5t-31 -8.5q-22 0 -55 13q-12 6 -26 12.5t-25 13.5q2 -29 -10 -47q-6 -10 -13 -18t-12 -15q13 8 32.5 24.5t28.5 33.5zM347 -221q-7 0 -18.5 4t-21.5 12.5t-17.5 21t-7.5 31.5q0 26 17.5 41.5t40.5 20.5l5 -9
q-5 -8 -8.5 -18.5t-3.5 -20.5q0 -12 7 -24.5t23 -19.5v3l1 3q-9 4 -15 14t-6 22q0 15 10.5 27t28.5 12q13 0 20 -4t12 -9t6.5 -12t1.5 -12q0 -17 -9 -30q0 -3 1 -5q9 8 14 17.5t5 22.5q0 11 -8 24l-2 2l-1 4v-3q-1 5 -5 7q-2 4 -13.5 5.5t-26.5 2.5t-33 2.5t-32 1.5
q-24 0 -47 -7.5t-40.5 -17.5t-28 -19.5t-14.5 -14.5q7 -14 23 -28t39.5 -24.5t50.5 -17t52 -6.5v1zM374 -18q-23 1 -48.5 -7.5t-50.5 -29.5q17 8 35 11t41 3q16 0 32 -1.5t31 -6t33 -12t43 -17.5q-25 56 -116 60z" />
    <glyph glyph-name="afii62841.068" unicode="&#xeaa;" horiz-adv-x="703" 
d="M496 -28q-4 -9 -14 -24t-27.5 -29t-47 -25t-70.5 -11t-70 11t-49.5 25t-34.5 29.5t-24 26.5q-17 3 -28.5 7t-16 9.5t-6 10t-1.5 5.5q0 11 11 11q1 2 7.5 2.5t14.5 0.5h12q5 0 7 1q15 0 23 23q4 11 10 22t13 20q-15 18 -21.5 34t-6.5 30q0 10 6 21.5t12 20.5t12.5 16.5
t13.5 11.5q-3 -11 -4 -20t-1 -15q0 -22 9 -35.5t21 -18.5q11 8 27.5 16t27.5 12q14 7 14 24q0 21 -9.5 38.5t-33.5 25.5v9q7 4 21 4q19 0 33.5 -10t25.5 -24t17 -30.5t6 -28.5q28 0 37.5 16.5t9.5 36.5q0 13 -5 25l6 9q22 -15 31.5 -36t9.5 -43q0 -8 -1 -15.5t-6 -12.5
q9 -4 20 -11q25 14 43 19t32 5q18 0 27.5 -5t15.5 -8v-11q-35 -3 -54.5 -16.5t-28.5 -27.5l2 -14q1 -7 1 -12t0.5 -10.5t3.5 -11.5q10 -16 23.5 -23.5t22.5 -7.5q13 0 23.5 5t18.5 9h-1q4 2 6.5 3t7.5 -2q-2 -16 -7.5 -25t-12.5 -15t-15.5 -7.5t-14.5 -1.5q-13 0 -27 3.5
t-30 10.5q-15 5 -27 11.5t-22 12.5q1 -13 -2.5 -25.5t-9 -23t-14 -17.5t-15.5 -12h2q8 1 18 8t18.5 15t16.5 17t12 18zM630 -346q1 -22 -4 -29q-12 0 -31 14q-109 76 -210 117t-184 41q-54 0 -101 -13.5t-88 -39.5q5 147 123 147h22q8 0 14 -1h-2q128 -8 234 -62
q42 -23 88 -56t97 -78q-4 50 -7 100t-7 100q-9 15 -9 27q0 28 65 54v-321zM690 502l-28 -91h-259v-1h2v-16q0 -25 -4.5 -53t-12.5 -62h-33q-4 77 -55 132h-243l35 91h598zM252 -51q32 -24 84 -25q-7 1 -17 5q-11 4 -21 11.5t-18 19.5t-8 30q0 15 5 26.5t13.5 19t19 12.5
t21.5 7l6 -10q-7 -6 -10.5 -16.5t-3.5 -21.5q0 -13 7 -25t21 -19q3 1 3 2.5t1 4.5q-8 4 -16 12.5t-8 22.5q0 13 12 26.5t31 13.5q10 0 18 -4t12.5 -10.5t7 -12.5t2.5 -12q0 -16 -11 -28l3 -6q17 15 17 40q0 12 -8 25q-1 2 -2 6v-3l-2 4q0 1 -2 3q-6 5 -26 10t-50 5
q-25 1 -46.5 -6.5t-38.5 -17.5t-29 -20.5t-17 -14.5v-1q8 -13 21 -26.5t29 -26.5zM364 128q-49 4 -100 -37q16 6 34.5 10t42.5 4q18 0 32.5 -2t31 -6t34.5 -13t42 -22q-11 31 -40.5 47t-76.5 19z" />
    <glyph glyph-name="afii62841.069" unicode="&#xeab;" horiz-adv-x="707" 
d="M489 510l-32 -89h-128q63 -42 136.5 -113t161.5 -176q-7 254 -78 291l30 87h120l-37 -87v-322q0 -33 -15 -37h-2l-1 -1v-1q-9 0 -19 7t-18 14q-91 99 -192 176.5t-204 126.5q-28 -22 -52 -46.5t-42 -48.5q64 -12 119 -45t105 -85q18 -20 8 -40l-3 -3h-2q-2 -1 -6 -1h-7
l-2 1h-4q-2 3 -8 3q-17 12 -34 22q10 -8 19 -19q12 -15 17.5 -31.5t5.5 -29.5q27 1 37.5 16.5t10.5 35.5q0 13 -5 26l7 8q21 -13 30.5 -34.5t9.5 -42.5q0 -8 -0.5 -14.5t-6.5 -13.5q6 -1 10.5 -4.5t7.5 -7.5q25 15 44 21t33 6q17 0 27.5 -6t15.5 -9v-12q-37 -2 -56.5 -15.5
t-27.5 -30.5q3 -8 3 -23q0 -7 0.5 -12.5t1.5 -10.5v1q12 -17 25 -24.5t24 -7.5q14 0 25.5 6t19.5 10l2 2q3 2 9 4v-9q-6 -13 -10.5 -22.5t-12 -14t-14.5 -7.5t-15 -3q-22 0 -57 15q-13 4 -26 11t-22 13q1 -13 -3 -25t-8 -22q-7 -9 -13.5 -17.5t-14.5 -13.5v-1q9 2 18.5 8.5
t17.5 14.5t15.5 18t12.5 21l6 -29q-4 -9 -13.5 -24.5t-27 -29.5t-47 -25.5t-72.5 -11.5q-37 0 -65.5 9.5t-48.5 23.5t-34 29t-23 27q0 1 -1.5 2.5t-2.5 3.5q-19 0 -30.5 5t-16 10.5t-5.5 10t-1 7.5q0 8 10 9q1 2 7 2h15q6 1 12 1h9q13 0 21 23q5 13 10.5 22.5t10.5 17.5
q-13 18 -18.5 34t-5.5 31q0 11 5.5 23t11 21.5t13 16.5t13.5 12q-5 -24 -5 -35q0 -23 9.5 -37t22.5 -20q11 8 26.5 17t25.5 13q10 3 12 7.5t2 16.5q0 8 -3 18.5t-7.5 19t-12.5 15.5t-20 9v10q9 4 21 4t23 -5q-94 50 -201 50q-8 0 -18 -1t-17 -1q27 72 54.5 126.5t58.5 95.5
h-109l26 89h429zM269 -175q-10 3 -20 11t-18 20t-8 30q0 30 17.5 44.5t41.5 18.5l4 -8q-6 -8 -9.5 -17.5t-3.5 -21.5t6.5 -24t22.5 -19l4 5q-9 4 -16 14.5t-7 22.5q0 13 11 26t30 13q12 0 19.5 -3.5t11.5 -9t6.5 -12.5t2.5 -14q0 -15 -12 -29l4 -5q19 15 19 41q0 13 -7 21
q0 2 -1 3l-3 7q-1 1 -5 1q-3 3 -14.5 5t-27.5 3t-32.5 2t-31.5 1q-26 0 -46.5 -6t-38 -16.5t-29.5 -20t-16 -14.5q6 -13 23.5 -27.5t40.5 -24.5t50 -15q24 -7 49 -9q-6 3 -17 7zM316 22q-23 2 -49 -7t-52 -29q17 5 35 9t43 4q15 0 30 -2t30 -8t34.5 -14.5t43.5 -19.5
q-9 31 -38.5 48.5t-76.5 18.5z" />
    <glyph glyph-name="afii62841.070" unicode="&#xeac;" horiz-adv-x="743" 
d="M636 -446q1 -20 -6 -27q-11 0 -28 15q-228 156 -394 156q-109 0 -190 -51q4 147 123 147h23q6 0 12 -1q40 -4 80 -12l-8 4q-31 9 -51.5 24.5t-33.5 31t-20 26.5q-21 0 -31.5 5.5t-15.5 11.5t-6 12v5q0 8 11 8q4 1 8.5 2.5t11.5 2.5q13 0 21 2q14 0 20 21q4 10 11.5 20
t11.5 21q-13 17 -18 34t-5 31q0 25 11.5 42t22.5 25h9q-4 -11 -5.5 -19t-1.5 -15q0 -21 8.5 -34t18.5 -21q14 9 30 17.5t29 14.5q11 2 12.5 8t1.5 15q0 19 -11.5 38t-37.5 31q17 7 26 7q20 0 34 -9t25.5 -23.5t17 -31t6.5 -28.5q24 0 35.5 17t11.5 38q0 5 -0.5 11.5
t-2.5 10.5l2 8q10 -4 18.5 -12.5t13.5 -19.5t7 -22t2 -20q0 -8 -0.5 -16t-3.5 -15q5 -3 9.5 -6.5t9.5 -5.5q22 16 40.5 21.5t30.5 5.5q20 0 31 -5.5t15 -9.5v-10q-34 -2 -54 -16.5t-30 -31.5q3 -4 3 -11v-13q0 -5 0.5 -11t2.5 -7q13 -19 24.5 -25.5t24.5 -6.5q14 0 25.5 4.5
t18.5 9.5q2 0 5.5 2t5.5 2v-9q-5 -27 -20.5 -36t-31.5 -9q-23 0 -55 13q-17 8 -28.5 12.5t-22.5 12.5v-2l1 -2h-1q0 -9 -1 -21q-4 -13 -12 -23q-6 -8 -12 -16.5t-12 -12.5v-1q8 3 18 9.5t18 14.5t14.5 17t12.5 17l6 -26q-4 -8 -12.5 -23.5t-26.5 -31t-47 -26t-72 -10.5
q-19 0 -36 3q65 -16 123 -45q42 -23 90 -57.5t99 -76.5q-3 50 -6.5 99.5t-7.5 99.5q-10 14 -10 25q0 31 63 56zM515 510l-31 -89h-126q63 -42 136 -113t160 -176q-7 254 -76 291l28 87h121l-35 -87v-322q0 -31 -18 -37h-2v-1l-2 -1q-6 0 -16.5 7t-19.5 14q-90 99 -191 176.5
t-203 126.5q-31 -22 -54.5 -46.5t-38.5 -48.5q61 -12 116.5 -45t105.5 -85q20 -20 9 -40l-5 -3h-2q-1 -1 -2 -1h-4q-3 0 -5 0.5t-3 0.5h-2q-2 3 -9 3q-117 80 -254 80q-6 0 -16 -1t-18 -1q28 72 56 126.5t58 95.5h-112l28 89h427zM319 -183q-8 0 -18 4t-20.5 12t-17.5 21
t-7 31q0 16 7 28t20 20q-24 -4 -45.5 -10t-38.5 -12t-29.5 -11.5t-15.5 -9.5q6 -13 24.5 -26.5t40.5 -24.5t49 -17t51 -6v1zM347 20q-22 0 -49 -9t-51 -29q14 7 33 11t43 4q19 0 33.5 -1.5t31 -7t33.5 -12t42 -18.5q-11 28 -41.5 43t-74.5 19zM331 -60q-8 0 -16 -1l1 -2
q-5 -6 -8.5 -17t-3.5 -21q0 -13 6 -25t26 -18q0 2 2 4q-11 6 -17 16t-6 22q0 15 11.5 27t30.5 12q9 0 16.5 -4t12.5 -10t7 -12t2 -12q0 -14 -13 -29q4 -2 4 -2.5t1 -3.5q19 14 19 38q0 14 -8 27v-3q-1 0 -1 3q-15 4 -27 7.5t-23 3.5h-16zM283 -224l-3 1z" />
    <glyph glyph-name="afii62841.072" unicode="&#xeae;" horiz-adv-x="704" 
d="M610 218h-223v-9q0 -45 24 -64q14 -16 87 -48q34 -14 59 -27.5t38 -24.5q49 -43 49 -112q0 -23 -7.5 -46t-22.5 -43q-28 -36 -70 -60t-94 -29q-9 -3 -18 -3h-13q-118 0 -234 107q-37 31 -79 80.5t-94 116.5l57 81q31 -35 48 -56t18 -22q198 24 198 146v13h-288l50 88h235
q-4 20 -17 40q-14 25 -40 49h-212l45 89h455l-46 -89h-143q6 -23 6 -43q0 -12 -3 -25q-1 -9 -3 -21h200q-9 21 -16 39q-7 23 -7 41v9q0 23 15 47t42 50q24 24 40 44.5t17 33.5q23 -45 23 -71q0 -39 -46 -88q-38 -42 -38 -71v-10q0 -8 1 -16q0 -4 1 -8h47zM505 -17
q-55 22 -95 45.5t-69 49.5q-32 -31 -72 -53.5t-80 -35.5q37 -49 70 -82t58 -51q41 -24 76.5 -38t68.5 -14q62 0 109 55q5 8 7 17.5t2 20.5q0 61 -75 86z" />
    <glyph glyph-name="afii62841.073" unicode="&#xeaf;" horiz-adv-x="703" 
d="M496 -28q-4 -9 -14 -24t-27.5 -29t-47 -25t-70.5 -11t-70 11t-49.5 25t-34.5 29.5t-24 26.5q-17 3 -28.5 7t-16 9.5t-6 10t-1.5 5.5q0 11 11 11q1 2 7.5 2.5t14.5 0.5h12q5 0 7 1q15 0 23 23q4 11 10 22t13 20q-15 18 -21.5 34t-6.5 30q0 10 6 21.5t12 20.5t12.5 16.5
t13.5 11.5q-3 -11 -4 -20t-1 -15q0 -22 9 -35.5t21 -18.5q11 8 27.5 16t27.5 12q14 7 14 24q0 21 -9.5 38.5t-33.5 25.5v9q7 4 21 4q19 0 33.5 -10t25.5 -24t17 -30.5t6 -28.5q28 0 37.5 16.5t9.5 36.5q0 13 -5 25l6 9q22 -15 31.5 -36t9.5 -43q0 -8 -1 -15.5t-6 -12.5
q9 -4 20 -11q25 14 43 19t32 5q18 0 27.5 -5t15.5 -8v-11q-35 -3 -54.5 -16.5t-28.5 -27.5l2 -14q1 -7 1 -12t0.5 -10.5t3.5 -11.5q10 -16 23.5 -23.5t22.5 -7.5q13 0 23.5 5t18.5 9h-1q4 2 6.5 3t7.5 -2q-2 -16 -7.5 -25t-12.5 -15t-15.5 -7.5t-14.5 -1.5q-13 0 -27 3.5
t-30 10.5q-15 5 -27 11.5t-22 12.5q1 -13 -2.5 -25.5t-9 -23t-14 -17.5t-15.5 -12h2q8 1 18 8t18.5 15t16.5 17t12 18zM630 -346q1 -22 -4 -29q-12 0 -31 14q-109 76 -210 117t-184 41q-54 0 -101 -13.5t-88 -39.5q5 147 123 147h22q8 0 14 -1h-2q128 -8 234 -62
q42 -23 88 -56t97 -78q-4 50 -7 100t-7 100q-9 15 -9 27q0 28 65 54v-321zM690 502l-28 -91h-259v-1h2v-16q0 -25 -4.5 -53t-12.5 -62h-33q-4 77 -55 132h-243l35 91h598zM252 -51q32 -24 84 -25q-7 1 -17 5q-11 4 -21 11.5t-18 19.5t-8 30q0 15 5 26.5t13.5 19t19 12.5
t21.5 7l6 -10q-7 -6 -10.5 -16.5t-3.5 -21.5q0 -13 7 -25t21 -19q3 1 3 2.5t1 4.5q-8 4 -16 12.5t-8 22.5q0 13 12 26.5t31 13.5q10 0 18 -4t12.5 -10.5t7 -12.5t2.5 -12q0 -16 -11 -28l3 -6q17 15 17 40q0 12 -8 25q-1 2 -2 6v-3l-2 4q0 1 -2 3q-6 5 -26 10t-50 5
q-25 1 -46.5 -6.5t-38.5 -17.5t-29 -20.5t-17 -14.5v-1q8 -13 21 -26.5t29 -26.5zM364 128q-49 4 -100 -37q16 6 34.5 10t42.5 4q18 0 32.5 -2t31 -6t34.5 -13t42 -22q-11 31 -40.5 47t-76.5 19z" />
    <glyph glyph-name="afii62841.094" unicode="&#xeb0;" horiz-adv-x="707" 
d="M489 510l-32 -89h-128q63 -42 136.5 -113t161.5 -176q-7 254 -78 291l30 87h120l-37 -87v-322q0 -33 -15 -37h-2l-1 -1v-1q-9 0 -19 7t-18 14q-91 99 -192 176.5t-204 126.5q-28 -22 -52 -46.5t-42 -48.5q64 -12 119 -45t105 -85q18 -20 8 -40l-3 -3h-2q-2 -1 -6 -1h-7
l-2 1h-4q-2 3 -8 3q-17 12 -34 22q10 -8 19 -19q12 -15 17.5 -31.5t5.5 -29.5q27 1 37.5 16.5t10.5 35.5q0 13 -5 26l7 8q21 -13 30.5 -34.5t9.5 -42.5q0 -8 -0.5 -14.5t-6.5 -13.5q6 -1 10.5 -4.5t7.5 -7.5q25 15 44 21t33 6q17 0 27.5 -6t15.5 -9v-12q-37 -2 -56.5 -15.5
t-27.5 -30.5q3 -8 3 -23q0 -7 0.5 -12.5t1.5 -10.5v1q12 -17 25 -24.5t24 -7.5q14 0 25.5 6t19.5 10l2 2q3 2 9 4v-9q-6 -13 -10.5 -22.5t-12 -14t-14.5 -7.5t-15 -3q-22 0 -57 15q-13 4 -26 11t-22 13q1 -13 -3 -25t-8 -22q-7 -9 -13.5 -17.5t-14.5 -13.5v-1q9 2 18.5 8.5
t17.5 14.5t15.5 18t12.5 21l6 -29q-4 -9 -13.5 -24.5t-27 -29.5t-47 -25.5t-72.5 -11.5q-37 0 -65.5 9.5t-48.5 23.5t-34 29t-23 27q0 1 -1.5 2.5t-2.5 3.5q-19 0 -30.5 5t-16 10.5t-5.5 10t-1 7.5q0 8 10 9q1 2 7 2h15q6 1 12 1h9q13 0 21 23q5 13 10.5 22.5t10.5 17.5
q-13 18 -18.5 34t-5.5 31q0 11 5.5 23t11 21.5t13 16.5t13.5 12q-5 -24 -5 -35q0 -23 9.5 -37t22.5 -20q11 8 26.5 17t25.5 13q10 3 12 7.5t2 16.5q0 8 -3 18.5t-7.5 19t-12.5 15.5t-20 9v10q9 4 21 4t23 -5q-94 50 -201 50q-8 0 -18 -1t-17 -1q27 72 54.5 126.5t58.5 95.5
h-109l26 89h429zM269 -175q-10 3 -20 11t-18 20t-8 30q0 30 17.5 44.5t41.5 18.5l4 -8q-6 -8 -9.5 -17.5t-3.5 -21.5t6.5 -24t22.5 -19l4 5q-9 4 -16 14.5t-7 22.5q0 13 11 26t30 13q12 0 19.5 -3.5t11.5 -9t6.5 -12.5t2.5 -14q0 -15 -12 -29l4 -5q19 15 19 41q0 13 -7 21
q0 2 -1 3l-3 7q-1 1 -5 1q-3 3 -14.5 5t-27.5 3t-32.5 2t-31.5 1q-26 0 -46.5 -6t-38 -16.5t-29.5 -20t-16 -14.5q6 -13 23.5 -27.5t40.5 -24.5t50 -15q24 -7 49 -9q-6 3 -17 7zM316 22q-23 2 -49 -7t-52 -29q17 5 35 9t43 4q15 0 30 -2t30 -8t34.5 -14.5t43.5 -19.5
q-9 31 -38.5 48.5t-76.5 18.5z" />
    <glyph glyph-name="afii62841.174" unicode="&#xeb1;" horiz-adv-x="743" 
d="M636 -446q1 -20 -6 -27q-11 0 -28 15q-228 156 -394 156q-109 0 -190 -51q4 147 123 147h23q6 0 12 -1q40 -4 80 -12l-8 4q-31 9 -51.5 24.5t-33.5 31t-20 26.5q-21 0 -31.5 5.5t-15.5 11.5t-6 12v5q0 8 11 8q4 1 8.5 2.5t11.5 2.5q13 0 21 2q14 0 20 21q4 10 11.5 20
t11.5 21q-13 17 -18 34t-5 31q0 25 11.5 42t22.5 25h9q-4 -11 -5.5 -19t-1.5 -15q0 -21 8.5 -34t18.5 -21q14 9 30 17.5t29 14.5q11 2 12.5 8t1.5 15q0 19 -11.5 38t-37.5 31q17 7 26 7q20 0 34 -9t25.5 -23.5t17 -31t6.5 -28.5q24 0 35.5 17t11.5 38q0 5 -0.5 11.5
t-2.5 10.5l2 8q10 -4 18.5 -12.5t13.5 -19.5t7 -22t2 -20q0 -8 -0.5 -16t-3.5 -15q5 -3 9.5 -6.5t9.5 -5.5q22 16 40.5 21.5t30.5 5.5q20 0 31 -5.5t15 -9.5v-10q-34 -2 -54 -16.5t-30 -31.5q3 -4 3 -11v-13q0 -5 0.5 -11t2.5 -7q13 -19 24.5 -25.5t24.5 -6.5q14 0 25.5 4.5
t18.5 9.5q2 0 5.5 2t5.5 2v-9q-5 -27 -20.5 -36t-31.5 -9q-23 0 -55 13q-17 8 -28.5 12.5t-22.5 12.5v-2l1 -2h-1q0 -9 -1 -21q-4 -13 -12 -23q-6 -8 -12 -16.5t-12 -12.5v-1q8 3 18 9.5t18 14.5t14.5 17t12.5 17l6 -26q-4 -8 -12.5 -23.5t-26.5 -31t-47 -26t-72 -10.5
q-19 0 -36 3q65 -16 123 -45q42 -23 90 -57.5t99 -76.5q-3 50 -6.5 99.5t-7.5 99.5q-10 14 -10 25q0 31 63 56zM515 510l-31 -89h-126q63 -42 136 -113t160 -176q-7 254 -76 291l28 87h121l-35 -87v-322q0 -31 -18 -37h-2v-1l-2 -1q-6 0 -16.5 7t-19.5 14q-90 99 -191 176.5
t-203 126.5q-31 -22 -54.5 -46.5t-38.5 -48.5q61 -12 116.5 -45t105.5 -85q20 -20 9 -40l-5 -3h-2q-1 -1 -2 -1h-4q-3 0 -5 0.5t-3 0.5h-2q-2 3 -9 3q-117 80 -254 80q-6 0 -16 -1t-18 -1q28 72 56 126.5t58 95.5h-112l28 89h427zM319 -183q-8 0 -18 4t-20.5 12t-17.5 21
t-7 31q0 16 7 28t20 20q-24 -4 -45.5 -10t-38.5 -12t-29.5 -11.5t-15.5 -9.5q6 -13 24.5 -26.5t40.5 -24.5t49 -17t51 -6v1zM347 20q-22 0 -49 -9t-51 -29q14 7 33 11t43 4q19 0 33.5 -1.5t31 -7t33.5 -12t42 -18.5q-11 28 -41.5 43t-74.5 19zM331 -60q-8 0 -16 -1l1 -2
q-5 -6 -8.5 -17t-3.5 -21q0 -13 6 -25t26 -18q0 2 2 4q-11 6 -17 16t-6 22q0 15 11.5 27t30.5 12q9 0 16.5 -4t12.5 -10t7 -12t2 -12q0 -14 -13 -29q4 -2 4 -2.5t1 -3.5q19 14 19 38q0 14 -8 27v-3q-1 0 -1 3q-15 4 -27 7.5t-23 3.5h-16zM283 -224l-3 1z" />
    <glyph glyph-name="afii62841.074" unicode="&#xeb2;" horiz-adv-x="704" 
d="M610 218h-223v-9q0 -45 24 -64q14 -16 87 -48q34 -14 59 -27.5t38 -24.5q49 -43 49 -112q0 -23 -7.5 -46t-22.5 -43q-28 -36 -70 -60t-94 -29q-9 -3 -18 -3h-13q-118 0 -234 107q-37 31 -79 80.5t-94 116.5l57 81q31 -35 48 -56t18 -22q198 24 198 146v13h-288l50 88h235
q-4 20 -17 40q-14 25 -40 49h-212l45 89h455l-46 -89h-143q6 -23 6 -43q0 -12 -3 -25q-1 -9 -3 -21h200q-9 21 -16 39q-7 23 -7 41v9q0 23 15 47t42 50q24 24 40 44.5t17 33.5q23 -45 23 -71q0 -39 -46 -88q-38 -42 -38 -71v-10q0 -8 1 -16q0 -4 1 -8h47zM505 -17
q-55 22 -95 45.5t-69 49.5q-32 -31 -72 -53.5t-80 -35.5q37 -49 70 -82t58 -51q41 -24 76.5 -38t68.5 -14q62 0 109 55q5 8 7 17.5t2 20.5q0 61 -75 86z" />
    <glyph glyph-name="afii62841.095" unicode="&#xeb3;" horiz-adv-x="867" 
d="M662 72q-5 -8 -12 -22t-21 -31t-33.5 -34.5t-47.5 -31t-65 -21.5t-84 -8q-66 0 -114.5 17.5t-83.5 43t-58.5 52.5t-34.5 46q-32 0 -49.5 7t-26 17t-11 18t-2.5 9q0 7 5 10.5t12 3.5q6 1 17.5 2t22.5 2q9 1 16.5 1t14.5 3q11 0 20 9t17 27q7 21 17 38.5t21 32.5
q-24 31 -33 57t-9 49q0 22 5.5 39.5t13.5 32.5t19 25t19 15h8q-4 -15 -5 -27t-1 -23q0 -29 8 -48q9 -16 20 -28.5t22 -20.5q8 6 20.5 14t26.5 15q13 6 26 11.5t23 9.5q14 7 18 17t4 25q0 32 -17 65q-17 31 -57 43v11q19 9 35 9q34 0 58.5 -16t41.5 -40.5t25 -52t9 -49.5
q26 0 41.5 8.5t25 22.5t14 30t4.5 34q0 11 -1 21t-5 19l6 10q17 -11 29.5 -26t20 -31t11 -33t3.5 -32q0 -31 -8 -52q7 -4 13.5 -9t17.5 -13q37 24 66.5 33.5t55.5 9.5q29 0 47.5 -9.5t24.5 -14.5v-11q-27 -1 -50.5 -8.5t-40.5 -19t-29.5 -24.5t-21.5 -28q8 -18 12.5 -40.5
t3.5 -36.5q43 -20 72 -27.5t46 -7.5q15 0 27.5 5.5t22.5 8.5l1 -10q-4 -23 -12.5 -37.5t-20 -23.5t-24.5 -12.5t-27 -3.5q-16 0 -38.5 6.5t-48 16t-49.5 20.5t-44 22q3 -2 3 -5v-7q0 -21 -7 -39t-16 -32.5t-20.5 -27t-21.5 -20.5q0 -1 2 -2l1 -4q12 5 27.5 14.5t30 23
t28 27.5t21.5 29zM65 -13q26 -15 48.5 -31t44.5 -32q36 -26 100 -92q32 -32 57 -52.5t43 -32.5q26 -15 57 -23t65 -8q118 3 119 59q3 60 -62 61q-65 4 -100 -51q0 132 95 132q112 0 107 -144q-5 -142 -156 -150h-9q-5 -2 -10 -2q-22 0 -47.5 11t-55.5 33.5t-61.5 52.5
t-65.5 69q-41 48 -90 93t-100 82q-11 2 -3 20q4 7 15 7q1 0 4 -2h5zM405 -5q-10 2 -28.5 8.5t-36 18.5t-29.5 33t-12 52q0 44 27 69q29 26 66 33l6 -13q-11 -12 -17.5 -28t-6.5 -34q0 -10 2.5 -22.5t9 -23t17.5 -19.5t24 -14q2 5 3.5 7t2.5 6q-14 7 -25.5 24t-11.5 37
q0 12 4.5 22t12.5 19.5t21 15t30 5.5q16 0 28 -6.5t19.5 -15.5t10 -18.5t2.5 -17.5q0 -15 -2.5 -27t-15.5 -26l2 -4q3 -4 5 -6q25 17 32 50q3 9 3 21q0 19 -11 41q0 1 -2.5 2.5t-3.5 3.5q-4 6 -11 13q-9 6 -41.5 15t-83.5 9q-41 0 -76 -11.5t-64 -26.5t-47 -31t-31 -28
l-4 -3q13 -24 34.5 -48t51.5 -43.5t65 -31.5t76 -13zM449 336q-22 0 -44.5 -5t-46 -14.5t-48.5 -23t-46 -32.5q32 16 65.5 24.5t81.5 8.5q28 0 53 -3.5t52.5 -12.5t58.5 -23.5t73 -36.5q-18 53 -69.5 82t-129.5 36z" />
    <glyph glyph-name="afii62841.096" unicode="&#xeb4;" horiz-adv-x="859" 
d="M657 72q-4 -8 -12 -22t-21 -31t-33 -34.5t-48 -31t-65 -21.5t-83 -8q-67 0 -115.5 17.5t-83.5 43t-58 52.5t-35 46q-31 0 -49 7t-26.5 17t-11 18t-2.5 9q0 7 5 10.5t13 3.5q5 1 16.5 2t23.5 2q9 1 16 1t14 3q12 0 21 9t17 27q7 21 16.5 38.5t18.5 32.5q-23 31 -31.5 57
t-8.5 49q0 22 6 39.5t14 32.5t18 25t18 15h8q-2 -15 -3.5 -27t-1.5 -23q0 -29 8 -48q8 -16 19.5 -28.5t22.5 -20.5q8 6 20 14t26 15q15 6 27.5 11.5t22.5 9.5q15 7 19 17t4 25q0 32 -18 65q-17 31 -56 43v11q18 9 34 9q33 0 58 -16t41.5 -40.5t25 -52t9.5 -49.5q24 0 40 8.5
t25.5 22.5t14 30t4.5 34q0 11 -0.5 21t-3.5 19l4 10q19 -11 31 -26t19.5 -31t11 -33t3.5 -32q0 -31 -8 -52l13 -9q8 -5 18 -13q38 24 67.5 33.5t55.5 9.5q28 0 47 -9.5t25 -14.5v-11q-28 -1 -51 -8.5t-41 -19t-30 -24.5t-21 -28q7 -18 12 -40.5t4 -36.5q42 -20 71 -27.5
t48 -7.5q14 0 26.5 5.5t23.5 8.5l1 -10q-5 -23 -14 -37.5t-20 -23.5t-24 -12.5t-26 -3.5q-16 0 -39 6.5t-48.5 16t-49.5 20.5t-43 22q1 -2 1 -5v-7q0 -21 -6.5 -39t-16 -32.5t-21 -27t-20.5 -20.5q0 -1 1 -2l3 -4q11 5 26.5 14.5t30 23t28.5 27.5t22 29zM399 -5
q-9 2 -27 8.5t-36.5 18.5t-30.5 33t-12 52q0 44 29 69q28 26 66 33l4 -13q-11 -12 -16.5 -28t-5.5 -34q0 -10 2 -22.5t9 -23t17.5 -19.5t23.5 -14q1 5 3 7t4 6q-15 7 -26.5 24t-11.5 37q0 12 4 22t12 19.5t21.5 15t29.5 5.5t28 -6.5t19.5 -15.5t11 -18.5t3.5 -17.5
q0 -15 -3.5 -27t-14.5 -26l2 -4q1 -4 4 -6q24 17 32 50q4 9 4 21q0 19 -13 41q0 1 -1.5 2.5t-2.5 3.5q-6 6 -12 13q-10 6 -42 15t-83 9q-42 0 -76.5 -11.5t-63 -26.5t-47 -31t-30.5 -28l-6 -3q15 -24 36 -48t51 -43.5t65.5 -31.5t76.5 -13zM296 -252l151 157v13l36 -27v-228
zM445 336q-23 0 -45 -5t-46 -14.5t-49 -23t-47 -32.5q32 16 66 24.5t82 8.5q27 0 52 -3.5t52.5 -12.5t59.5 -23.5t74 -36.5q-18 53 -70.5 82t-128.5 36zM442 -155q-13 -13 -25 -27t-27 -31q10 -6 25 -12t27 -12v82z" />
    <glyph glyph-name="afii62841.097" unicode="&#xeb5;" horiz-adv-x="865" 
d="M658 72q-4 -8 -11.5 -22t-20.5 -31t-34 -34.5t-49 -31t-63.5 -21.5t-82.5 -8q-67 0 -116 17.5t-84 43t-57.5 52.5t-34.5 46q-32 0 -49 7t-27 17t-11.5 18t-1.5 9q0 7 4 10.5t13 3.5q6 1 16.5 2t24.5 2q8 1 16 1t12 3q13 0 22 9t17 27q8 21 16.5 38.5t20.5 32.5
q-24 31 -33.5 57t-9.5 49q0 22 7 39.5t15 32.5t17.5 25t17.5 15h9q-3 -15 -4 -27t-1 -23q0 -29 9 -48q7 -16 17.5 -28.5t24.5 -20.5q6 6 19 14t25 15q15 6 27.5 11.5t23.5 9.5q13 7 18 17t5 25q0 32 -18 65q-17 31 -58 43v11q18 9 36 9q32 0 56.5 -16t41.5 -40.5t25.5 -52
t8.5 -49.5q25 0 41.5 8.5t26.5 22.5t14.5 30t4.5 34q0 11 -2 21t-3 19l5 10q16 -11 28.5 -26t21 -31t12 -33t3.5 -32q0 -31 -11 -52q8 -4 15.5 -9t16.5 -13q38 24 68 33.5t54 9.5q30 0 48.5 -9.5t25.5 -14.5v-11q-30 -1 -52.5 -8.5t-40 -19t-29.5 -24.5t-20 -28
q8 -18 12.5 -40.5t3.5 -36.5q43 -20 71 -27.5t46 -7.5q16 0 28.5 5.5t20.5 8.5l1 -10q-5 -23 -13.5 -37.5t-19.5 -23.5t-23 -12.5t-27 -3.5q-16 0 -39.5 6.5t-48 16t-48 20.5t-43.5 22v-12q0 -21 -5.5 -39t-15 -32.5t-21 -27t-20.5 -20.5v-2l1 -4q12 5 28 14.5t31 23
t28.5 27.5t21.5 29zM679 -346q0 -22 -7 -29q-10 0 -30 14q-226 158 -393 158q-52 0 -100 -13.5t-89 -39.5q4 147 124 147h20q8 0 13 -1h-1q130 -8 232 -62q43 -23 90 -56t96 -78l-9 200q-6 8 -8.5 14t-2.5 13q0 28 62 54zM402 -5q-12 2 -29.5 8.5t-34.5 18.5t-30 33t-13 52
q0 44 27 69q28 26 67 33l5 -13q-12 -12 -18 -28t-6 -34q0 -10 3.5 -22.5t9.5 -23t16.5 -19.5t24.5 -14q2 5 3.5 7t1.5 6q-15 7 -25 24t-10 37q0 12 4 22t12 19.5t21 15t30 5.5q16 0 28 -6.5t19 -15.5t10.5 -18.5t3.5 -17.5q0 -15 -4 -27t-15 -26l2 -4q2 -4 5 -6q25 17 33 50
q3 9 3 21q0 19 -12 41q-3 1 -4.5 2.5t-2.5 3.5q-4 6 -12 13q-10 6 -40.5 15t-83.5 9q-41 0 -76.5 -11.5t-63 -26.5t-47 -31t-31.5 -28l-3 -3q14 -24 34.5 -48t50 -43.5t66 -31.5t77.5 -13zM445 336q-21 0 -44 -5t-47 -14.5t-47.5 -23t-45.5 -32.5q30 16 63.5 24.5t81.5 8.5
q31 0 56 -3.5t51 -12.5t58 -23.5t74 -36.5q-19 53 -70.5 82t-129.5 36z" />
    <glyph glyph-name="afii62841.098" unicode="&#xeb6;" horiz-adv-x="871" 
d="M663 72q-4 -8 -11.5 -22t-20.5 -31t-33 -34.5t-48.5 -31t-65.5 -21.5t-84 -8q-65 0 -113.5 17.5t-84 43t-58 52.5t-34.5 46q-31 0 -49.5 7t-27 17t-11 18t-2.5 9q0 7 6 10.5t11 3.5q7 1 18.5 2t23.5 2q8 1 15.5 1t13.5 3q11 0 21 9t18 27q5 21 15.5 38.5t20.5 32.5
q-24 31 -32.5 57t-8.5 49q0 22 5 39.5t13.5 32.5t19 25t18.5 15h8q-4 -15 -4.5 -27t-0.5 -23q0 -29 8 -48q8 -16 19.5 -28.5t21.5 -20.5q8 6 21 14t26 15q15 6 27.5 11.5t22.5 9.5q15 7 19 17t4 25q0 32 -19 65q-16 31 -55 43v11q17 9 34 9q33 0 58 -16t41.5 -40.5t24.5 -52
t10 -49.5q25 0 40.5 8.5t25.5 22.5t14 30t4 34q0 11 -0.5 21t-3.5 19l4 10q17 -11 30 -26t20.5 -31t10.5 -33t3 -32q0 -31 -8 -52q7 -4 14.5 -9t16.5 -13q38 24 68 33.5t55 9.5q29 0 47.5 -9.5t24.5 -14.5v-11q-27 -1 -50.5 -8.5t-41 -19t-29.5 -24.5t-21 -28
q7 -18 12 -40.5t3 -36.5q43 -20 72 -27.5t47 -7.5q14 0 27 5.5t22 8.5l3 -10q-6 -23 -14.5 -37.5t-20 -23.5t-24 -12.5t-27.5 -3.5q-16 0 -38 6.5t-47.5 16t-49.5 20.5t-43 22q1 -2 1 -5v-7q0 -21 -6.5 -39t-16 -32.5t-21 -27t-20.5 -20.5q0 -1 1 -2l1 -4q12 5 28 14.5
t30.5 23t27.5 27.5t22 29zM406 -5q-10 2 -28.5 8.5t-36 18.5t-29.5 33t-12 52q0 44 28 69q28 26 67 33l4 -13q-11 -12 -17.5 -28t-6.5 -34q0 -10 3 -22.5t10 -23t17 -19.5t24 -14q1 5 2.5 7t5.5 6q-16 7 -27.5 24t-11.5 37q0 12 4 22t12 19.5t21.5 15t29.5 5.5t28 -6.5
t19.5 -15.5t11 -18.5t3.5 -17.5q0 -15 -3.5 -27t-15.5 -26l3 -4q1 -4 4 -6q25 17 32 50q2 9 2 21q0 19 -11 41q0 1 -1.5 2.5t-4.5 3.5q-4 6 -11 13q-9 6 -41.5 15t-83.5 9q-41 0 -76 -11.5t-63 -26.5t-47 -31t-30 -28l-6 -3q15 -24 36 -48t50.5 -43.5t65.5 -31.5t77 -13z
M450 336q-21 0 -43.5 -5t-46 -14.5t-48 -23t-47.5 -32.5q32 16 65.5 24.5t82.5 8.5q28 0 52.5 -3.5t52 -12.5t58.5 -23.5t75 -36.5q-20 53 -71.5 82t-129.5 36z" />
    <glyph glyph-name="afii62841.099" unicode="&#xeb7;" horiz-adv-x="869" 
d="M669 -159v-363q0 -21 -14 -21q-7 0 -12 8q-79 77 -149.5 116.5t-129.5 43.5q-10 2 -20.5 4t-19.5 2q-48 0 -95 -24q0 103 99 109q12 0 25 -1q14 -2 29 -7q5 13 5 29q0 56 -64 98h-99q-35 -23 -54 -57t-19 -74q1 -53 38 -87l-90 -59q-14 23 -19.5 48t-5.5 56v21
q0 102 157 243h123q-39 6 -69 15q-49 18 -84 43.5t-57 52.5t-36 46q-32 0 -49 7t-26 17t-11 18t-2 9q0 7 4.5 10.5t12.5 3.5q5 1 16.5 2t25.5 2q6 1 14.5 1t13.5 3q12 0 20.5 9t16.5 27q8 21 17.5 38.5t21.5 32.5q-25 31 -34 57t-9 49q0 22 6 39.5t14.5 32.5t18.5 25t18 15
h9q-4 -15 -5.5 -27t-1.5 -23q0 -29 10 -48q7 -16 18 -28.5t23 -20.5q7 6 20.5 14t25.5 15q13 6 27 11.5t24 9.5q12 7 17.5 17t5.5 25q0 32 -19 65q-16 31 -58 43v11q19 9 37 9q32 0 56.5 -16t41.5 -40.5t25.5 -52t8.5 -49.5q26 0 42 8.5t26 22.5t14 30t4 34q0 11 -1.5 21
t-2.5 19l4 10q16 -11 28.5 -26t21 -31t11.5 -33t3 -32q0 -31 -9 -52q8 -4 15.5 -9t15.5 -13q37 24 68 33.5t54 9.5q29 0 48.5 -9.5t25.5 -14.5v-11q-29 -1 -52.5 -8.5t-40.5 -19t-29.5 -24.5t-19.5 -28q7 -18 12 -40.5t3 -36.5q43 -20 71.5 -27.5t45.5 -7.5q16 0 29 5.5
t21 8.5l1 -10q-4 -23 -12.5 -37.5t-20 -23.5t-23.5 -12.5t-27 -3.5q-16 0 -39 6.5t-47.5 16t-48.5 20.5t-43 22v-12q0 -21 -6 -39t-15.5 -32.5t-21 -27t-20.5 -20.5v-2l1 -4q13 5 29 14.5t30.5 23t27.5 27.5t22 29l5 -38q-3 -8 -10.5 -22t-20.5 -31t-34 -34.5t-49 -31
t-65 -20.5q-22 -7 -50 -8l-26 -81q10 -16 16 -33.5t9 -35.5v-39q-9 -28 -10 -39q102 -43 208 -165q-1 58 -2.5 98.5t-5.5 61.5q-7 59 -23.5 97t-42.5 52l37 85h112zM406 -5q-11 2 -29 8.5t-35.5 18.5t-30 33t-12.5 52q0 44 27 69q29 26 66 33l6 -13q-10 -12 -17 -28t-7 -34
q0 -10 3.5 -22.5t9 -23t16.5 -19.5t26 -14q1 5 2.5 7t1.5 6q-14 7 -24.5 24t-10.5 37q0 12 4 22t12 19.5t20.5 15t30.5 5.5q16 0 28 -6.5t19.5 -15.5t11 -18.5t3.5 -17.5q0 -15 -4 -27t-17 -26l5 -4q1 -4 2 -6q27 17 34 50q2 9 2 21q0 19 -11 41q-1 1 -3.5 2.5t-3.5 3.5
q-3 6 -11 13q-9 6 -41 15t-83 9q-41 0 -76.5 -11.5t-63 -26.5t-47 -31t-32.5 -28l-3 -3q15 -24 36 -48t50 -43.5t65.5 -31.5t77.5 -13zM449 336q-20 0 -43.5 -5t-47 -14.5t-47 -23t-46.5 -32.5q31 16 64.5 24.5t81.5 8.5q30 0 54.5 -3.5t51.5 -12.5t58.5 -23.5t72.5 -36.5
q-18 53 -69 82t-130 36z" />
    <glyph glyph-name="afii62841.100" unicode="&#xeb8;" horiz-adv-x="664" 
d="M464 -28q-6 -9 -14.5 -24t-26.5 -29t-47 -25t-71 -11q-41 0 -70 11t-49.5 25t-35 29.5t-23.5 26.5q-19 3 -28.5 7t-16 9.5t-7 10t-0.5 5.5q0 11 10 11q4 2 9.5 2.5t12.5 0.5h12q6 0 8 1q16 0 23 23q9 23 21 42q-13 18 -18.5 34t-5.5 30q0 10 5 21.5t10 20.5t13 16.5
t15 11.5q-1 -11 -3 -20t-2 -15q0 -22 8.5 -35.5t20.5 -18.5q11 8 27 16t30 12q13 7 13 24q0 21 -11 38.5t-33 25.5v9q8 4 20 4q20 0 34.5 -10t25.5 -24t17 -30.5t8 -28.5q25 0 35.5 16.5t10.5 36.5q0 13 -4 25l5 9q21 -15 30.5 -36t9.5 -43q0 -8 -1.5 -15.5t-5.5 -12.5
q12 -4 20 -11q24 14 42 19t33 5q18 0 27.5 -5t13.5 -8v-11q-33 -3 -52.5 -16.5t-30.5 -27.5q3 -7 3 -14v-12q0 -5 1 -10.5t6 -11.5q10 -16 22.5 -23.5t21.5 -7.5q15 0 24 5t18 9q4 2 7 3t8 -2q-3 -16 -9 -25t-12.5 -15t-14.5 -7.5t-15 -1.5q-11 0 -25.5 3.5t-31.5 10.5
q-15 5 -27 11.5t-24 12.5q3 -13 0 -25.5t-9 -23t-14 -17.5t-15 -12h3q8 1 17 8t17.5 15t16.5 17t12 18zM659 502l-29 -91h-259v-17q0 -25 -3.5 -53t-11.5 -62h-34q-5 77 -55 132h-243l36 91h599zM221 -51q30 -24 83 -25q-6 1 -17 5t-21 11.5t-17.5 19.5t-7.5 30
q0 15 4.5 26.5t13 19t19 12.5t21.5 7l6 -10q-6 -6 -10.5 -16.5t-4.5 -21.5q0 -13 7 -25t23 -19v3q0 1 2 4q-9 4 -15.5 12.5t-6.5 22.5q0 13 11 26.5t30 13.5q13 0 19.5 -4t12 -10.5t7.5 -12.5t2 -12q0 -17 -12 -28l2 -6q20 14 20 40q0 10 -8 25h-2l-1 6v-3q-2 3 -2 4t-4 3
q-5 5 -24.5 10t-49.5 5q-25 1 -46.5 -6.5t-38.5 -17.5t-29 -20.5t-18 -14.5h2l-2 -1q8 -13 22 -26.5t30 -26.5zM333 128q-24 1 -50 -8t-50 -29q16 6 34 10t42 4q19 0 33 -2t31 -6t34.5 -13t42.5 -22q-11 31 -41 47t-76 19z" />
    </font>
</defs>
</svg>
